<?xml version="1.0" standalone="no"?>
<!DOCTYPE svg PUBLIC "-//W3C//DTD SVG 1.1//EN" "http://www.w3.org/Graphics/SVG/1.1/DTD/svg11.dtd" >
<svg xmlns="http://www.w3.org/2000/svg">
<metadata>
Created by FontPrep 20130207 at Wed Nov 23 15:43:48 2016
 By Tina Muller
Copyright (c) 2016 by MaGo Fonts. All rights reserved.
</metadata>
<defs>
<font id="107c97d4d288f43306c5a863d08841ef" horiz-adv-x='1024' >
  <font-face 
    font-family="Gorni"
    font-weight="400"
    font-stretch="normal"
    units-per-em="2048"
    panose-1="2 15 5 0 0 0 0 2 0 4"
    ascent="1638"
    descent="-410"
    x-height="1028"
    cap-height="1577"
    bbox="-3420 -1798.01 4428 3357.34"
    underline-thickness="102"
    underline-position="-102"
    unicode-range="U+000D-FB02"
  />
<missing-glyph horiz-adv-x="1024" 
 />
    <glyph glyph-name="q_u_e" unicode="que" horiz-adv-x="3741" 
d="M3080 -145v-50q-293 0 -542 -204q-110 -90 -218 -201q-108 -112 -230 -222q-120 -110 -256 -200t-324 -147t-406 -58l-4 41q156 0 302 58t265 149q119 92 235 203q116 112 232 222t235 202q118 92 264 149t300 58h147zM3637 -123q791 0 791 -649q0 -213 -180 -370
t-469 -156q-248 0 -379 172q-109 141 -76 302t192 220q76 29 166 29l80 -175q-208 0 -274 -120t27 -243q93 -122 275 -122t324 137q141 137 142 326q0 569 -500 569q-295 0 -536 -203q-108 -90 -213 -200t-223 -218q-118 -110 -251 -200t-319 -146t-406 -57l-4 41
q156 0 302 58t266 153q120 94 234 207q116 112 233 226t235 208t263 152q146 58 300 59zM641 45q213 0 213 481q0 240 -60 361t-162 121t-174 -114q-73 -114 -73 -384q1 -270 69 -368t187 -97zM3176 1022q-92 0 -148 -77t-76 -187q-44 -239 -36 -406l2 -78q0 66 161 149
q67 34 133 74t112 103q47 62 47 164t-51 180q-52 78 -144 78zM3136 -61q-207 0 -317 83q-111 83 -142 144l-15 27q-135 0 -443 -294q-136 -130 -297 -288q-383 -375 -726 -605q-193 -130 -419 -212t-441 -82q-489 0 -709 299q-162 219 -125 510q31 256 195 407
q129 121 295 121l149 -172q-326 0 -471 -209q-120 -172 -62 -399t260 -355t464 -126q174 0 365 64t367 176q326 205 599 474q-51 59 -157 45t-232 -77q-127 -63 -519 -289q-501 -293 -760 -117q-99 68 -121 165t3 194t128 165t253 68q80 0 153 -30q144 -59 144 -204h-199
q12 24 16 60q5 38 -4 62t-44 43t-97 20q-164 1 -231 -111t-6 -221q78 -141 303 -154l39 -2q106 0 207 29q100 28 157 62q58 34 98 94t40 137v612q-123 -100 -267 -100q-477 0 -477 483q0 311 148 468t386 157t370 -126t132 -448v-893q0 -108 91 -76q43 15 95 45
q129 75 241 110q142 45 237 -50q53 51 183 174t188 180q-104 0 -105 209q0 -33 -33 -77q-33 -45 -73 -73q-94 -67 -269 -68q-176 -1 -245 66q-35 34 -57 66q-42 62 -42 256v516q0 55 -27 70q-28 14 -57 0l-28 -12l-43 26q6 10 21 28t75 45q60 28 131 28q72 0 119 -25t79 -68
q40 -54 40 -231v-387q0 -270 206 -270q112 0 155 103q36 87 36 171v449q0 119 -56 168t-90 53l-16 4h649q-16 0 -50 -17q-111 -56 -111 -210v-643q40 40 124 78t140 38q-31 59 -31 234q0 248 152 408t432 159q173 0 301 -62q70 -34 110 -104t41 -156q1 -85 -73 -155
t-180 -119t-210 -92q-106 -43 -180 -84t-74 -76q0 -84 78 -140t176 -56t174 45q116 70 187 214q25 50 24 70l80 -18q-7 -57 -46 -132q-38 -75 -89 -128q-52 -53 -154 -96t-216 -43z" />
    <glyph glyph-name="y_p" unicode="yp" horiz-adv-x="2336" 
d="M256 -1708q774 0 887 774q-156 76 -315 170t-240 152l-82 57q-37 -91 -104 -201q-68 -110 -139 -190t-183 -145t-243 -65q-132 0 -240 30q41 -226 225 -404t434 -178zM-127 -1079q160 0 332 198q-109 185 -270 185t-247 -77t-100 -204q98 -102 285 -102zM-500 -764
q0 -35 8 -67q150 205 478 204q150 0 333 -94q64 96 101 178l12 27q-29 16 -77 42t-172 68t-222 41q-461 0 -461 -399zM1656 1008q-102 0 -162 -121t-60 -363q0 -481 213 -481q119 0 187 97q68 98 69 368q0 270 -73 385t-174 115zM113 1083q163 0 267 -118q24 -27 34 -47
l291 -654l174 570q2 8 6 22t4 49t-10 62t-45 49t-93 22h543q-156 0 -272 -134q-27 -30 -37 -52l-12 -21l-299 -976l-119 -326q281 -201 608 -371q8 76 8 185v1144q0 322 132 448q133 126 371 126t386 -157t148 -468q0 -485 -480 -485q-135 0 -268 102v-688q0 -172 -41 -328
q274 -115 451 -114q248 0 362 77t130 162q16 86 7 140l-6 22l201 -59q-4 -1 0 -15t-3 -38t-14 -65q-7 -40 -79 -127q-59 -69 -199 -122t-361 -53t-514 115q-108 -319 -373 -523q-136 -104 -330 -163q-194 -60 -412 -60t-385 68t-267 176q-101 108 -151 236t-37 255
q-154 109 -154 318t168 329t494 119q160 -1 299 -51q140 -50 210 -85l25 -11l111 299l-398 881q-67 134 -150 181q-38 22 -77 21q-69 0 -86 -51q0 119 123 165q51 19 119 19z" />
    <glyph glyph-name=".notdef" horiz-adv-x="1024" 
 />
    <glyph glyph-name=".null" horiz-adv-x="0" 
 />
    <glyph glyph-name="nonmarkingreturn" horiz-adv-x="681" 
 />
    <glyph glyph-name="NULL" horiz-adv-x="0" 
 />
    <glyph glyph-name="NULL" horiz-adv-x="0" 
 />
    <glyph glyph-name="CR" unicode="&#xd;" horiz-adv-x="1024" 
 />
    <glyph glyph-name="space" unicode=" " horiz-adv-x="450" 
 />
    <glyph glyph-name="exclam" unicode="!" horiz-adv-x="559" 
d="M258 252q104 0 144 -69t-2 -139t-140 -69q-55 0 -92 29t-45 69q-20 99 47 150q37 29 88 29zM332 442h-115l-113 1344h340z" />
    <glyph glyph-name="quotedbl" unicode="&#x22;" horiz-adv-x="546" 
d="M285 1942h123v-484h-123v484zM43 1458v484h123v-484h-123z" />
    <glyph glyph-name="numbersign" unicode="#" horiz-adv-x="1974" 
d="M1194 649l119 449h-545l-115 -449h541zM1929 1098h-434l-115 -449h394v-162h-435l-192 -747h-195l199 747h-539l-192 -747h-195l199 747h-395v162h438l119 449h-402v162h445l200 755h175l-195 -755h547l200 755h177l-195 -755h391v-162z" />
    <glyph glyph-name="dollar" unicode="$" horiz-adv-x="1562" 
d="M1210 213q0 195 -223 307v-540q102 29 163 89q60 60 60 144zM680 -31q104 -20 215 -8v602q-35 14 -108 41t-107 41v-676zM395 1348q0 -199 193 -308v533q-193 -59 -193 -225zM895 1575q-113 29 -215 16v-596q35 -14 215 -80v660zM1411 362q0 -184 -125 -296t-299 -150
v-166h-92v152q-19 -2 -77 -2t-138 12v-162h-92v180q-166 41 -232 103q-37 33 -51 21t-14 -42l-2 -30h-60v589h84v-221q0 -133 76 -223t199 -133v688q-280 123 -348 314q-29 81 -29 182q0 190 104 305t273 149v213h92v-200q18 2 86 2t129 -9v207h92v-225q59 -16 141 -53
t123 -37t66 30t33 58l8 29v-564h-64q0 168 -85 286t-222 175v-661q94 -37 162 -75q175 -98 229 -246q33 -87 33 -200z" />
    <glyph glyph-name="percent" unicode="%" horiz-adv-x="1705" 
d="M1313 16q69 0 107 72t37 159t-40 159t-107 72t-109 -72q-40 -72 -40 -159t41 -159t111 -72zM1312 553q88 0 156 -34q119 -59 154 -192q36 -133 -47 -257q-35 -53 -105 -87t-162 -34t-165 34q-74 34 -110 87t-51 116t4 128t58 118t110 87t158 34zM455 1055q71 -1 109 71
t36 159t-41 159t-107 72t-109 -72q-40 -72 -39 -159t41 -159t110 -71zM454 1589q86 0 156 -33q120 -57 156 -191q35 -134 -47 -259q-35 -53 -105 -86t-162 -33t-165 33q-74 33 -110 86q-84 123 -44 258t163 192q71 33 158 33zM1315 1710h182l-1051 -1880h-200z" />
    <glyph glyph-name="ampersand" unicode="&#x26;" horiz-adv-x="1576" 
d="M776 39q170 0 275 82q-131 106 -281 273t-233 282l-84 115q0 2 -4 4q-82 -100 -82 -306q-1 -160 119 -305t290 -145zM1362 -29q-106 0 -260 111q-158 -143 -436 -143q-278 -1 -429 155t-151 375q0 178 85 292t212 134q-119 201 -119 340q0 179 94 264t236 103q63 8 139 8
q158 0 244 -100t86 -207h-145q5 27 1 74q-5 48 -21 80q-15 31 -56 57t-113 26q-151 0 -197 -80q-36 -61 -36 -162q0 -100 204 -366t449 -502v344q0 92 -41 154t-82 80l-41 16h410q-107 -36 -147 -143q-17 -47 -17 -107v-422q254 -223 356 -223q63 0 101 24t41 48l6 24
l59 -20q-7 -34 -39 -78q-33 -43 -75 -74t-127 -57t-191 -25z" />
    <glyph glyph-name="quotesingle" unicode="'" horiz-adv-x="270" 
d="M63 1942h123v-484h-123v484z" />
    <glyph glyph-name="parenleft" unicode="(" horiz-adv-x="882" 
d="M467 835q0 -191 39 -357t95 -263q57 -98 113 -169t95 -99l39 -27l-25 -49q-14 6 -39 16q-26 9 -96 51q-152 89 -274 222q-159 172 -230 408q-39 134 -39 278q0 368 267 627q72 71 144 111q164 92 230 108l37 12l25 -43q-16 -5 -42 -19t-92 -74t-115 -144
q-50 -84 -91 -240q-41 -158 -41 -349z" />
    <glyph glyph-name="parenright" unicode=")" horiz-adv-x="866" 
d="M766 846q0 -144 -38 -278t-97 -230q-124 -202 -276 -310t-228 -143l-39 -14l-22 49q16 10 42 30t91 96q66 77 115 171q50 94 92 260q40 166 40 358q0 193 -38 349t-96 240q-56 84 -112 142t-96 76l-38 19l22 43q14 -4 39 -11t95 -39q150 -68 252 -160q102 -93 158 -176
t95 -206t39 -266z" />
    <glyph glyph-name="asterisk" unicode="*" horiz-adv-x="847" 
d="M487 1319q49 -57 101 -99t80 -57l28 -12l-188 -137q-8 109 -96 254q-41 -66 -65 -129t-28 -95l-4 -30l-188 137q100 39 211 170q-74 18 -142 21t-100 -3l-30 -6l71 221q70 -82 228 -145q-5 77 -23 141t-33 90l-14 27h233q-59 -90 -71 -260q72 29 128 66t79 59l20 22
l72 -221q-105 27 -269 -14z" />
    <glyph glyph-name="plus" unicode="+" horiz-adv-x="1415" 
d="M1343 776v-231h-520v-545h-233v545h-520v231h520v543h233v-543h520z" />
    <glyph glyph-name="comma" unicode="," horiz-adv-x="487" 
d="M410 74q0 -162 -62 -247t-174 -77l-2 82q57 0 90 38t33 105q-145 0 -189 97q-34 76 16 131t123 55t119 -47t46 -137z" />
    <glyph glyph-name="hyphen" unicode="-" horiz-adv-x="956" 
d="M905 823v-223h-848v223h848z" />
    <glyph glyph-name="period" unicode="." horiz-adv-x="460" 
d="M223 258q105 0 145 -70t-2 -140t-141 -68q-55 0 -92 28t-45 70q-20 101 47 151q37 29 88 29z" />
    <glyph glyph-name="slash" unicode="/" horiz-adv-x="1009" 
d="M881 1901h129l-875 -2147h-141z" />
    <glyph glyph-name="zero" unicode="0" horiz-adv-x="1632" 
d="M817 -6q150 0 255 198q106 198 106 586q0 389 -114 582q-114 192 -247 192t-247 -192t-114 -582q0 -388 106 -586q105 -198 255 -198zM817 -80q-682 0 -682 843q0 165 34 310t93 237q123 191 274 250q151 60 307 60t312 -91q98 -55 171 -147t123 -256t50 -346
q0 -455 -179 -658q-179 -202 -503 -202z" />
    <glyph glyph-name="one" unicode="1" horiz-adv-x="1017" 
d="M741 250q0 -92 41 -154t82 -80l41 -16h-655q106 35 146 143q17 47 18 107v1018l-256 -254l-43 55l475 485q6 6 16 18t37 30q27 20 46 24t36 -18q16 -23 16 -78v-1280z" />
    <glyph glyph-name="two" unicode="2" horiz-adv-x="1452" 
d="M760 1606q166 0 292 -71q233 -131 191 -455q-18 -146 -108 -308t-223 -294t-273 -298l-45 -53q186 -90 405 -90q127 0 233 94q88 82 120 148l16 26l84 -51l-16 -32t-52 -74q-42 -52 -90 -92q-49 -40 -134 -72q-86 -32 -190 -33q-104 0 -204 19t-156 43q-144 61 -236 62
t-166 -30t-110 -61l-35 -33q0 78 181 300q180 222 405 447q279 279 336 521q51 215 -113 284q-61 25 -152 25t-158 -43q-68 -43 -94 -105q-55 -130 -50 -231l2 -43l-236 111q6 51 46 127t94 126t162 94q108 42 274 42z" />
    <glyph glyph-name="three" unicode="3" horiz-adv-x="1353" 
d="M724 1079q66 0 127 -8q60 -8 138 -42t129 -91t88 -166t37 -256t-52 -256t-125 -166t-192 -100q-265 -96 -498 22q-155 79 -218 206q-37 74 -37 146q0 136 29 187l10 18l196 -59q-39 -39 -42 -122q-7 -195 130 -311q74 -63 174 -63t167 32q119 57 147 260q12 87 12 222
q0 236 -88 350t-229 113q-66 0 -138 -37t-110 -73l-39 -37l-72 45l600 477q-145 -76 -407 -76q-158 0 -250 33l-29 12l-47 267q615 -60 965 -26q122 12 158 39l-656 -562q56 22 122 22zM1258 1619l6 5q-3 -3 -6 -5z" />
    <glyph glyph-name="four" unicode="4" horiz-adv-x="1216" 
d="M641 553v868l-483 -868h483zM969 250q0 -121 55 -179t106 -71h-653q107 36 147 143q17 47 17 107v151h-645l645 1172h328v-1020h108v-152h-108v-151z" />
    <glyph glyph-name="five" unicode="5" horiz-adv-x="1345" 
d="M686 1083q258 0 406 -206q131 -184 106 -428t-219 -381q-160 -113 -397 -113q-115 0 -200 35t-132 89q-97 111 -112 253t-3 211l4 35l211 -60q-39 -39 -52 -120t3 -165t91 -147t197 -63t209 100q86 99 112 243t13 288t-91 244t-197 101q-185 0 -367 -172l-18 -20h-55v792
q259 -30 476 -28q423 3 492 76q-1 -45 -27 -110t-68 -109t-132 -80t-217 -35q-127 0 -240 14t-160 29l-47 14v-440q18 16 52 42t140 68q107 42 222 43z" />
    <glyph glyph-name="six" unicode="6" horiz-adv-x="1388" 
d="M731 33q80 0 149 99q70 100 94 242q61 355 -68 526q-76 99 -202 99t-214 -100t-87 -194q0 -297 83 -485t245 -187zM717 1069q141 0 252 -48t174 -126q132 -164 122 -384q-11 -220 -151 -380q-68 -78 -171 -126t-226 -48q-182 0 -316 93q-133 93 -192 243t-79 329
q-19 179 25 359t118 330q75 151 203 243t278 93q194 0 301 -73t136 -152q29 -78 36 -146l-215 -47q7 51 0 117q-8 67 -28 114t-74 85t-142 38q-88 -1 -174 -109t-134 -270t-48 -325q60 120 189 170q55 20 116 20z" />
    <glyph glyph-name="seven" unicode="7" horiz-adv-x="1228" 
d="M678 352v-102q0 -121 55 -179q55 -59 107 -71h-654q105 35 145 143q17 47 17 107v102q12 285 195 521q88 116 151 188t160 160l96 86q-92 0 -233 12t-233 18t-186 -1q-185 -14 -185 -167h-62q-34 136 9 267q35 106 141 149q59 25 140 25t305 -39t393 -36t253 87
q-49 -115 -153 -221q-461 -461 -461 -1049z" />
    <glyph glyph-name="eight" unicode="8" horiz-adv-x="1298" 
d="M646 29q102 0 165 85q115 156 79 451q-14 123 -78 208t-154 85t-156 -85t-87 -208q-55 -299 63 -451q66 -85 168 -85zM654 1573q-81 0 -137 -68q-57 -68 -71 -164q-36 -236 67 -358q56 -68 139 -68t140 68q100 122 69 357q-13 97 -69 165q-57 68 -138 68zM646 -47
q-165 0 -293 55q-234 101 -286 328t101 416q76 92 192 143q-76 49 -120 124q-91 152 -36 321t230 242q96 40 228 40t244 -56t161 -144q113 -201 20 -376q-49 -94 -143 -153q115 -51 190 -142q76 -91 98 -195t-4 -212t-96 -194t-195 -142q-126 -56 -291 -55z" />
    <glyph glyph-name="nine" unicode="9" horiz-adv-x="1384" 
d="M586 1569q-78 -1 -140 -99q-113 -182 -89 -519q11 -140 79 -238q68 -99 184 -99t192 96q75 96 75 212q0 647 -301 647zM570 532q-89 0 -182 38t-151 103q-59 65 -97 149q-66 143 -35 360q25 175 160 324q59 65 147 103t188 38q156 0 283 -73q233 -134 324 -462
q42 -152 42 -310t-42 -310q-91 -328 -324 -462q-127 -73 -261 -73q-248 0 -354 73q-107 73 -128 154t-17 121l4 21l215 47v-38q0 -24 11 -85q11 -60 33 -108t71 -86t112 -38q164 0 239 120q59 93 67 275t7 234q-1 53 -1 76q-4 -17 -32 -58t-56 -66q-75 -67 -223 -67z" />
    <glyph glyph-name="colon" unicode=":" horiz-adv-x="604" 
d="M295 258q104 0 144 -70t-2 -140t-140 -68q-55 0 -92 28t-45 70q-20 101 47 151q37 29 88 29zM295 1034q104 0 144 -68t-2 -139q-42 -70 -140 -69q-55 0 -92 28t-45 69q-20 99 47 151q37 28 88 28z" />
    <glyph glyph-name="semicolon" unicode=";" horiz-adv-x="559" 
d="M424 74q0 -162 -62 -247t-174 -77l-2 82q57 0 90 38t33 105q-145 0 -188 97q-35 76 15 131t123 55t119 -47t46 -137zM256 1034q104 0 144 -68t-2 -139q-42 -70 -140 -69q-55 0 -92 28t-45 69q-20 99 47 151q37 28 88 28z" />
    <glyph glyph-name="less" unicode="&#x3c;" horiz-adv-x="1208" 
d="M1208 1667l-932 -844l932 -823h-276l-932 823l932 844h276z" />
    <glyph glyph-name="equal" unicode="=" horiz-adv-x="1515" 
d="M117 270v232h1272v-232h-1272zM117 1049h1272v-232h-1272v232z" />
    <glyph glyph-name="greater" unicode="&#x3e;" horiz-adv-x="1216" 
d="M4 1667h277l931 -844l-931 -823h-277l932 823z" />
    <glyph glyph-name="question" unicode="?" horiz-adv-x="1140" 
d="M63 1237q0 92 35 172q63 144 226 216q129 58 309 36q181 -22 307 -135q127 -114 127 -302q0 -100 -37 -184t-92 -131t-121 -98t-121 -98t-92 -131t-37 -195h-88q0 238 103 377l86 116q102 139 102 375t-122 317t-244 -2t-121 -251q0 -127 74 -210q18 -20 42 -36
l-209 -147q-48 41 -87 130q-40 89 -40 181zM530 252q104 0 144 -69t-1 -139q-42 -70 -141 -69q-55 0 -92 29t-45 69q-20 99 47 150q37 29 88 29z" />
    <glyph glyph-name="at" unicode="@" horiz-adv-x="2154" 
d="M1038 176q174 0 174 341t-163 341q-70 0 -122 -73q-53 -73 -53 -269t40 -268t124 -72zM1154 -508q-335 0 -593 146q-137 78 -238 194t-164 295q-63 178 -63 403q0 224 64 408t166 300q104 116 244 192q252 137 579 137q365 -1 601 -235t235 -611q0 -141 -41 -253
q-42 -112 -100 -174t-152 -116t-213 -65h-2q-197 0 -242 123q-53 -123 -197 -123q-198 0 -308 103t-109 306q0 301 284 383q148 42 283 0q163 -48 228 -188q38 -82 38 -191v-170q2 -84 15 -120t57 -35q44 0 112 37t114 88q46 52 83 160t37 244q0 274 -188 500
q-89 108 -229 174q-236 112 -581 38q-130 -30 -252 -98t-210 -174t-142 -268t-53 -360q0 -198 53 -356q54 -158 142 -263t204 -179q217 -139 493 -139q277 0 474 100t293 213q97 114 119 168l14 27l70 -107q-33 -65 -128 -167q-96 -101 -194 -169t-266 -123t-337 -55z" />
    <glyph glyph-name="A" unicode="A" horiz-adv-x="1394" 
d="M348 551h483l-249 829zM1509 0h-749q63 0 103 28t51 66q23 80 10 144l-6 26h2l-62 205h-534l-60 -211q-13 -61 -2 -126q21 -132 164 -132h-510q55 0 106 34q50 34 98 109t68 148l293 1038q11 28 13 78q2 49 -10 81q-11 32 -53 58t-112 27h766q-65 0 -105 -25
q-40 -26 -51 -60q-25 -79 -11 -128l327 -1086q33 -100 100 -187t164 -87z" />
    <glyph glyph-name="B" unicode="B" horiz-adv-x="1714" 
d="M786 55q217 0 322 81q104 81 104 294q0 86 -30 148t-70 96q-99 80 -334 80h-180v-699h188zM778 1499h-180v-678h188q215 0 321 79q105 79 105 284q0 280 -319 311q-52 4 -115 4zM1169 784q163 0 288 -88q65 -45 105 -125q40 -79 40 -189t-36 -188q-63 -137 -257 -178
q-82 -16 -193 -16h-997q106 35 146 143q17 47 18 107v1073q0 93 -41 155t-82 78l-41 17h960q215 0 332 -115t117 -299q0 -109 -36 -187q-61 -130 -207 -171q-57 -17 -116 -17z" />
    <glyph glyph-name="C" unicode="C" horiz-adv-x="1519" 
d="M442 778q0 -194 47 -350q47 -154 122 -242q150 -176 319 -180q111 0 203 50t144 126q111 162 109 305h66v-33q0 -165 -101 -321q-45 -68 -107 -116t-166 -82q-186 -61 -433 -15q-96 18 -204 74q-107 56 -185 146q-78 89 -129 245t-51 345q0 367 141 569q141 199 306 265
q164 66 303 68t228 -16t127 -41q97 -59 128 -59t59 22t37 45l12 23v-592h-69q0 553 -504 553q-66 -2 -133 -50q-159 -113 -229 -388q-40 -157 -40 -351z" />
    <glyph glyph-name="D" unicode="D" horiz-adv-x="1697" 
d="M608 45q299 0 467 182t168 609q0 172 -46 302t-113 202q-68 72 -158 115q-90 44 -165 57t-153 14v-1481zM905 1573q117 0 241 -52q283 -119 407 -395q69 -152 69 -329q0 -361 -211 -579t-514 -218h-780q106 35 146 143q17 47 18 107v1073q0 93 -41 155t-82 78l-41 17h788
z" />
    <glyph glyph-name="E" unicode="E" horiz-adv-x="1490" 
d="M283 1323q0 144 -107 220q-28 19 -57 30h1218l15 -438h-29q-18 124 -78 231q-27 47 -79 85t-115 38h-441v-723h213q141 0 196 57q24 25 38 48l15 -333q-1 11 -14 39q-49 105 -227 105h-221v-600h488q63 0 114 39q81 62 127 208q18 56 25 95l6 39h29l-15 -463h-1265
q105 35 146 145q17 47 18 105v1073z" />
    <glyph glyph-name="F" unicode="F" horiz-adv-x="1439" 
d="M1075 1491h-467v-723h213q121 0 176 52t68 93l6 17v-408q-52 155 -242 162h-221v-434q0 -120 55 -178q55 -59 107 -72h-653q104 35 144 143q17 47 18 107v1075q0 120 -53 175q-53 56 -93 69l-16 6h1245l16 -438h-30q-32 225 -157 316q-52 38 -116 38z" />
    <glyph glyph-name="G" unicode="G" horiz-adv-x="1619" 
d="M698 805h799v-823q-2 8 -7 41t-24 67q-37 72 -90 74q-32 0 -70 -32t-78 -70t-142 -70t-222 -31q-233 0 -424 102q-104 57 -183 145t-130 233q-51 144 -51 331q0 188 55 342t138 246t192 153q187 105 383 109q121 0 218 -18t144 -41q120 -59 151 -59q31 -1 59 22t38 45
l12 22v-592h-114q0 293 -131 423t-317 130t-317 -169q-67 -85 -107 -235t-40 -347q0 -385 118 -585t286 -204q176 0 275 80t99 276t-73 280q-74 85 -227 85h-220v70z" />
    <glyph glyph-name="H" unicode="H" horiz-adv-x="1894" 
d="M1614 250q0 -92 41 -154t82 -80l39 -16h-646q107 36 147 143q17 47 17 107v434h-692v-440q0 -113 57 -173q57 -59 105 -71h-645q106 35 146 143q17 47 18 107v1073q0 93 -41 155t-82 78l-41 17h645q-28 -9 -55 -27q-62 -41 -83 -99t-24 -116v-565h692v557q0 93 -41 155
t-82 78l-41 17h646q-105 -35 -145 -143q-17 -47 -17 -107v-1073z" />
    <glyph glyph-name="I" unicode="I" horiz-adv-x="890" 
d="M610 254q0 -121 57 -180t105 -70h-653q104 35 144 143q17 47 18 107v1071q0 150 -105 224q-32 22 -57 28h653q-105 -35 -144 -144q-17 -48 -18 -108v-1071z" />
    <glyph glyph-name="J" unicode="J" horiz-adv-x="976" 
d="M694 371q0 -225 -103 -328q-93 -91 -287 -91q-104 0 -182 36q-78 35 -112 85q-67 102 -67 185l2 35l182 -23q-11 -28 -15 -78q-3 -52 5 -84t39 -59t77 -27q77 1 107 51q27 43 27 165v1085q1 93 -49 155t-99 78l-49 17h688q-106 -35 -146 -143q-17 -47 -18 -107v-952z" />
    <glyph glyph-name="K" unicode="K" horiz-adv-x="1650" 
d="M610 250q0 -92 41 -154t82 -80l41 -16h-655q106 35 146 143q17 47 18 107v1073q0 93 -41 155t-82 78l-41 17h655q-106 -35 -146 -143q-17 -47 -18 -107v-780l547 762q24 31 48 85q23 54 27 90q3 36 -28 64t-100 29h565q-69 0 -143 -34t-130 -81q-128 -107 -175 -176
l-27 -33l-252 -352q72 0 142 -96t120 -216q141 -345 226 -430t161 -88q77 -3 109 15l16 8q-32 -65 -105 -124q-73 -60 -208 -60q-80 0 -159 42t-125 108q-95 135 -164 334q-70 199 -167 294l-178 -248v-186z" />
    <glyph glyph-name="L" unicode="L" horiz-adv-x="1232" 
d="M1235 2v-2h-1116q104 35 144 143q17 47 18 107v1073q0 120 -55 178q-55 59 -107 72h653q-104 -35 -144 -143q-17 -47 -18 -107v-1239h240q98 0 173 58t111 142q73 170 83 306l4 59h43l-21 -647h-8z" />
    <glyph glyph-name="M" unicode="M" horiz-adv-x="2097" 
d="M1323 -2q161 54 164 250v1173l-479 -1353q-29 -86 -54 -86q-17 0 -45 63l-553 1247v-1042q0 -92 41 -154t82 -80l41 -16h-409q106 35 146 143q17 47 17 107v1153q0 74 -84 124t-182 50q31 31 113 58q82 26 167 26q86 0 156 -34t114 -82q95 -103 126 -177l387 -876
l381 1079h526q-107 -36 -146 -145q-17 -48 -17 -107v-1071q0 -122 54 -177t93 -67l16 -6h-655z" />
    <glyph glyph-name="N" unicode="N" horiz-adv-x="1726" 
d="M1448 1323v-1237q55 -47 139 -47v-55h-133q-122 0 -232 62t-197 168q-169 205 -308 504q-66 140 -122 262q-136 296 -216 378v-1108q0 -121 55 -179q55 -59 107 -71h-408q5 2 17 5t40 19q106 63 105 226v1190q-28 34 -77 62q-50 28 -97 28v65h53q142 0 274 -56t230 -147
q206 -192 343 -467t221 -498q84 -222 124 -259v1155q0 93 -41 155t-82 78l-41 17h410q-107 -36 -147 -143q-17 -48 -17 -107z" />
    <glyph glyph-name="O" unicode="O" horiz-adv-x="1654" 
d="M827 33q166 -1 282 197t116 589q0 197 -39 349q-38 152 -100 232q-122 161 -259 161t-258 -161q-61 -81 -100 -233t-39 -348q0 -391 116 -589t281 -197zM827 1640q88 0 175 -17t196 -73t190 -144q81 -89 136 -251t55 -370q0 -207 -51 -361t-126 -239q-74 -85 -182 -136
t-198 -66q-331 -55 -587 66q-109 51 -183 136t-125 239t-51 362t55 369q55 162 135 251t189 144q109 54 197 72t175 18z" />
    <glyph glyph-name="P" unicode="P" horiz-adv-x="1523" 
d="M657 559q223 1 357 149t133 363q0 215 -120 334t-234 119h-183v-965h47zM961 1573q141 0 235 -45q94 -46 144 -100t84 -149t34 -218q0 -291 -145 -426t-373 -135h-330v-250q0 -121 57 -180t105 -70h-653q104 35 144 143q17 47 18 107v1071q0 150 -105 224q-32 22 -57 28
h842z" />
    <glyph glyph-name="Q" unicode="Q" horiz-adv-x="1654" 
d="M541 244l11 -22t35 -51q29 -35 61 -63t88 -51t120 -22l-10 25q-51 127 -145 185q-70 43 -131 18q-17 -7 -29 -19zM827 1561q-65 0 -131 -40t-127 -121t-100 -233t-39 -348q0 -360 109 -571q51 96 154 96t183 -69q58 -50 101 -100t49 -56q8 4 22 14q13 11 47 61
q130 194 130 640q0 182 -39 334q-66 255 -228 353q-65 40 -131 40zM1268 -53q72 0 111 14q38 14 46 29l7 11q-2 -6 2 -25t-10 -55t-33 -71q-19 -36 -71 -60t-118 -24t-132 25q-65 24 -132 108q-25 30 -35 50l-10 20q-250 0 -398 63q-67 28 -152 88t-138 144t-91 217t-38 323
t55 351q55 162 136 251t190 144q109 54 195 72t175 18t177 -17t196 -73t189 -144q80 -89 135 -251t55 -335q0 -306 -86 -472t-184 -239t-156 -91l-25 -8q68 -63 140 -63zM1432 1q0 2 2 3z" />
    <glyph glyph-name="R" unicode="R" horiz-adv-x="1624" 
d="M694 631q244 -1 336 109t92 354q0 312 -232 398q-54 19 -108 19h-172v-880h84zM1328 -14q-138 0 -217 59t-119 143t-78 169t-106 145q-69 59 -173 59h-25v-311q0 -92 41 -154t82 -80l39 -16h-653q104 35 144 143q17 47 18 107v1073q0 120 -55 178q-55 59 -107 72h835
q167 0 324 -98q80 -51 130 -151t50 -234q0 -250 -148 -390t-409 -139q106 0 185 -35t120 -87q88 -111 128 -230q41 -119 114 -119q47 0 84 21l24 -62q2 -2 7 -10q-97 -53 -235 -53z" />
    <glyph glyph-name="S" unicode="S" horiz-adv-x="1454" 
d="M684 1632q210 0 376 -88q107 -58 159 0q25 29 32 58l9 30v-563h-64q0 227 -205 381q-173 127 -367 128t-257 -132q-23 -49 -23 -121t44 -129t116 -87q158 -66 355 -114q198 -48 343 -164q160 -127 160 -399q0 -142 -62 -248t-159 -157q-186 -97 -381 -97q-137 0 -290 40
t-208 96q-37 30 -52 16t-17 -49v-33h-58v602h82v-65q0 -248 215 -408q176 -131 384 -130t286 140q35 63 35 153q-1 90 -57 153q-56 61 -145 95t-197 60q-278 68 -413 150q-89 53 -146 154q-56 102 -56 242q1 486 561 486z" />
    <glyph glyph-name="T" unicode="T" horiz-adv-x="1482" 
d="M1159 1489h-254v-1239q0 -92 41 -154t82 -80l41 -16h-655q106 35 146 143q17 47 18 107v1239h-254q-64 0 -116 -37t-80 -89q-54 -101 -71 -192l-6 -36h-31l17 438h1409l16 -438h-30q-32 225 -157 316q-52 38 -116 38z" />
    <glyph glyph-name="U" unicode="U" horiz-adv-x="1712" 
d="M1479 1323v-635q0 -252 -11 -321q-37 -272 -256 -365q-130 -53 -286 -53q-274 0 -404 71q-131 71 -187 189q-55 118 -60 211q-5 92 -9 158t-2 119t2 75v551q0 122 -57 180t-107 70h666q-6 -2 -17 -5q-11 -4 -39 -20q-103 -61 -106 -207v-768q0 -139 17 -244t38 -140
q57 -97 98 -121q124 -70 310 -38q55 10 97 25q157 60 201 245q22 100 24 170t4 126t1 106t-1 70v551q0 120 -55 178q-55 59 -107 72h407q-104 -35 -144 -143q-17 -47 -17 -107z" />
    <glyph glyph-name="V" unicode="V" horiz-adv-x="1507" 
d="M698 1573q-162 0 -153 -162q2 -37 10 -63l346 -951l332 912q13 32 17 84q5 53 -3 88t-45 63t-100 29h504q-54 0 -108 -34t-89 -81q-77 -104 -102 -176l-15 -33l-461 -1265q-23 -70 -53 -70q-25 0 -45 53l-469 1280q-15 45 -48 107q-34 63 -68 106t-88 78t-109 35h747z
" />
    <glyph glyph-name="W" unicode="W" horiz-adv-x="2105" 
d="M578 1573q-167 0 -151 -177q3 -34 13 -67l314 -899l295 950q23 70 49 70t51 -70l387 -989l328 936q9 23 12 75q2 52 -8 85t-48 59t-98 27h525q-59 0 -115 -33t-92 -80q-82 -105 -111 -172l-456 -1304q-23 -70 -51 -70t-52 70l-371 934l-301 -934q-23 -70 -48 -70t-44 53
l-489 1391q-115 215 -262 215h723z" />
    <glyph glyph-name="X" unicode="X" horiz-adv-x="1538" 
d="M1538 57v-82q-136 2 -238 -1q-102 -4 -216 60t-190 157t-136 193q-59 100 -88 173q-29 72 -29 92l-213 -383q-41 -101 -26 -174q6 -36 46 -64t109 -28h-557q168 0 338 279l262 464q-8 31 -48 132q-185 469 -389 599q-69 44 -136 44v65h157q117 0 232 -59
q114 -58 196 -144q157 -165 241 -332q32 -65 32 -81l196 342q2 6 6 15q33 74 19 144q-20 105 -176 105h583q-164 0 -339 -273l-236 -409q25 -71 113 -253q89 -181 157 -291t160 -200t170 -90z" />
    <glyph glyph-name="Y" unicode="Y" horiz-adv-x="1566" 
d="M948 256q0 -150 105 -224q32 -22 57 -28h-653q105 35 144 144q17 48 17 108v291l-409 803q-70 140 -157 198q-36 25 -70 25h739q-125 -2 -167 -69t5 -181l340 -645l289 631q37 92 21 172q-7 35 -42 63t-98 29h508q-152 0 -283 -238l-346 -764v-315z" />
    <glyph glyph-name="Z" unicode="Z" horiz-adv-x="1638" 
d="M530 82h629q80 0 141 69q60 69 92 165q63 191 78 360l5 67h57l20 -743h-1470v29q82 0 194 168t210 381q97 213 219 440q121 227 208 315q65 61 170 133l35 23h-577q-74 0 -121 -50q-48 -50 -60 -122q-26 -152 -12 -268l8 -50h-59l-150 574h1409v-43q-55 0 -111 -34
t-119 -107t-105 -152l-428 -889q-5 -10 -15 -28q-73 -143 -170 -209q-41 -29 -78 -29z" />
    <glyph glyph-name="bracketleft" unicode="[" horiz-adv-x="874" 
d="M838 1647h-303v-1698h303v-58h-631v1813h631v-57z" />
    <glyph glyph-name="backslash" unicode="\" horiz-adv-x="856" 
d="M18 2015l940 -2275h-151l-926 2275h137z" />
    <glyph glyph-name="bracketright" unicode="]" horiz-adv-x="856" 
d="M55 1647v57h631v-1813h-631v58h303v1698h-303z" />
    <glyph glyph-name="asciicircum" unicode="^" horiz-adv-x="911" 
d="M195 1669h-132l408 590l406 -590h-132l-274 399z" />
    <glyph glyph-name="underscore" unicode="_" horiz-adv-x="1849" 
d="M1767 0v-180h-1679v180h1679z" />
    <glyph glyph-name="grave" unicode="`" horiz-adv-x="514" 
d="M340 1368l-59 -45q-1 74 -53 129t-103 74l-51 18l41 166q23 -6 70 -38t77 -68t54 -98t24 -138z" />
    <glyph glyph-name="a" unicode="a" horiz-adv-x="1335" 
d="M434 281q0 -89 34 -142t82 -63t97 5t85 67t38 118t12 202q10 134 11 171q-3 -59 -180 -119q-67 -22 -123 -86t-56 -153zM1188 45q58 0 104 61l43 -36q-42 -42 -122 -77q-81 -36 -156 -36q-279 0 -279 229q-6 -96 -104 -159t-257 -63t-237 83q-78 85 -78 191t72 181
t173 109t203 57t173 55q72 32 72 87q0 202 -97 250q-46 23 -118 23t-119 -28q-47 -26 -61 -65q-26 -76 -11 -141l8 -27l-225 9q7 48 37 112q31 64 72 108t125 81t192 36q184 0 301 -57t161 -149q84 -175 59 -424q-11 -111 -18 -203t11 -150t76 -57z" />
    <glyph glyph-name="b" unicode="b" horiz-adv-x="1331" 
d="M680 10q106 0 184 78q97 97 97 382t-76 400t-176 115q-61 0 -107 -28t-61 -54l-17 -26q-14 -535 -14 -558q0 -123 43 -216t127 -93zM780 1051q465 0 465 -529q0 -218 -89 -343q-40 -56 -99 -107q-126 -109 -377 -109q-302 0 -419 138q-38 46 -56 82q-39 78 -39 249v987
q0 66 -20 109q-41 85 -109 31l-37 30q4 9 14 19t70 28t149 19q135 0 217 -91t82 -282q0 -115 -6 -317q3 7 28 25q81 61 226 61z" />
    <glyph glyph-name="c" unicode="c" horiz-adv-x="1206" 
d="M666 -57q-94 0 -154 8q-61 8 -143 40t-141 86q-58 54 -100 157q-42 104 -42 232q0 248 131 420q68 87 191 137t265 50t228 -39t123 -94q76 -112 78 -203v-39l-213 9q2 12 6 31q4 18 2 68t-17 89q-14 39 -62 70t-124 30q-166 1 -244 -241t-22 -485q57 -243 221 -242
q90 1 164 35t115 84q85 104 104 186l10 35l82 -23q-7 -56 -44 -132q-38 -77 -85 -130t-141 -96t-188 -43z" />
    <glyph glyph-name="d" unicode="d" horiz-adv-x="1300" 
d="M817 300q0 108 -12 568q-63 109 -184 109q-90 0 -171 -107t-80 -398t96 -388q76 -78 183 -78q84 0 126 93t42 201zM1081 1642q91 0 145 -16t64 -33l10 -16l-34 -31q-69 56 -109 -30q-20 -43 -20 -107v-1003q0 -174 -36 -244q-106 -205 -426 -205q-171 0 -281 43t-166 103
q-56 59 -91 143t-43 144t-8 124q0 526 463 526q178 0 254 -86q-6 203 -6 318q-1 370 284 370z" />
    <glyph glyph-name="e" unicode="e" horiz-adv-x="1210" 
d="M660 1026q-223 0 -254 -486q-8 -110 -5 -188l2 -78q0 66 161 149q68 34 134 74q66 41 113 105t47 143q0 123 -52 202q-53 79 -146 79zM602 -63q-276 1 -396 157t-120 408t152 412t434 159q173 0 302 -62q72 -34 112 -104t40 -165t-112 -180t-248 -135
q-362 -134 -360 -206q0 -84 78 -140t176 -56q100 0 176 45t118 104q42 58 69 110q26 52 26 72l79 -18q-7 -56 -46 -133q-38 -76 -89 -129t-154 -96t-237 -43z" />
    <glyph glyph-name="f" unicode="f" horiz-adv-x="915" 
d="M613 1681q90 0 177 -18t143 -68q93 -81 105 -170l-147 -82q0 158 -89 234q-34 29 -85 29t-87 -32t-52 -111t-15 -139v-300h234v-82h-234v-692q0 -120 55 -178q55 -59 107 -72h-639q104 35 144 143q17 47 18 107v692h-150v82h150v233q0 232 91 328q38 39 111 67t163 29z
" />
    <glyph glyph-name="g" unicode="g" horiz-adv-x="1351" 
d="M635 -686q283 0 431 50q167 56 167 216q0 112 -72 155q-39 24 -75 38q-72 28 -334 28l-441 4q-123 -6 -123 -153q0 -110 127 -224t320 -114zM655 1026q-67 0 -115 -61q-84 -109 -85 -265q0 -158 45 -260t147 -102q207 0 207 342q0 139 -50 243q-51 103 -149 103z
M1352 -248q0 -150 -48 -248t-106 -146t-173 -73q-113 -25 -181 -27t-148 -3h-94q-202 0 -345 67q-79 37 -125 109t-46 172q0 182 150 221q-150 51 -150 211q0 135 95 203t204 67q-227 106 -227 377q0 127 83 221t193 135t210 41q99 1 180 -23t118 -48l35 -23q11 7 27 21
t63 44t89 47t92 16t83 -34v-102q-20 10 -55 23q-35 14 -118 10t-136 -60q44 -44 83 -124q38 -79 38 -144q0 -211 -127 -321t-361 -109q-62 0 -153 14l-27 6q-147 0 -147 -77q0 -45 62 -55t156 -11h109l212 4q142 0 208 -19q147 -43 203 -116q74 -97 74 -246z" />
    <glyph glyph-name="h" unicode="h" horiz-adv-x="1505" 
d="M1315 57q55 0 91 27t44 53l10 27l45 -55q-7 -22 -34 -50q-94 -98 -295 -98q-141 0 -197 81q-29 42 -46 79q-34 74 -34 287q0 22 2 80t4 145t-13 145q-32 126 -89 158q-35 20 -82 20q-86 0 -134 -78t-48 -186v-438q0 -123 56 -182t107 -72h-661q106 35 146 146
q17 48 18 108v1051q0 184 -15 227q-16 57 -68 57t-75 -33l-47 39q27 54 154 75q55 9 140 9t152 -49q39 -26 66 -104t27 -138v-526q6 30 38 74q32 45 69 76q38 32 112 56t148 24q136 0 199 -46q33 -24 57 -48t37 -64t25 -75q12 -34 13 -96v-136l-8 -275q-1 -193 25 -244
t61 -51z" />
    <glyph glyph-name="i" unicode="i" horiz-adv-x="835" 
d="M428 1395q-80 0 -134 56t-54 125q0 70 55 134t139 64t133 -60t49 -135q0 -76 -54 -130t-134 -54zM582 246q0 -120 54 -175t91 -67l16 -6h-639q6 2 18 5t39 19q105 62 105 214v583l-135 -88l-29 51q370 298 386 314q40 40 75 1q18 -22 19 -67v-784z" />
    <glyph glyph-name="j" unicode="j" horiz-adv-x="792" 
d="M295 1575q0 69 54 133t138 64q83 0 133 -60t50 -135q0 -76 -54 -129t-134 -53q-79 0 -133 56t-54 124zM635 2h-2q0 -278 -59 -437q-59 -160 -168 -237q-142 -100 -365 -100q40 7 93 38q52 32 89 76t67 133t29 203v1141l-133 -86l-28 49q367 294 383 312q40 44 75 3
q18 -22 19 -67v-1028z" />
    <glyph glyph-name="k" unicode="k" horiz-adv-x="1409" 
d="M580 248q0 -27 2 -41q167 54 264 163q102 116 102 320q0 244 -128 244q-68 0 -134 -58t-106 -149v-479zM264 248v1136q0 178 -61 205q-27 12 -51 -16l-33 31q2 8 12 18q11 10 63 28t132 19q122 0 188 -83t66 -283v-494q160 262 399 262q285 0 285 -328q0 -285 -342 -462
q70 0 128 -28t90 -62q84 -89 150 -89q43 0 65 34t21 69l-2 33q30 -88 2 -164q-39 -104 -190 -106q-150 -1 -240 74q-37 32 -73 64q-89 78 -220 76q-37 0 -65 -14q16 -61 54 -103t67 -53l30 -12h-637q66 22 97 58q65 77 65 190z" />
    <glyph glyph-name="l" unicode="l" horiz-adv-x="831" 
d="M578 250q0 -120 54 -175t91 -67l16 -6h-637l18 6q97 31 138 135q18 47 18 107v1231l-133 -99l-28 50q354 297 370 313q41 41 75 1q17 -22 18 -67v-1429z" />
    <glyph glyph-name="m" unicode="m" horiz-adv-x="2254" 
d="M1696 632q0 145 -44 219q-20 33 -64 59t-105 26t-103 -25t-59 -61q-35 -79 -31 -131v-506q16 -133 109 -188q32 -20 51 -25h-633q5 2 17 5t40 19q106 63 105 216v378q0 164 -45 233q-20 33 -64 59t-106 26q-104 0 -146 -62t-47 -137v-489q0 -118 55 -176q55 -59 107 -72
h-631q66 22 97 58q65 76 65 190v540l-133 -88l-29 52q358 295 376 312q41 40 76 1q17 -20 17 -66v-139q27 56 89 108q117 99 303 99q256 0 311 -242q6 29 41 77t76 80t119 58t170 27q93 0 159 -33q65 -33 97 -76q72 -99 73 -340v-405q8 -80 48 -133t77 -68l35 -12h-633
q64 21 96 58q65 76 66 190q-2 354 -2 384z" />
    <glyph glyph-name="n" unicode="n" horiz-adv-x="1536" 
d="M817 0q157 52 160 248v452q0 236 -201 236q-106 0 -155 -72t-50 -164v-454q0 -178 146 -242l16 -4h-631q66 22 97 58q65 76 65 190v540l-133 -88l-29 52q358 295 376 312q40 39 75 1q18 -20 18 -66v-129q21 60 73 107q102 92 276 90q92 0 162 -32t108 -79
q100 -121 100 -338v-405q8 -80 48 -133t75 -68l37 -12h-633z" />
    <glyph glyph-name="o" unicode="o" horiz-adv-x="1323" 
d="M440 494q0 -276 60 -386q60 -112 170 -112q111 0 168 135t57 369t-57 368q-57 135 -170 136q-90 0 -159 -117t-69 -393zM285 925q181 138 385 138t376 -119q87 -61 139 -176t52 -268q0 -279 -163 -418t-403 -139t-406 131q-83 66 -131 176t-48 247t55 249t144 179z" />
    <glyph glyph-name="p" unicode="p" horiz-adv-x="1329" 
d="M690 43q188 0 238 227q20 96 20 240q0 270 -72 385t-174 115t-163 -121t-62 -363q0 -483 213 -483zM1243 436q0 -487 -479 -487q-139 0 -266 102v-520q0 -118 52 -175q52 -56 93 -69l16 -6h-618q6 2 16 5q10 2 37 20q101 66 109 205v976q0 333 140 455q140 121 373 121
t380 -157t147 -470z" />
    <glyph glyph-name="q" unicode="q" horiz-adv-x="1329" 
d="M641 43q213 0 213 483q0 240 -61 362t-163 122t-174 -115q-73 -115 -73 -385q0 -405 178 -457q35 -10 80 -10zM567 -51q-481 0 -481 487q0 313 148 470t384 157q380 0 474 -293q37 -115 36 -283v-976q4 -111 56 -161q52 -51 90 -63l14 -6h-629q7 2 19 6q12 5 42 23
q111 69 114 221v520q-127 -102 -267 -102z" />
    <glyph glyph-name="r" unicode="r" horiz-adv-x="1089" 
d="M702 1010q99 88 255 88q89 0 120 -31l13 -10l-166 -201q-7 27 -48 50t-92 24q-96 0 -150 -92t-54 -213v-377q0 -92 41 -154t81 -80l41 -16h-641q105 35 145 143q17 47 17 107v543l-133 -89l-29 52q366 297 384 314q41 40 76 0q17 -22 18 -67v-157q15 37 50 85
q36 48 72 81z" />
    <glyph glyph-name="s" unicode="s" horiz-adv-x="1130" 
d="M870 995q49 0 74 74v-405h-47q0 164 -162 270q-139 90 -272 71q-148 -21 -148 -157q-1 -60 53 -102t133 -62t171 -53t171 -72t132 -121t53 -188t-76 -176q-136 -125 -354 -123q-96 0 -204 31t-144 59q-58 45 -57 -16l-3 -23h-43v371h78v-51q0 -134 160 -228t307 -82
q143 20 150 135q0 84 -141 129q-62 20 -138 40q-170 46 -290 130q-62 45 -101 125t-39 185q1 145 113 220t271 75t244 -28t109 -28z" />
    <glyph glyph-name="t" unicode="t" horiz-adv-x="888" 
d="M244 942h-113q-2 0 -4 1t-9 3l-12 4q-37 13 33 84q125 125 226 234q101 108 109 116t30 10q20 2 38 -19q18 -22 17 -66v-285h209v-82h-209v-666q0 -70 4 -104t27 -60q22 -28 70 -28t88 28t51 56l14 27l76 -43q-5 -22 -37 -61q-31 -39 -65 -65t-95 -48t-133 -21
q-178 0 -247 85t-68 234v666z" />
    <glyph glyph-name="u" unicode="u" horiz-adv-x="1515" 
d="M1338 57q25 0 59 17l37 -49q0 -5 -23 -17q-65 -36 -172 -36q-173 -2 -238 69t-65 147q0 -35 -34 -78q-34 -44 -73 -72q-92 -67 -282 -69q-94 0 -160 27q-67 28 -99 62t-49 96t-20 100q-2 39 -2 104v514q0 56 -28 70t-54 0l-29 -12l-45 26q5 10 21 28t76 45q60 28 131 28
q72 0 118 -25q47 -26 69 -56q50 -68 50 -241v-387q0 -270 205 -270q55 0 95 28q92 65 96 246v447q0 57 -17 102q-16 45 -56 80t-73 39l-16 4h649q-16 0 -50 -17q-33 -17 -55 -39q-55 -56 -57 -169v-601q0 -44 3 -58l6 -28q3 -15 17 -31t27 -20t38 -4z" />
    <glyph glyph-name="v" unicode="v" horiz-adv-x="1376" 
d="M866 1026h510q-168 0 -274 -141q-25 -33 -35 -56l-289 -784q29 -47 88 -47q-12 -19 -80 -35q-67 -16 -154 -16t-153 79q-67 80 -105 198t-80 256t-77 257t-91 198t-126 79q78 45 194 45t204 -89t155 -253q66 -164 135 -462q25 -103 39 -118l264 727q6 18 6 52t-10 54
q-10 22 -41 39t-80 17z" />
    <glyph glyph-name="w" unicode="w" horiz-adv-x="1884" 
d="M1374 1026h510q-168 0 -274 -141q-25 -33 -35 -56l-270 -733q-1 -16 37 -57t81 -41q-12 -19 -80 -35q-67 -16 -157 -16q-51 0 -116 61t-146 246q-31 70 -47 119l-15 49l-110 -332q49 -92 116 -92q-12 -19 -80 -35q-67 -16 -161 -16q-94 -1 -168 109t-120 267t-89 315
q-103 377 -250 376q78 45 195 45t205 -88t140 -214t86 -252t52 -214t24 -88l273 811q203 -752 276 -826l246 676q35 105 -40 145q-32 17 -83 17z" />
    <glyph glyph-name="x" unicode="x" horiz-adv-x="1402" 
d="M262 1067q88 0 188 -53t171 -129q127 -134 213 -281l30 -53l125 221q2 6 7 14q40 63 37 139q-3 99 -136 99h506q-142 0 -266 -164q-29 -37 -43 -61l-185 -330l60 -113q59 -112 148 -224t161 -112q47 0 80 19q12 -18 14 -23q-74 -66 -231 -65q-101 0 -199 51t-168 125
q-70 73 -124 147t-86 125t-36 52l-114 -201q-17 -29 -30 -79t-10 -84q3 -35 36 -61t96 -26h-506q55 0 121 32t144 132q30 37 44 61l170 305q0 26 -115 239q-48 87 -112 157t-112 70q-49 0 -77 -17l-16 27q4 6 14 16q9 10 61 28t140 17z" />
    <glyph glyph-name="y" unicode="y" horiz-adv-x="1413" 
d="M870 1026h543q-124 0 -205 -69t-106 -117l-10 -21l-299 -977l-11 -33q-43 -157 -151 -329q-93 -145 -211 -204q-68 -34 -138 -34t-111 29q-42 29 -50 57l-8 27l139 104q0 -26 31 -57t93 -31t118 50q55 50 92 121q77 148 110 265l15 50l-396 880l-11 22q-61 113 -140 157
q-39 22 -74 22q-34 0 -56 -12t-26 -25l-6 -14q0 66 48 121q22 25 73 45t119 20q168 0 267 -120q24 -28 32 -48l293 -651l174 569l6 21t4 50t-10 62t-45 49q-36 21 -93 21z" />
    <glyph glyph-name="z" unicode="z" horiz-adv-x="1292" 
d="M1292 1028q-70 0 -144 -70t-135 -175q-62 -105 -135 -228t-139 -228q-65 -105 -147 -175t-160 -70h426q164 0 242 268q18 61 24 105l6 43h31l-16 -498h-1145q125 0 344 334q92 139 185 278q93 138 191 236t177 98h-434q-63 0 -115 -37t-81 -89q-55 -103 -70 -193l-7 -37
h-28l14 438h1116z" />
    <glyph glyph-name="braceleft" unicode="{" horiz-adv-x="937" 
d="M772 1647h-149q-78 -1 -113 -63t-33 -158t5 -204q3 -110 0 -205t-49 -157l-140 -63l142 -63q48 -62 53 -156q9 -166 1 -410q-2 -94 30 -156t104 -63h149v-58h-352q-88 0 -133 67t-51 168q-22 365 -29 451q-9 86 -61 153t-148 67q98 -1 150 67t63 168q10 100 16 218
t13 218q6 100 50 168t130 68h352v-57z" />
    <glyph glyph-name="bar" unicode="|" horiz-adv-x="540" 
d="M422 -250h-295v2036h295v-2036z" />
    <glyph glyph-name="braceright" unicode="}" horiz-adv-x="854" 
d="M80 1647v57h352q100 0 143 -93t47 -227l8 -268q5 -133 57 -226t167 -93q-96 0 -148 -67t-62 -168t-15 -218q-7 -117 -13 -218t-51 -168t-133 -67h-352v58h149q72 0 104 62q31 63 29 157q-7 274 0 389q14 239 197 240q-94 0 -140 62q-46 61 -49 157t0 206t5 204t-33 158
q-35 62 -113 63h-149z" />
    <glyph glyph-name="asciitilde" unicode="~" horiz-adv-x="1335" 
d="M757 2048q183 -51 288 -51t157 28t64 48l6 10q-2 -11 -5 -29t-23 -64t-48 -82q-29 -36 -87 -65t-132 -28q-145 0 -373 63q-228 64 -300 64t-126 -20t-78 -42l-24 -22q61 153 223 215q71 27 173 27t285 -52z" />
    <glyph glyph-name="exclamdown" unicode="&#xa1;" horiz-adv-x="559" 
d="M307 1307q-104 -1 -144 69t2 140t140 69q55 0 92 -29q37 -30 45 -70q20 -99 -47 -151q-37 -28 -88 -28zM350 1116l111 -1341h-340l112 1341h117z" />
    <glyph glyph-name="cent" unicode="&#xa2;" horiz-adv-x="1325" 
d="M742 299q50 0 92 8v963q-70 25 -148 24l-22 -2v-987q28 -6 78 -6zM571 1262q-115 -70 -159 -257t-1 -381q44 -194 160 -278v916zM664 -258h-93v485q-169 24 -302 126q-73 57 -115 157t-41 221q0 230 95 401q50 89 143 150t220 80v481h93v-473h22q84 0 148 -12v485h92
v-510q78 -29 135 -77t96 -120t45 -145l2 -28l-143 6q-2 18 -7 47q-5 28 -39 96t-89 109v-887q78 33 126 91t56 99l8 43l80 -22q0 -30 -17 -77q-17 -48 -43 -85t-81 -77t-129 -62v-502h-92v481q-70 -8 -117 -8l-53 2v-475z" />
    <glyph glyph-name="sterling" unicode="&#xa3;" horiz-adv-x="1685" 
d="M352 6q82 0 108 70t25 239q-76 35 -151 35q-113 0 -160 -86t3 -172t175 -86zM1412 -98q-194 0 -342 58t-292 159q-96 -217 -401 -217q-170 0 -252 127t-23 253t234 126q80 0 149 -15l-2 291h-200v82h200v86h-200v82h200v225q0 276 203 410q166 109 366 69t283 -198
q43 -84 43 -189h-211q0 173 -85 263t-158 36q-106 -78 -107 -391v-225h457v-82h-457v-86h457v-82h-457v-371q0 -35 -2 -53q47 -30 151 -96t159 -98t143 -63q88 -30 166 -30q124 0 164 80t-30 152t-233 71l121 193q166 0 236 -141q70 -142 -8 -284t-272 -142z" />
    <glyph glyph-name="currency" unicode="&#xa4;" horiz-adv-x="1343" 
d="M667 451q93 -1 166 39t109 105q121 221 -6 440q-37 65 -108 105q-72 40 -164 40t-167 -40t-113 -105q-129 -221 3 -441q39 -64 113 -104t167 -39zM662 350q-186 0 -320 90l-242 -241l-55 57l236 236q-129 129 -126 316t132 320l-246 246l57 58l248 -250q138 98 320 98
t309 -94l246 246l57 -58l-242 -241q123 -131 124 -321t-124 -320l238 -236l-57 -57l-242 241q-127 -90 -313 -90z" />
    <glyph glyph-name="yen" unicode="&#xa5;" horiz-adv-x="1566" 
d="M977 553h401v-82h-401v-121h401v-82h-401v-16q0 -121 56 -180q56 -60 108 -72h-656q106 35 145 144q17 48 17 108v16h-407v82h407v121h-407v82h407v31l-409 766q-36 72 -80 124q-86 102 -150 101h742q-127 -4 -170 -71t8 -181l340 -608l291 594q15 37 21 88q7 51 0 86
t-42 63t-98 29h510q-152 0 -285 -240l-348 -727v-55z" />
    <glyph glyph-name="brokenbar" unicode="&#xa6;" horiz-adv-x="415" 
d="M96 -264v794h209v-794h-209zM96 1892h209v-788h-209v788z" />
    <glyph glyph-name="section" unicode="&#xa7;" horiz-adv-x="1433" 
d="M285 616q0 -185 128 -283q112 -88 324 -156t322 -128q90 74 90 175t-49 176t-138 124q-90 49 -182 85t-214 83t-199 92q-82 -70 -82 -168zM1362 -434q0 -102 -41 -188t-107 -142q-66 -55 -148 -93q-268 -124 -611 -29q-152 42 -211 102q-40 34 -56 22t-16 -45l-2 -33h-61
v625h88v-234q0 -238 225 -350q188 -96 410 -60t290 163q27 47 27 100q0 110 -58 188q-59 78 -153 126t-207 89t-225 89t-207 111q-94 62 -153 170q-58 108 -58 253q0 272 205 401q-205 154 -205 409t161 381t402 126t438 -94q62 -31 104 -31t69 31t34 63l9 31v-600h-68
q0 291 -236 442q-186 121 -398 101t-288 -144q-31 -52 -31 -136t47 -162q46 -78 122 -124q161 -95 373 -158q212 -62 368 -186q76 -59 122 -160t46 -235q0 -246 -223 -383q223 -154 223 -436z" />
    <glyph glyph-name="dieresis" unicode="&#xa8;" horiz-adv-x="847" 
d="M545 1600q0 70 38 103q38 32 82 33q43 1 81 -32q38 -32 38 -100t-59 -103t-120 -3q-60 32 -60 102zM51 1602q-1 76 59 106t119 -2q59 -33 60 -111q0 -47 -25 -77q-26 -30 -60 -37q-86 -15 -128 43q-25 33 -25 78z" />
    <glyph glyph-name="copyright" unicode="&#xa9;" horiz-adv-x="2326" 
d="M2122 547q0 249 -77 449t-207 327t-297 194t-337 67t-308 -31q-138 -29 -267 -103t-223 -184t-150 -285q-56 -174 -57 -383q0 -209 56 -376q101 -301 368 -470q232 -147 516 -147q487 0 735 252t248 690zM1188 1686q461 0 768 -322t307 -834q0 -217 -74 -406
q-74 -190 -210 -332t-344 -224t-461 -82q-338 0 -609 155q-145 83 -253 205t-174 312t-66 429t68 433t176 316q110 122 260 203q272 147 612 147zM1142 133q95 0 170 26q76 27 112 63q75 75 87 134l5 27l75 -21q0 -36 -31 -98q-32 -62 -74 -102q-42 -41 -135 -74t-187 -33
t-148 7t-128 37q-73 30 -124 80q-51 49 -87 145t-36 216t26 212t84 173t168 127t242 46q133 0 213 -36t114 -86q71 -104 73 -190v-34l-199 6q2 10 6 28t2 64t-16 83t-58 65t-126 28t-150 -92t-88 -223q-49 -322 55 -486q60 -92 155 -92z" />
    <glyph glyph-name="ordfeminine" unicode="&#xaa;" horiz-adv-x="837" 
d="M358 1120q136 0 136 262t-127 263q-53 -1 -93 -57t-41 -206t29 -206t96 -56zM680 1257q0 -67 8 -93t38 -26t44 23l18 -55q-37 -35 -92 -35q-150 0 -186 94q-39 -94 -152 -94q-152 0 -236 80q-84 81 -83 239q0 158 101 233q102 75 226 75t219 -75t95 -234v-132z" />
    <glyph glyph-name="guillemotleft" unicode="&#xab;" horiz-adv-x="1351" 
d="M45 802q0 108 66 228t159 212q181 180 351 290l65 41h191q-80 -50 -218 -159q-139 -108 -229 -198t-164 -206t-74 -209q0 -92 70 -209q68 -117 165 -217q195 -202 359 -326l70 -49h-194q-73 47 -198 155q-124 109 -205 199t-147 215q-67 125 -67 233zM608 801
q0 -92 69 -209t166 -217q208 -215 361 -326l68 -49h-197q-71 45 -195 155q-124 109 -205 199t-148 215t-67 233t66 228t160 212q178 176 350 290l66 41h190q-75 -47 -216 -157q-140 -110 -230 -200t-164 -206t-74 -209z" />
    <glyph glyph-name="logicalnot" unicode="&#xac;" horiz-adv-x="1425" 
d="M39 823h1325v-690h-221v467h-1104v223z" />
    <glyph glyph-name="registered" unicode="&#xae;" horiz-adv-x="2353" 
d="M1147 -395q487 0 735 252t248 690q0 249 -77 449t-207 327t-297 194t-337 67t-308 -31q-138 -29 -267 -103t-223 -184t-150 -285q-56 -174 -57 -383q0 -209 56 -376q101 -301 368 -470q232 -147 516 -147zM1196 1686q461 0 768 -322t307 -834q1 -217 -73 -406
q-74 -190 -210 -332t-344 -224t-462 -82q-338 0 -609 155q-145 83 -253 205t-174 312t-66 429t68 433t177 316t259 203q272 147 612 147zM1120 487q184 0 239 80q54 81 54 267t-67 261q-68 75 -158 74h-133v-682h65zM1769 84l23 -55q-72 -41 -192 -41t-188 46t-96 112
t-48 130q-20 66 -66 112t-127 46h-20v-241q-1 -72 31 -121t63 -62l31 -12h-531q3 2 13 5q66 21 99 108q13 37 13 82v829q0 114 -80 173q-18 13 -45 22h672q133 0 252 -77q61 -40 100 -117t39 -181q0 -195 -115 -301t-317 -107q106 0 177 -38t102 -91t49 -106t40 -91t55 -38
t66 14z" />
    <glyph glyph-name="macron" unicode="&#xaf;" horiz-adv-x="811" 
d="M750 1456v-166h-674v166h674z" />
    <glyph glyph-name="degree" unicode="&#xb0;" horiz-adv-x="747" 
d="M369 1217q88 0 137 57t49 126t-49 126t-136 57q-86 0 -136 -57t-51 -126t49 -126t137 -57zM364 1704q200 0 288 -152q89 -152 8 -304q-82 -152 -290 -150q-208 0 -291 152t1 302q84 152 284 152z" />
    <glyph glyph-name="plusminus" unicode="&#xb1;" 
d="M55 -223v223h1352v-223h-1352zM854 1092h553v-246h-553v-578h-246v578h-553v246h553v575h246v-575z" />
    <glyph glyph-name="twosuperior" unicode="&#xb2;" horiz-adv-x="604" 
d="M283 1657q-41 0 -63 -38t-21 -75v-39l-109 43q0 18 16 47t33 49q45 48 153 49t162 -67t34 -168t-105 -192l-111 -117q28 -27 86 -27t91 25t47 49l14 27l31 -35q-7 -12 -17 -32t-54 -51q-44 -32 -104 -32t-126 24q-64 24 -86 23q-60 0 -107 -47q0 33 57 125t125 164
q160 168 138 250q-12 45 -84 45z" />
    <glyph glyph-name="threesuperior" unicode="&#xb3;" horiz-adv-x="577" 
d="M256 1450q-54 0 -82 -47l-45 16l225 180q-66 -41 -147 -41t-103 23l-8 6l-16 101q375 -43 426 10q8 -18 -35 -64l-174 -145q229 0 229 -211q0 -161 -200 -204q-37 -7 -81 -7t-109 39t-64 113l8 81l82 -22q-18 -57 4 -114q23 -56 94 -56q45 0 54 52q8 52 8 124
q0 166 -66 166z" />
    <glyph glyph-name="acute" unicode="&#xb4;" horiz-adv-x="505" 
d="M182 1368q0 144 80 237q71 78 123 95l23 10l43 -166q-131 -33 -187 -134q-23 -40 -22 -87z" />
    <glyph glyph-name="mu" unicode="&#xb5;" horiz-adv-x="1576" 
d="M979 203q0 -37 -36 -84t-78 -77t-121 -52t-181 -23h-22q-8 -302 -70 -456q-62 -155 -177 -236q-150 -104 -378 -102q43 7 97 41q54 32 93 78t71 140t32 218l2 1286q0 56 -30 72t-58 4l-31 -15l-47 27q7 13 31 35q25 22 69 47t125 26q82 0 127 -16q66 -24 113 -109
q31 -58 31 -219v-413q0 -291 221 -291q59 0 102 31q97 70 101 262v479q0 98 -43 158t-86 71l-43 13l694 -2q-20 0 -55 -18q-36 -18 -58 -42q-22 -22 -41 -70q-18 -48 -18 -110v-575q-7 -162 31 -198q44 -41 129 -3l38 -53q-1 -3 -25 -17t-86 -27t-137 -13q-192 -1 -258 135
q-28 59 -28 98z" />
    <glyph glyph-name="paragraph" unicode="&#xb6;" horiz-adv-x="1396" 
d="M1100 20q0 -159 111 -234q32 -21 61 -30h-316v1837h-137v-1837h-325q111 37 153 153q18 50 19 111v510q-236 0 -415 130q-91 67 -146 187q-54 120 -54 264q0 143 43 245q44 102 106 160t171 105q109 48 272 48h629l-18 -6q-12 -3 -43 -23q-111 -72 -111 -237v-1383z" />
    <glyph glyph-name="periodcentered" unicode="&#xb7;" horiz-adv-x="487" 
d="M223 758q105 0 145 -70t-2 -140t-141 -69q-55 0 -92 29q-66 52 -44 151q9 41 46 70t88 29z" />
    <glyph glyph-name="cedilla" unicode="&#xb8;" horiz-adv-x="352" 
d="M128 -123h-32v94h62v-55q12 0 30 -2t48 -28t30 -78t-43 -75q-43 -24 -88 -20l-43 4v47l40 -2q39 0 56 18t17 38q0 59 -77 59z" />
    <glyph glyph-name="onesuperior" unicode="&#xb9;" horiz-adv-x="477" 
d="M311 1225q1 -47 21 -79t41 -40l22 -8h-329q10 2 23 8t37 39t24 80v272l-66 -65l-37 34q164 168 169 173l15 15q39 35 53 30q27 -9 27 -58v-401z" />
    <glyph glyph-name="ordmasculine" unicode="&#xba;" horiz-adv-x="657" 
d="M327 1100q97 0 97 280t-96 279q-25 0 -45 -22q-21 -23 -37 -89t-17 -168q1 -280 98 -280zM332 1694q110 0 194 -75t84 -235t-80 -236t-200 -77q-120 0 -203 78q-82 78 -82 228t88 234q89 83 199 83z" />
    <glyph glyph-name="guillemotright" unicode="&#xbb;" horiz-adv-x="1316" 
d="M1276 788q0 -94 -64 -216t-154 -220q-191 -206 -335 -307l-64 -45h-194q77 52 212 168q134 116 221 208t159 213q72 120 71 212q0 92 -70 206q-71 114 -171 210q-208 199 -371 309l-72 47h191q196 -112 387 -303q254 -254 254 -482zM860 788q0 -94 -63 -216t-153 -220
q-189 -205 -335 -307l-63 -45h-197q76 51 211 167q136 117 222 209t159 213q72 120 72 212t-71 206t-171 210q-213 205 -373 309l-69 47h190q196 -112 387 -303q254 -254 254 -482z" />
    <glyph glyph-name="onequarter" unicode="&#xbc;" horiz-adv-x="1921" 
d="M1354 2015h137l-926 -2275h-151zM1401 352v492l-234 -492h234zM1671 965v-613h113v-106h-113v-31q0 -136 91 -190q31 -19 50 -25h-550q54 18 81 50t42 73l16 123h-344l344 719h270zM520 1624v-668q0 -153 125 -211l14 -4h-550q55 18 82 51q26 32 41 72l16 596l-133 -133
l-39 31l274 280q12 16 50 46q40 30 62 36t40 -16t18 -80z" />
    <glyph glyph-name="onehalf" unicode="&#xbd;" horiz-adv-x="1929" 
d="M1346 2015h137l-926 -2275h-151zM1244 39q-44 1 -88 -19t-64 -40l-21 -21q0 49 107 188q106 139 241 283q193 203 205 358q11 148 -162 148q-55 0 -90 -26q-75 -56 -53 -201l6 -25l-182 70q2 10 5 26q2 16 24 58t54 74t96 59t148 26q141 0 230 -68q175 -137 84 -405
q-45 -129 -152 -241l-200 -215q66 -53 194 -54q63 0 119 42q55 42 78 83l24 43l49 -30l-10 -20t-31 -47q-25 -34 -53 -59q-73 -66 -214 -66q-84 0 -192 39q-108 40 -152 40zM510 1624v-668q0 -102 49 -153q42 -48 90 -62h-551q6 2 16 5q10 2 32 18q48 32 76 100l16 596
l-136 -133l-36 31l274 280q13 18 51 47q37 29 60 35t41 -16t18 -80z" />
    <glyph glyph-name="threequarters" unicode="&#xbe;" horiz-adv-x="1939" 
d="M1427 2015h138l-928 -2275h-152zM1475 352v492l-234 -492h234zM1475 246h-345l345 719h270v-613h113v-106h-113v-31q0 -134 90 -190q27 -19 49 -25h-551q5 2 15 5q71 22 109 118q16 41 16 92l2 -2v33zM555 996v51q0 133 -44 205t-126 73q-51 0 -90 -19t-51 -40l-13 -21
l-57 29l375 299q-91 -49 -229 -49t-201 28l-29 168q25 -2 68 -6q569 -53 645 23q-29 -43 -101 -117l-299 -238q132 32 263 -45q118 -71 118 -301q0 -90 -32 -158t-78 -105q-45 -35 -121 -63t-149 -28q-160 0 -266 106q-60 61 -60 144t12 125l2 16l137 -37q-38 -161 34 -244
q47 -54 111 -54q104 -1 142 49q39 50 39 209z" />
    <glyph glyph-name="questiondown" unicode="&#xbf;" horiz-adv-x="1140" 
d="M1077 390q0 -106 -55 -200q-55 -96 -144 -143q-298 -157 -607 13q-89 50 -144 142t-55 196q0 196 99 301q66 72 205 173q54 42 98 90q101 111 99 293h89q0 -238 -103 -377l-86 -116q-104 -141 -103 -383t140 -318q106 -59 219 11q121 94 129 250q0 82 -30 143t-58 82
l-29 20l207 150q14 -12 36 -37q22 -24 58 -104t35 -186zM599 1389q-95 -1 -135 69t3 140t137 69q94 0 130 -70t-2 -139t-133 -69z" />
    <glyph glyph-name="Agrave" unicode="&#xc0;" horiz-adv-x="1730" 
d="M997 2011l-59 -45q0 74 -51 129t-105 74l-51 18l41 166q25 -6 71 -38q46 -31 76 -67t54 -98t24 -139zM506 551h483l-250 829zM1667 0h-749q63 0 103 28t51 66q23 78 9 144l-6 26h2l-61 205h-535l-59 -211q-13 -61 -2 -126q21 -132 164 -132h-510q140 0 239 211
q23 47 31 80l295 1038q12 29 13 78t-10 81t-53 58t-112 27h766q-65 0 -105 -25q-40 -26 -52 -60q-25 -75 -11 -128l328 -1086q33 -100 99 -187t165 -87z" />
    <glyph glyph-name="Aacute" unicode="&#xc1;" horiz-adv-x="1730" 
d="M840 2011q0 147 75 231q75 83 125 101l25 10l43 -166q-25 -6 -67 -26q-81 -38 -119 -108q-23 -40 -23 -87zM506 551h483l-250 829zM1667 0h-749q63 0 103 28t51 66q23 78 9 144l-6 26h2l-61 205h-535l-59 -211q-13 -61 -2 -126q21 -132 164 -132h-510q140 0 239 211
q23 47 31 80l295 1038q12 29 13 78t-10 81t-53 58t-112 27h766q-65 0 -105 -25q-40 -26 -52 -60q-25 -75 -11 -128l328 -1086q33 -100 99 -187t165 -87z" />
    <glyph glyph-name="Acircumflex" unicode="&#xc2;" horiz-adv-x="1730" 
d="M590 1708h-131l405 590l406 -590h-131l-275 399zM506 551h483l-250 829zM1667 0h-749q63 0 103 28t51 66q23 78 9 144l-6 26h2l-61 205h-535l-59 -211q-13 -61 -2 -126q21 -132 164 -132h-510q140 0 239 211q23 47 31 80l295 1038q12 29 13 78t-10 81t-53 58t-112 27h766
q-65 0 -105 -25q-40 -26 -52 -60q-25 -75 -11 -128l328 -1086q33 -100 99 -187t165 -87z" />
    <glyph glyph-name="Atilde" unicode="&#xc3;" horiz-adv-x="1730" 
d="M919 2140q108 -45 203 -45t138 26t55 48l2 8l45 -10q-7 -35 -34 -85q-26 -50 -56 -85t-89 -63q-57 -28 -149 -28q-134 1 -301 83q-110 54 -227 2q-53 -25 -76 -49l-20 -25l-43 14l11 27q7 18 37 62t64 77q95 89 243 89q88 0 197 -46zM506 551h483l-250 829zM1667 0h-749
q63 0 103 28t51 66q23 78 9 144l-6 26h2l-61 205h-535l-59 -211q-13 -61 -2 -126q21 -132 164 -132h-510q140 0 239 211q23 47 31 80l295 1038q12 29 13 78t-10 81t-53 58t-112 27h766q-65 0 -105 -25q-40 -26 -52 -60q-25 -75 -11 -128l328 -1086q33 -100 99 -187t165 -87z
" />
    <glyph glyph-name="Adieresis" unicode="&#xc4;" horiz-adv-x="1730" 
d="M1231 2032q-1 -68 -61 -103t-120 -3t-59 102q0 70 38 103q38 32 82 33t82 -32q38 -32 38 -100zM498 2030q0 76 59 106t119 -2q60 -33 59 -111q-1 -47 -25 -77q-44 -54 -128 -35q-35 8 -60 41q-24 33 -24 78zM506 551h483l-250 829zM1667 0h-749q63 0 103 28t51 66
q23 78 9 144l-6 26h2l-61 205h-535l-59 -211q-13 -61 -2 -126q21 -132 164 -132h-510q140 0 239 211q23 47 31 80l295 1038q12 29 13 78t-10 81t-53 58t-112 27h766q-65 0 -105 -25q-40 -26 -52 -60q-25 -75 -11 -128l328 -1086q33 -100 99 -187t165 -87z" />
    <glyph glyph-name="Aring" unicode="&#xc5;" horiz-adv-x="1730" 
d="M862 1944q61 0 83 42t-3 84t-81 42t-81 -42t-2 -84t84 -42zM860 2159q90 0 128 -66q38 -65 -2 -131t-129 -66t-123 66t1 132t125 65zM506 551h483l-250 829zM1667 0h-749q63 0 103 28t51 66q23 78 9 144l-6 26h2l-61 205h-535l-59 -211q-13 -61 -2 -126q21 -132 164 -132
h-510q140 0 239 211q23 47 31 80l295 1038q12 29 13 78t-10 81t-53 58t-112 27h766q-65 0 -105 -25q-40 -26 -52 -60q-25 -75 -11 -128l328 -1086q33 -100 99 -187t165 -87z" />
    <glyph glyph-name="AE" unicode="&#xc6;" horiz-adv-x="2091" 
d="M897 584v1044l-430 -1044h430zM897 0v496h-467l-92 -217q-4 -13 -11 -31t-13 -66t5 -86q9 -36 53 -66t122 -30h-574q56 0 110 31t90 75q77 95 105 166l477 1129q12 31 15 85q2 54 -8 89t-46 63t-98 29h1319l17 -465h-33q0 38 -34 140t-98 170q-64 69 -157 67h-358v-768
h118q191 0 247 112q14 29 18 62l-1 -416q-1 12 -16 42q-52 112 -239 112h-127v-635h409q68 0 122 42t84 101q61 120 77 220l6 41h31l-17 -492h-1036z" />
    <glyph glyph-name="Ccedilla" unicode="&#xc7;" horiz-adv-x="1650" 
d="M882 -168h-32v71q-78 3 -164 19t-194 72t-185 146q-78 89 -129 245t-51 345q0 367 141 567t306 267q165 66 304 68q138 2 227 -16t127 -41q97 -59 128 -59q30 0 58 22t40 45l10 23v-592h-69q0 553 -504 553q-139 -4 -262 -190q-61 -91 -101 -248t-38 -351q0 -194 47 -350
q81 -265 277 -375q82 -45 178 -46t188 49t144 126q110 161 110 305h65v-33q0 -165 -101 -321q-90 -138 -270 -197q-100 -33 -221 -34v-31q13 0 31 -2t48 -28q30 -25 30 -77t-44 -76t-87 -20l-43 4v47l40 -2q41 -1 57 17q15 18 15 39q0 59 -76 59z" />
    <glyph glyph-name="Egrave" unicode="&#xc8;" horiz-adv-x="1636" 
d="M950 2011l-59 -45q0 74 -51 129t-103 74l-53 18l41 166q25 -6 71 -38q46 -31 76 -67t54 -98t24 -139zM307 250v1073q0 145 -106 220q-29 20 -58 30h1219l14 -438h-28q-18 124 -78 231q-27 47 -79 85t-116 38h-440v-723h213q143 0 195 57q24 25 38 48l16 -333
q-1 11 -15 39q-49 105 -226 105h-221v-600h487q164 0 242 247q18 56 25 95l6 39h28l-14 -463h-1266q107 36 147 145q17 47 17 105z" />
    <glyph glyph-name="Eacute" unicode="&#xc9;" horiz-adv-x="1636" 
d="M829 2011q0 144 80 237q71 78 123 95l23 10l43 -166q-25 -6 -67 -26q-145 -68 -142 -195zM307 250v1073q0 145 -106 220q-29 20 -58 30h1219l14 -438h-28q-18 124 -78 231q-27 47 -79 85t-116 38h-440v-723h213q143 0 195 57q24 25 38 48l16 -333q-1 11 -15 39
q-49 105 -226 105h-221v-600h487q164 0 242 247q18 56 25 95l6 39h28l-14 -463h-1266q107 36 147 145q17 47 17 105z" />
    <glyph glyph-name="Ecircumflex" unicode="&#xca;" horiz-adv-x="1636" 
d="M543 1726h-131l405 590l406 -590h-131l-275 400zM307 250v1073q0 145 -106 220q-29 20 -58 30h1219l14 -438h-28q-18 124 -78 231q-27 47 -79 85t-116 38h-440v-723h213q143 0 195 57q24 25 38 48l16 -333q-1 11 -15 39q-49 105 -226 105h-221v-600h487q164 0 242 247
q18 56 25 95l6 39h28l-14 -463h-1266q107 36 147 145q17 47 17 105z" />
    <glyph glyph-name="Edieresis" unicode="&#xcb;" horiz-adv-x="1636" 
d="M944 2036q0 80 60 112t120 -1t60 -109t-60 -111t-120 -3t-60 112zM451 2028q0 76 59 106q58 30 118 -2q60 -33 60 -111q0 -47 -24 -77q-44 -54 -129 -35q-35 8 -60 41q-24 33 -24 78zM307 250v1073q0 145 -106 220q-29 20 -58 30h1219l14 -438h-28q-18 124 -78 231
q-27 47 -79 85t-116 38h-440v-723h213q143 0 195 57q24 25 38 48l16 -333q-1 11 -15 39q-49 105 -226 105h-221v-600h487q164 0 242 247q18 56 25 95l6 39h28l-14 -463h-1266q107 36 147 145q17 47 17 105z" />
    <glyph glyph-name="Igrave" unicode="&#xcc;" horiz-adv-x="997" 
d="M631 2011l-60 -45q0 74 -52 129t-103 74l-51 18l41 166q23 -6 70 -38q46 -31 76 -67t54 -98t25 -139zM666 254q0 -121 55 -179t106 -71h-653q159 53 162 250v1071q0 153 -105 224q-32 22 -57 28h653q-105 -35 -144 -144q-17 -48 -17 -108v-1071z" />
    <glyph glyph-name="Iacute" unicode="&#xcd;" horiz-adv-x="997" 
d="M481 2011q0 144 80 237q71 78 123 95l23 10l43 -166q-131 -33 -187 -134q-23 -40 -22 -87zM666 254q0 -121 55 -179t106 -71h-653q159 53 162 250v1071q0 153 -105 224q-32 22 -57 28h653q-105 -35 -144 -144q-17 -48 -17 -108v-1071z" />
    <glyph glyph-name="Icircumflex" unicode="&#xce;" horiz-adv-x="997" 
d="M223 1735h-131l406 589l405 -589h-131l-274 399zM666 254q0 -121 55 -179t106 -71h-653q159 53 162 250v1071q0 153 -105 224q-32 22 -57 28h653q-105 -35 -144 -144q-17 -48 -17 -108v-1071z" />
    <glyph glyph-name="Idieresis" unicode="&#xcf;" horiz-adv-x="997" 
d="M625 2026q0 70 38 103q37 32 81 33t82 -32q38 -32 38 -100t-59 -103t-120 -3q-60 32 -60 102zM131 2028q0 76 59 106q58 30 118 -2q60 -33 61 -111q0 -47 -25 -77q-26 -30 -60 -37q-86 -15 -128 43q-25 33 -25 78zM666 254q0 -121 55 -179t106 -71h-653q159 53 162 250
v1071q0 153 -105 224q-32 22 -57 28h653q-105 -35 -144 -144q-17 -48 -17 -108v-1071z" />
    <glyph glyph-name="Eth" unicode="&#xd0;" horiz-adv-x="1839" 
d="M672 47q315 0 493 194t178 644q0 309 -120 472t-267 212q-146 49 -284 49v-791h469v-118h-469v-662zM985 1667q125 0 256 -56q303 -130 431 -417q73 -162 73 -350q0 -382 -223 -614t-545 -232h-827q110 37 153 155q18 50 19 111v445h-222v118h222v574q0 98 -43 165
t-86 85l-43 16h835z" />
    <glyph glyph-name="Ntilde" unicode="&#xd1;" horiz-adv-x="1726" 
d="M916 2140q108 -45 204 -45t140 27q45 27 51 47l4 8l45 -10q-7 -35 -34 -85q-26 -50 -56 -85t-89 -63q-57 -28 -149 -28q-134 1 -301 83q-110 54 -227 2q-53 -25 -74 -49l-22 -25l-43 14l11 27q7 18 37 62t64 77q95 89 243 89q88 0 196 -46zM1448 1323v-1237
q55 -47 139 -47v-55h-133q-122 0 -232 62t-197 168q-169 205 -308 504q-66 140 -122 262q-136 296 -216 378v-1108q0 -121 55 -179q55 -59 107 -71h-408q5 2 17 5t40 19q106 63 105 226v1190q-28 34 -77 62q-50 28 -97 28v65h53q142 0 274 -56t230 -147q206 -192 343 -467
t221 -498q84 -222 124 -259v1155q0 93 -41 155t-82 78l-41 17h410q-107 -36 -147 -143q-17 -48 -17 -107z" />
    <glyph glyph-name="Ograve" unicode="&#xd2;" horiz-adv-x="1802" 
d="M1034 2011l-59 -45q0 74 -51 129t-105 74l-51 18l41 166q25 -6 71 -38q46 -31 76 -67t54 -98t24 -139zM889 33q165 -1 281 197t116 589q0 197 -39 349t-100 232q-121 161 -258 161t-258 -161q-61 -81 -101 -233t-38 -348q0 -391 115 -589q116 -197 282 -197zM889 1640
q88 0 175 -17t196 -73q110 -56 190 -144q80 -89 135 -251t55 -370q0 -207 -51 -361t-126 -239t-183 -136t-197 -66q-332 -55 -586 66q-108 51 -183 136t-126 239t-51 362t56 369q55 162 135 251t188 144q108 54 197 72q88 18 176 18z" />
    <glyph glyph-name="Oacute" unicode="&#xd3;" horiz-adv-x="1654" 
d="M705 2011q0 146 79 237q70 76 121 95l25 10l43 -166q-25 -6 -67 -26q-145 -68 -142 -195zM827 33q166 -1 282 197t116 589q0 197 -39 349q-38 152 -100 232q-122 161 -259 161t-258 -161q-61 -81 -100 -233t-39 -348q0 -391 116 -589t281 -197zM827 1640q88 0 175 -17
t196 -73t190 -144q81 -89 136 -251t55 -370q0 -207 -51 -361t-126 -239q-74 -85 -182 -136t-198 -66q-331 -55 -587 66q-109 51 -183 136t-125 239t-51 362t55 369q55 162 135 251t189 144q109 54 197 72t175 18z" />
    <glyph glyph-name="Ocircumflex" unicode="&#xd4;" horiz-adv-x="1802" 
d="M627 1745h-131l405 590l406 -590h-131l-275 399zM889 33q165 -1 281 197t116 589q0 197 -39 349t-100 232q-121 161 -258 161t-258 -161q-61 -81 -101 -233t-38 -348q0 -391 115 -589q116 -197 282 -197zM889 1640q88 0 175 -17t196 -73q110 -56 190 -144
q80 -89 135 -251t55 -370q0 -207 -51 -361t-126 -239t-183 -136t-197 -66q-332 -55 -586 66q-108 51 -183 136t-126 239t-51 362t56 369q55 162 135 251t188 144q108 54 197 72q88 18 176 18z" />
    <glyph glyph-name="Otilde" unicode="&#xd5;" horiz-adv-x="1802" 
d="M956 2140q108 -45 203 -45q96 0 139 27t54 47l2 8l45 -10q-7 -35 -34 -85t-57 -85t-88 -63t-150 -28q-134 1 -300 83q-111 55 -227 2q-53 -25 -76 -49l-21 -25l-43 14q37 92 122 174q85 83 235 81q88 0 196 -46zM889 33q165 -1 281 197t116 589q0 197 -39 349t-100 232
q-121 161 -258 161t-258 -161q-61 -81 -101 -233t-38 -348q0 -391 115 -589q116 -197 282 -197zM889 1640q88 0 175 -17t196 -73q110 -56 190 -144q80 -89 135 -251t55 -370q0 -207 -51 -361t-126 -239t-183 -136t-197 -66q-332 -55 -586 66q-108 51 -183 136t-126 239
t-51 362t56 369q55 162 135 251t188 144q108 54 197 72q88 18 176 18z" />
    <glyph glyph-name="Odieresis" unicode="&#xd6;" horiz-adv-x="1802" 
d="M1028 2028q0 70 38 103q38 32 82 33t82 -32q38 -32 38 -100t-60 -103t-121 -3q-59 32 -59 102zM535 2030q0 76 59 106q58 30 118 -2q60 -33 60 -111q0 -47 -24 -77t-60 -37q-35 -6 -70 2t-59 41t-24 78zM889 33q165 -1 281 197t116 589q0 197 -39 349t-100 232
q-121 161 -258 161t-258 -161q-61 -81 -101 -233t-38 -348q0 -391 115 -589q116 -197 282 -197zM889 1640q88 0 175 -17t196 -73q110 -56 190 -144q80 -89 135 -251t55 -370q0 -207 -51 -361t-126 -239t-183 -136t-197 -66q-332 -55 -586 66q-108 51 -183 136t-126 239
t-51 362t56 369q55 162 135 251t188 144q108 54 197 72q88 18 176 18z" />
    <glyph glyph-name="multiply" unicode="&#xd7;" horiz-adv-x="1433" 
d="M1348 133h-265l-368 473l-371 -473h-264l506 637l-496 633h246l379 -473l377 473h245l-495 -633z" />
    <glyph glyph-name="Oslash" unicode="&#xd8;" horiz-adv-x="1685" 
d="M836 33q166 -1 282 197t115 587q0 211 -47 377l-649 -926q109 -235 299 -235zM438 796q0 -220 49 -399l654 920q-59 123 -143 183q-151 109 -293 21q-267 -162 -267 -725zM1587 782q0 -204 -51 -358t-126 -239q-74 -85 -182 -136t-198 -66t-194 -16q-262 0 -437 105
l-172 -246h-143l223 315q-223 203 -223 641q0 211 55 373t135 251t189 144q109 54 197 72t176 18q252 0 440 -131l248 349h129l-293 -416q227 -223 227 -660z" />
    <glyph glyph-name="Ugrave" unicode="&#xd9;" horiz-adv-x="1712" 
d="M989 2011l-59 -45q0 74 -51 129t-105 74l-51 18l41 166q23 -6 70 -38q46 -31 76 -67t54 -98t25 -139zM1456 688q0 -252 -10 -321q-37 -272 -256 -365q-129 -53 -345 -53t-347 72t-186 190q-56 119 -60 210t-8 157t-2 119t2 75v551q0 121 -57 179t-107 71h665
q-6 -2 -17 -5q-11 -4 -39 -20q-105 -62 -105 -207v-768q0 -139 17 -245t38 -140q56 -96 97 -120q124 -70 311 -38q55 10 97 25q157 60 201 245q22 104 24 172q1 68 3 124t1 106t-1 70v551q0 93 -41 155t-82 78l-39 17h408q-159 -53 -162 -250v-635z" />
    <glyph glyph-name="Uacute" unicode="&#xda;" horiz-adv-x="1712" 
d="M883 2011q0 147 76 231t126 101l23 10l43 -166q-25 -6 -67 -26q-81 -38 -119 -108q-23 -40 -23 -87zM1456 688q0 -252 -10 -321q-37 -272 -256 -365q-129 -53 -345 -53t-347 72t-186 190q-56 119 -60 210t-8 157t-2 119t2 75v551q0 121 -57 179t-107 71h665q-6 -2 -17 -5
q-11 -4 -39 -20q-105 -62 -105 -207v-768q0 -139 17 -245t38 -140q56 -96 97 -120q124 -70 311 -38q55 10 97 25q157 60 201 245q22 104 24 172q1 68 3 124t1 106t-1 70v551q0 93 -41 155t-82 78l-39 17h408q-159 -53 -162 -250v-635z" />
    <glyph glyph-name="Ucircumflex" unicode="&#xdb;" horiz-adv-x="1712" 
d="M582 1733h-131l405 589l406 -589h-132l-274 399zM1456 688q0 -252 -10 -321q-37 -272 -256 -365q-129 -53 -345 -53t-347 72t-186 190q-56 119 -60 210t-8 157t-2 119t2 75v551q0 121 -57 179t-107 71h665q-6 -2 -17 -5q-11 -4 -39 -20q-105 -62 -105 -207v-768
q0 -139 17 -245t38 -140q56 -96 97 -120q124 -70 311 -38q55 10 97 25q157 60 201 245q22 104 24 172q1 68 3 124t1 106t-1 70v551q0 93 -41 155t-82 78l-39 17h408q-159 -53 -162 -250v-635z" />
    <glyph glyph-name="Udieresis" unicode="&#xdc;" horiz-adv-x="1712" 
d="M983 2016q0 70 38 103t82 33t82 -32t38 -100q-1 -68 -61 -103t-120 -3q-59 32 -59 102zM489 2017q-1 76 59 107t120 -2t59 -111q0 -47 -25 -78q-26 -31 -60 -37q-86 -15 -128 43q-25 33 -25 78zM1456 688q0 -252 -10 -321q-37 -272 -256 -365q-129 -53 -345 -53t-347 72
t-186 190q-56 119 -60 210t-8 157t-2 119t2 75v551q0 121 -57 179t-107 71h665q-6 -2 -17 -5q-11 -4 -39 -20q-105 -62 -105 -207v-768q0 -139 17 -245t38 -140q56 -96 97 -120q124 -70 311 -38q55 10 97 25q157 60 201 245q22 104 24 172q1 68 3 124t1 106t-1 70v551
q0 93 -41 155t-82 78l-39 17h408q-159 -53 -162 -250v-635z" />
    <glyph glyph-name="Yacute" unicode="&#xdd;" horiz-adv-x="1566" 
d="M774 2011q0 144 80 237q70 76 121 95l24 10l43 -166q-22 -6 -65 -26q-83 -39 -121 -108q-23 -40 -22 -87zM948 256q0 -150 105 -224q32 -22 57 -28h-653q105 35 144 144q17 48 17 108v291l-409 803q-70 140 -157 198q-36 25 -70 25h739q-125 -2 -167 -69t5 -181l340 -645
l289 631q37 92 21 172q-7 35 -42 63t-98 29h508q-152 0 -283 -238l-346 -764v-315z" />
    <glyph glyph-name="Thorn" unicode="&#xde;" horiz-adv-x="1515" 
d="M635 559q223 1 356 149t133 363t-119 334q-120 119 -237 119h-180v-965h47zM588 250q0 -195 162 -252h-654q106 35 145 144q17 48 17 108v1634q0 92 -41 154t-82 80l-39 16h654q-105 -35 -145 -143q-17 -47 -17 -107v-311h350q143 0 235 -45q93 -46 144 -100t85 -149
t34 -218q0 -291 -146 -426t-372 -135h-330v-250z" />
    <glyph glyph-name="germandbls" unicode="&#xdf;" horiz-adv-x="1505" 
d="M794 -121q100 0 175 48q164 105 164 407q0 207 -91 303q-91 95 -196 109t-154 6l-24 -4q0 133 116 199q49 28 99 58q49 30 83 89t34 148t-31 163q-54 129 -186 178q-112 44 -225 -41q-48 -37 -79 -117t-30 -186v-1528q0 -98 43 -165t86 -83l43 -18h-680q67 17 125 80
q57 63 59 186v1315q0 156 40 274t100 187q59 67 145 109q145 70 329 71q183 0 345 -121t163 -293q0 -123 -53 -203t-130 -110q-77 -31 -154 -46q-77 -16 -130 -30t-53 -43q32 9 123 16q90 7 157 1t149 -36t140 -83q60 -53 100 -151t40 -218t-28 -204t-74 -134
q-46 -51 -105 -89t-124 -53q-65 -14 -129 -26t-120 -10q-55 2 -87 1t-42 -1l-8 51q25 -6 75 -6z" />
    <glyph glyph-name="agrave" unicode="&#xe0;" horiz-adv-x="1437" 
d="M852 1368l-59 -45q1 74 -51 129t-103 74l-53 18l41 166q23 -6 70 -38t77 -68t54 -98t24 -138zM475 281q0 -89 34 -142t82 -63t97 5t85 67t38 118t12 202q10 134 11 171q-3 -59 -180 -119q-67 -22 -123 -86t-56 -153zM1229 45q58 0 104 61l43 -36q-42 -42 -122 -77
q-81 -36 -156 -36q-279 0 -279 229q-6 -96 -104 -159t-257 -63t-237 83q-78 85 -78 191t72 181t173 109q100 34 202 57t174 55t72 87q0 202 -97 250q-45 23 -117 23t-120 -28q-46 -26 -60 -65q-26 -76 -12 -141l8 -27l-225 9q7 48 37 112q31 64 72 108q40 44 124 81t193 36
q184 0 301 -57t161 -149q84 -175 59 -424q-11 -111 -18 -203t11 -150t76 -57z" />
    <glyph glyph-name="aacute" unicode="&#xe1;" horiz-adv-x="1335" 
d="M641 1368q0 144 80 237q72 79 123 95l22 10l43 -166q-24 -6 -66 -26q-83 -41 -120 -108q-23 -40 -23 -87zM434 281q0 -89 34 -142t82 -63t97 5t85 67t38 118t12 202q10 134 11 171q-3 -59 -180 -119q-67 -22 -123 -86t-56 -153zM1188 45q58 0 104 61l43 -36
q-42 -42 -122 -77q-81 -36 -156 -36q-279 0 -279 229q-6 -96 -104 -159t-257 -63t-237 83q-78 85 -78 191t72 181t173 109t203 57t173 55q72 32 72 87q0 202 -97 250q-46 23 -118 23t-119 -28q-47 -26 -61 -65q-26 -76 -11 -141l8 -27l-225 9q7 48 37 112q31 64 72 108
t125 81t192 36q184 0 301 -57t161 -149q84 -175 59 -424q-11 -111 -18 -203t11 -150t76 -57z" />
    <glyph glyph-name="acircumflex" unicode="&#xe2;" horiz-adv-x="1437" 
d="M444 1372h-131l406 590l405 -590h-131l-274 400zM475 281q0 -89 34 -142t82 -63t97 5t85 67t38 118t12 202q10 134 11 171q-3 -59 -180 -119q-67 -22 -123 -86t-56 -153zM1229 45q58 0 104 61l43 -36q-42 -42 -122 -77q-81 -36 -156 -36q-279 0 -279 229
q-6 -96 -104 -159t-257 -63t-237 83q-78 85 -78 191t72 181t173 109q100 34 202 57t174 55t72 87q0 202 -97 250q-45 23 -117 23t-120 -28q-46 -26 -60 -65q-26 -76 -12 -141l8 -27l-225 9q7 48 37 112q31 64 72 108q40 44 124 81t193 36q184 0 301 -57t161 -149
q84 -175 59 -424q-11 -111 -18 -203t11 -150t76 -57z" />
    <glyph glyph-name="atilde" unicode="&#xe3;" horiz-adv-x="1437" 
d="M578 1542q88 0 196 -45t203 -45q96 0 141 28t49 46l4 8l46 -10q-6 -32 -33 -84q-27 -51 -58 -86t-89 -63q-57 -27 -149 -27q-133 1 -300 82q-110 54 -228 2q-53 -25 -73 -50l-23 -24l-43 14l11 28q7 18 37 61q30 44 65 77q35 32 95 60q61 28 149 28zM475 281
q0 -89 34 -142t82 -63t97 5t85 67t38 118t12 202q10 134 11 171q-3 -59 -180 -119q-67 -22 -123 -86t-56 -153zM1229 45q58 0 104 61l43 -36q-42 -42 -122 -77q-81 -36 -156 -36q-279 0 -279 229q-6 -96 -104 -159t-257 -63t-237 83q-78 85 -78 191t72 181t173 109
q100 34 202 57t174 55t72 87q0 202 -97 250q-45 23 -117 23t-120 -28q-46 -26 -60 -65q-26 -76 -12 -141l8 -27l-225 9q7 48 37 112q31 64 72 108q40 44 124 81t193 36q184 0 301 -57t161 -149q84 -175 59 -424q-11 -111 -18 -203t11 -150t76 -57z" />
    <glyph glyph-name="adieresis" unicode="&#xe4;" horiz-adv-x="1437" 
d="M846 1600q0 70 38 103q38 32 82 33t82 -32q38 -32 38 -100t-60 -103q-59 -35 -120 -3q-60 32 -60 102zM352 1602q0 76 60 106t118 -2q59 -33 60 -111q0 -47 -25 -77t-59 -37q-86 -15 -129 43q-25 33 -25 78zM475 281q0 -89 34 -142t82 -63t97 5t85 67t38 118t12 202
q10 134 11 171q-3 -59 -180 -119q-67 -22 -123 -86t-56 -153zM1229 45q58 0 104 61l43 -36q-42 -42 -122 -77q-81 -36 -156 -36q-279 0 -279 229q-6 -96 -104 -159t-257 -63t-237 83q-78 85 -78 191t72 181t173 109q100 34 202 57t174 55t72 87q0 202 -97 250
q-45 23 -117 23t-120 -28q-46 -26 -60 -65q-26 -76 -12 -141l8 -27l-225 9q7 48 37 112q31 64 72 108q40 44 124 81t193 36q184 0 301 -57t161 -149q84 -175 59 -424q-11 -111 -18 -203t11 -150t76 -57z" />
    <glyph glyph-name="aring" unicode="&#xe5;" horiz-adv-x="1437" 
d="M715 1300q61 0 83 42t-3 84t-81 42t-81 -42t-2 -84t84 -42zM713 1516q90 0 128 -66t-2 -132t-129 -65q-89 0 -123 66q-34 65 1 131t125 66zM475 281q0 -89 34 -142t82 -63t97 5t85 67t38 118t12 202q10 134 11 171q-3 -59 -180 -119q-67 -22 -123 -86t-56 -153zM1229 45
q58 0 104 61l43 -36q-42 -42 -122 -77q-81 -36 -156 -36q-279 0 -279 229q-6 -96 -104 -159t-257 -63t-237 83q-78 85 -78 191t72 181t173 109q100 34 202 57t174 55t72 87q0 202 -97 250q-45 23 -117 23t-120 -28q-46 -26 -60 -65q-26 -76 -12 -141l8 -27l-225 9
q7 48 37 112q31 64 72 108q40 44 124 81t193 36q184 0 301 -57t161 -149q84 -175 59 -424q-11 -111 -18 -203t11 -150t76 -57z" />
    <glyph glyph-name="ae" unicode="&#xe6;" horiz-adv-x="1992" 
d="M473 267q0 -85 35 -142t85 -69q120 -27 183 80q35 58 35 130q0 148 22 367q-7 -47 -126 -92q-53 -20 -107 -48q-54 -29 -90 -85q-37 -56 -37 -141zM1384 1026q-92 0 -148 -78t-76 -188q-42 -227 -38 -408l4 -78q0 66 161 149q67 34 133 74q66 41 114 105q47 64 47 143
q0 123 -52 202q-53 79 -145 79zM1340 -41q-271 0 -414 169q-72 86 -72 142q-4 -156 -87 -232t-294 -75q-156 0 -243 85t-87 182q-1 97 51 165t129 102q77 33 165 61t166 44q77 16 128 47t52 72q0 208 -95 256q-45 23 -117 23t-120 -28q-46 -26 -60 -65q-29 -84 -12 -141
l6 -27l-223 9q7 48 36 111q30 65 72 109q43 44 125 81t180 37q193 -1 278 -55q84 -53 95 -87l9 -16q13 20 46 48q112 97 341 97q337 0 427 -193q28 -60 28 -146t-114 -172q-112 -85 -246 -135q-360 -134 -360 -206q0 -86 69 -141t165 -55q235 0 353 195q52 83 55 136l79 -18
q-6 -44 -49 -121q-43 -76 -95 -126q-53 -50 -155 -91t-212 -41z" />
    <glyph glyph-name="ccedilla" unicode="&#xe7;" horiz-adv-x="1419" 
d="M708 -131h-26v75q-106 6 -200 43q-93 36 -151 90t-101 157q-42 104 -42 232q0 248 131 420q68 87 191 137q124 50 266 50t228 -39t122 -94q78 -117 78 -203v-39l-213 9q2 12 6 31q4 18 2 68t-17 89t-62 70t-123 30q-166 1 -245 -241t-22 -485t222 -242q90 1 164 35
t114 84q87 106 105 186l10 35l82 -23q-7 -56 -44 -132q-38 -77 -85 -130q-48 -53 -142 -96t-213 -43v-35q13 0 31 -2t48 -28t30 -78t-44 -76t-87 -19l-43 4v47l40 -2q70 0 73 56q0 20 -13 38q-15 21 -70 21z" />
    <glyph glyph-name="egrave" unicode="&#xe8;" horiz-adv-x="1374" 
d="M819 1368l-59 -45q0 74 -51 129t-103 74l-53 18l41 166q23 -6 70 -38q46 -32 76 -68t54 -98t25 -138zM716 1026q-224 0 -255 -486q-8 -110 -6 -188l4 -78q0 67 161 149q68 34 134 74q66 41 112 105t47 143q0 123 -52 202t-145 79zM657 -63q-276 1 -396 157t-120 408
t152 412t434 159q174 0 302 -62q71 -34 112 -104t41 -165t-113 -180t-248 -135q-362 -134 -360 -206q0 -84 78 -140t177 -56t175 45q117 69 187 215q26 51 26 71l80 -18q-7 -56 -46 -133q-38 -76 -89 -129t-155 -96t-237 -43z" />
    <glyph glyph-name="eacute" unicode="&#xe9;" horiz-adv-x="1210" 
d="M596 1368q0 144 80 237q72 79 123 95l22 10l43 -166q-24 -6 -66 -26q-83 -41 -120 -108q-23 -40 -23 -87zM660 1026q-223 0 -254 -486q-8 -110 -5 -188l2 -78q0 66 161 149q68 34 134 74q66 41 113 105t47 143q0 123 -52 202q-53 79 -146 79zM602 -63q-276 1 -396 157
t-120 408t152 412t434 159q173 0 302 -62q72 -34 112 -104t40 -165t-112 -180t-248 -135q-362 -134 -360 -206q0 -84 78 -140t176 -56q100 0 176 45t118 104q42 58 69 110q26 52 26 72l79 -18q-7 -56 -46 -133q-38 -76 -89 -129t-154 -96t-237 -43z" />
    <glyph glyph-name="ecircumflex" unicode="&#xea;" horiz-adv-x="1374" 
d="M412 1372h-131l405 590l406 -590h-131l-275 400zM716 1026q-224 0 -255 -486q-8 -110 -6 -188l4 -78q0 67 161 149q68 34 134 74q66 41 112 105t47 143q0 123 -52 202t-145 79zM657 -63q-276 1 -396 157t-120 408t152 412t434 159q174 0 302 -62q71 -34 112 -104t41 -165
t-113 -180t-248 -135q-362 -134 -360 -206q0 -84 78 -140t177 -56t175 45q117 69 187 215q26 51 26 71l80 -18q-7 -56 -46 -133q-38 -76 -89 -129t-155 -96t-237 -43z" />
    <glyph glyph-name="edieresis" unicode="&#xeb;" horiz-adv-x="1374" 
d="M813 1600q0 70 38 103q38 32 82 33t82 -32q38 -32 38 -100q1 -68 -59 -103t-121 -3q-60 32 -60 102zM319 1602q-1 76 59 106t120 -2q60 -33 59 -111q0 -47 -25 -77q-26 -30 -60 -37q-86 -15 -128 43q-25 33 -25 78zM716 1026q-224 0 -255 -486q-8 -110 -6 -188l4 -78
q0 67 161 149q68 34 134 74q66 41 112 105t47 143q0 123 -52 202t-145 79zM657 -63q-276 1 -396 157t-120 408t152 412t434 159q174 0 302 -62q71 -34 112 -104t41 -165t-113 -180t-248 -135q-362 -134 -360 -206q0 -84 78 -140t177 -56t175 45q117 69 187 215q26 51 26 71
l80 -18q-7 -56 -46 -133q-38 -76 -89 -129t-155 -96t-237 -43z" />
    <glyph glyph-name="igrave" unicode="&#xec;" horiz-adv-x="1001" 
d="M633 1407l-60 -45q0 74 -51 129t-104 74l-51 18l41 166q23 -6 70 -38q46 -32 76 -67q30 -36 54 -98t25 -139zM676 246q0 -120 54 -175t91 -67l17 -6h-639q6 2 17 5t39 19q105 62 105 214v583l-135 -88l-28 51q369 298 385 314q40 41 75 1q18 -22 19 -67v-784z" />
    <glyph glyph-name="iacute" unicode="&#xed;" horiz-adv-x="835" 
d="M440 1368q0 144 80 237q71 78 123 95l23 10l43 -166q-131 -33 -187 -134q-23 -40 -22 -87zM582 246q0 -120 54 -175t91 -67l16 -6h-639q6 2 18 5t39 19q105 62 105 214v583l-135 -88l-29 51q370 298 386 314q40 40 75 1q18 -22 19 -67v-784z" />
    <glyph glyph-name="icircumflex" unicode="&#xee;" horiz-adv-x="1001" 
d="M225 1372h-131l406 590l405 -590h-131l-274 400zM676 246q0 -120 54 -175t91 -67l17 -6h-639q6 2 17 5t39 19q105 62 105 214v583l-135 -88l-28 51q369 298 385 314q40 41 75 1q18 -22 19 -67v-784z" />
    <glyph glyph-name="idieresis" unicode="&#xef;" horiz-adv-x="1001" 
d="M627 1600q0 70 38 103q37 32 81 33t82 -32q38 -32 38 -100t-59 -103t-120 -3q-60 32 -60 102zM133 1602q-1 76 59 106t119 -2q59 -33 60 -111q0 -47 -25 -77q-26 -30 -60 -37q-86 -15 -128 43q-25 33 -25 78zM676 246q0 -120 54 -175t91 -67l17 -6h-639q6 2 17 5t39 19
q105 62 105 214v583l-135 -88l-28 51q369 298 385 314q40 41 75 1q18 -22 19 -67v-784z" />
    <glyph glyph-name="eth" unicode="&#xf0;" horiz-adv-x="1384" 
d="M442 548q0 -294 64 -413t181 -119q118 0 179 144t62 393q0 248 -62 393t-180 146q-96 0 -170 -125t-74 -419zM1292 553q0 -297 -172 -445t-429 -148t-435 138q-88 70 -140 188t-52 265t59 266q107 215 352 300q107 38 203 38t192 -22q-66 221 -194 376l-162 -161l-63 63
l165 164q-197 190 -466 190v80q317 0 577 -159l201 202l61 -63l-188 -189q229 -168 360 -446t131 -637z" />
    <glyph glyph-name="ntilde" unicode="&#xf1;" horiz-adv-x="1536" 
d="M598 1542q88 0 196 -45t203 -45t140 27t51 47l4 8l45 -10q-7 -36 -34 -86t-57 -84q-30 -35 -88 -63q-58 -27 -150 -27q-134 1 -300 82q-110 54 -227 2q-53 -25 -74 -50l-22 -24l-43 14l11 28q7 18 37 61q30 44 64 77q93 88 244 88zM817 0q157 52 160 248v452
q0 236 -201 236q-106 0 -155 -72t-50 -164v-454q0 -178 146 -242l16 -4h-631q66 22 97 58q65 76 65 190v540l-133 -88l-29 52q358 295 376 312q40 39 75 1q18 -20 18 -66v-129q21 60 73 107q102 92 276 90q92 0 162 -32t108 -79q100 -121 100 -338v-405q8 -80 48 -133
t75 -68l37 -12h-633z" />
    <glyph glyph-name="ograve" unicode="&#xf2;" horiz-adv-x="1482" 
d="M874 1368l-59 -45q0 74 -51 129t-105 74l-51 18l41 166q25 -6 71 -38t76 -68t54 -98t24 -138zM520 494q0 -276 60 -386q60 -112 170 -112q111 0 168 135t57 369t-57 368q-57 135 -170 136q-90 0 -159 -117t-69 -393zM365 925q181 138 386 138t374 -119q87 -61 139 -176
t53 -268q0 -279 -163 -418t-404 -139t-405 131q-83 66 -131 176t-48 247t55 249t144 179z" />
    <glyph glyph-name="oacute" unicode="&#xf3;" horiz-adv-x="1323" 
d="M526 1368q0 144 80 237q71 78 123 95l23 10l43 -166q-131 -33 -187 -134q-23 -40 -22 -87zM440 494q0 -276 60 -386q60 -112 170 -112q111 0 168 135t57 369t-57 368q-57 135 -170 136q-90 0 -159 -117t-69 -393zM285 925q181 138 385 138t376 -119q87 -61 139 -176
t52 -268q0 -279 -163 -418t-403 -139t-406 131q-83 66 -131 176t-48 247t55 249t144 179z" />
    <glyph glyph-name="ocircumflex" unicode="&#xf4;" horiz-adv-x="1482" 
d="M467 1372h-131l405 590l406 -590h-131l-275 400zM520 494q0 -276 60 -386q60 -112 170 -112q111 0 168 135t57 369t-57 368q-57 135 -170 136q-90 0 -159 -117t-69 -393zM365 925q181 138 386 138t374 -119q87 -61 139 -176t53 -268q0 -279 -163 -418t-404 -139t-405 131
q-83 66 -131 176t-48 247t55 249t144 179z" />
    <glyph glyph-name="otilde" unicode="&#xf5;" horiz-adv-x="1482" 
d="M600 1542q88 0 196 -45t203 -45t142 29t53 53l45 -10q-7 -36 -34 -86t-57 -84q-30 -35 -88 -63q-58 -27 -150 -27q-134 1 -300 82q-110 54 -227 2q-53 -25 -76 -50l-20 -24l-43 14l11 28q7 18 37 61q30 44 64 77q93 88 244 88zM520 494q0 -276 60 -386q60 -112 170 -112
q111 0 168 135t57 369t-57 368q-57 135 -170 136q-90 0 -159 -117t-69 -393zM365 925q181 138 386 138t374 -119q87 -61 139 -176t53 -268q0 -279 -163 -418t-404 -139t-405 131q-83 66 -131 176t-48 247t55 249t144 179z" />
    <glyph glyph-name="odieresis" unicode="&#xf6;" horiz-adv-x="1482" 
d="M868 1600q0 70 38 103q38 32 82 33t82 -32q38 -32 38 -100t-59 -103t-120 -3t-61 102zM375 1602q0 76 59 106q58 30 118 -2q60 -33 60 -111q0 -47 -24 -77q-44 -54 -129 -35q-35 8 -60 41q-24 33 -24 78zM520 494q0 -276 60 -386q60 -112 170 -112q111 0 168 135t57 369
t-57 368q-57 135 -170 136q-90 0 -159 -117t-69 -393zM365 925q181 138 386 138t374 -119q87 -61 139 -176t53 -268q0 -279 -163 -418t-404 -139t-405 131q-83 66 -131 176t-48 247t55 249t144 179z" />
    <glyph glyph-name="divide" unicode="&#xf7;" horiz-adv-x="1335" 
d="M659 1071q-55 0 -92 29q-37 30 -45 70t1 81t46 70t88 29q105 0 145 -70t-2 -140t-141 -69zM657 258q105 0 145 -70t-2 -140t-141 -68q-55 0 -92 28t-45 70q-20 101 47 151q37 29 88 29zM31 776h1274v-231h-1274v231z" />
    <glyph glyph-name="oslash" unicode="&#xf8;" horiz-adv-x="1280" 
d="M637 -10q111 0 169 136t58 368q0 137 -20 233l-373 -631q55 -106 166 -106zM408 494q0 -137 16 -242l375 625q-61 121 -157 121t-165 -117t-69 -387zM1204 494q0 -279 -162 -418t-405 -139q-129 0 -238 38l-94 -155h-139l125 207q-238 147 -238 467q-1 134 55 246
q99 199 331 281q99 36 214 36t228 -43l166 276h133l-197 -329q221 -150 221 -467z" />
    <glyph glyph-name="ugrave" unicode="&#xf9;" horiz-adv-x="1705" 
d="M985 1368l-59 -45q0 74 -52 129t-104 74l-51 18l41 166q23 -6 70 -38q46 -32 76 -68t54 -98t25 -138zM1393 57q25 0 59 17l37 -49q0 -5 -23 -17q-65 -36 -172 -36q-108 -2 -158 18q-78 30 -119 108q-26 50 -26 90q0 -35 -34 -78q-35 -44 -73 -72t-113 -48t-169 -20
t-160 26q-66 28 -98 62t-50 96q-17 62 -20 100q-2 39 -2 104v514q0 55 -27 70q-28 14 -57 0l-26 -12l-45 26q6 10 21 28q14 18 74 45q60 28 132 28q127 0 183 -75q55 -75 55 -247v-387q0 -270 204 -270q55 0 96 28q62 45 87 161q8 42 8 85v447q0 118 -54 167t-92 54l-16 4
h649q-16 0 -50 -17t-56 -39t-38 -67q-17 -45 -17 -102v-601q0 -44 3 -58l6 -28q3 -15 17 -31t26 -20q13 -4 38 -4z" />
    <glyph glyph-name="uacute" unicode="&#xfa;" horiz-adv-x="1515" 
d="M664 1368q0 146 79 237q70 76 121 95l25 10l43 -166q-128 -32 -187 -134q-23 -40 -22 -87zM1338 57q25 0 59 17l37 -49q0 -5 -23 -17q-65 -36 -172 -36q-173 -2 -238 69t-65 147q0 -35 -34 -78q-34 -44 -73 -72q-92 -67 -282 -69q-94 0 -160 27q-67 28 -99 62t-49 96
t-20 100q-2 39 -2 104v514q0 56 -28 70t-54 0l-29 -12l-45 26q5 10 21 28t76 45q60 28 131 28q72 0 118 -25q47 -26 69 -56q50 -68 50 -241v-387q0 -270 205 -270q55 0 95 28q92 65 96 246v447q0 57 -17 102q-16 45 -56 80t-73 39l-16 4h649q-16 0 -50 -17q-33 -17 -55 -39
q-55 -56 -57 -169v-601q0 -44 3 -58l6 -28q3 -15 17 -31t27 -20t38 -4z" />
    <glyph glyph-name="ucircumflex" unicode="&#xfb;" horiz-adv-x="1705" 
d="M578 1372h-132l406 590l405 -590h-131l-274 400zM1393 57q25 0 59 17l37 -49q0 -5 -23 -17q-65 -36 -172 -36q-108 -2 -158 18q-78 30 -119 108q-26 50 -26 90q0 -35 -34 -78q-35 -44 -73 -72t-113 -48t-169 -20t-160 26q-66 28 -98 62t-50 96q-17 62 -20 100
q-2 39 -2 104v514q0 55 -27 70q-28 14 -57 0l-26 -12l-45 26q6 10 21 28q14 18 74 45q60 28 132 28q127 0 183 -75q55 -75 55 -247v-387q0 -270 204 -270q55 0 96 28q62 45 87 161q8 42 8 85v447q0 118 -54 167t-92 54l-16 4h649q-16 0 -50 -17t-56 -39t-38 -67
q-17 -45 -17 -102v-601q0 -44 3 -58l6 -28q3 -15 17 -31t26 -20q13 -4 38 -4z" />
    <glyph glyph-name="udieresis" unicode="&#xfc;" horiz-adv-x="1525" 
d="M924 1600q0 70 38 103q38 32 82 33t81 -32q38 -32 38 -100t-59 -103t-120 -3q-60 32 -60 102zM430 1602q0 76 59 106t119 -2q60 -33 60 -111q0 -47 -25 -77t-59 -37q-86 -15 -129 43q-25 33 -25 78zM1338 57q25 0 59 17l37 -49q0 -5 -23 -17q-65 -36 -172 -36
q-173 -2 -238 69t-65 147q0 -35 -34 -78q-34 -44 -73 -72q-92 -67 -282 -69q-94 0 -160 27q-67 28 -99 62t-49 96t-20 100q-2 39 -2 104v514q0 56 -28 70t-54 0l-29 -12l-45 26q5 10 21 28t76 45q60 28 131 28q72 0 118 -25q47 -26 69 -56q50 -68 50 -241v-387
q0 -270 205 -270q55 0 95 28q92 65 96 246v447q0 57 -17 102q-16 45 -56 80t-73 39l-16 4h649q-16 0 -50 -17q-33 -17 -55 -39q-55 -56 -57 -169v-601q0 -44 3 -58l6 -28q3 -15 17 -31t27 -20t38 -4z" />
    <glyph glyph-name="yacute" unicode="&#xfd;" 
d="M762 1368q0 147 76 231t125 101l24 10l43 -166q-23 -6 -66 -26q-82 -40 -120 -108q-23 -40 -23 -87zM952 1026h543q-124 0 -205 -69t-106 -117l-10 -21l-300 -977q-4 -12 -10 -34q-44 -159 -151 -328q-92 -144 -211 -204q-68 -34 -138 -34t-112 29t-49 57l-8 27l139 104
q0 -26 31 -57t93 -31t117 50t93 121q77 148 110 265l15 50l-396 880l-11 22q-61 113 -140 157q-39 22 -74 22q-34 0 -56 -12t-26 -25l-6 -14q0 66 48 121q22 25 73 45t119 20q168 0 267 -120q24 -28 32 -48l292 -651l175 569l6 21t4 50t-10 62t-46 48t-92 22z" />
    <glyph glyph-name="thorn" unicode="&#xfe;" horiz-adv-x="1316" 
d="M688 98q123 0 194 100q70 100 70 381t-74 399t-178 118t-168 -126t-63 -374q0 -498 219 -498zM711 1149q245 0 397 -161t152 -484q0 -502 -496 -502q-143 0 -275 107v-537q0 -122 56 -181t94 -71l18 -6h-637q6 2 16 5t39 21q106 66 111 209v1883q-4 111 -58 165t-91 66
l-17 6h637q-106 -35 -149 -149q-18 -49 -19 -109v-291q93 29 222 29z" />
    <glyph glyph-name="ydieresis" unicode="&#xff;" 
d="M1102 1604q0 -68 -60 -103t-120 -3t-60 102t38 103q38 32 82 33t82 -32q38 -32 38 -100zM369 1602q0 76 59 106q58 30 118 -2q60 -33 60 -111q0 -47 -24 -77q-44 -54 -129 -35q-35 8 -60 41q-24 33 -24 78zM952 1026h543q-124 0 -205 -69t-106 -117l-10 -21l-300 -977
q-4 -12 -10 -34q-44 -159 -151 -328q-92 -144 -211 -204q-68 -34 -138 -34t-112 29t-49 57l-8 27l139 104q0 -26 31 -57t93 -31t117 50t93 121q77 148 110 265l15 50l-396 880l-11 22q-61 113 -140 157q-39 22 -74 22q-34 0 -56 -12t-26 -25l-6 -14q0 66 48 121q22 25 73 45
t119 20q168 0 267 -120q24 -28 32 -48l292 -651l175 569l6 21t4 50t-10 62t-46 48t-92 22z" />
    <glyph glyph-name="dotlessi" unicode="&#x131;" horiz-adv-x="1001" 
d="M676 246q0 -120 54 -175t91 -67l17 -6h-639q6 2 17 5t39 19q105 62 105 214v583l-133 -88l-28 51q367 298 384 314q41 40 74 1q18 -22 19 -67v-784z" />
    <glyph glyph-name="Lslash" unicode="&#x141;" horiz-adv-x="1396" 
d="M1290 2v-2h-1184l18 6t43 24q109 71 112 234v176l-201 -207h-158l359 369v799q0 98 -43 165t-86 85l-44 16h693q-7 -2 -19 -6q-12 -3 -42 -23q-111 -72 -111 -237v-440l358 368h158l-516 -530v-711h256q104 0 183 62t118 150q78 179 88 327l4 61h45l-23 -686h-8z" />
    <glyph glyph-name="lslash" unicode="&#x142;" horiz-adv-x="1050" 
d="M707 264q0 -159 111 -234q32 -21 61 -30h-682q115 29 165 153q20 50 21 111v279l-299 -310h-158l457 469v877l-141 -104l-31 53q377 316 395 334q43 44 81 1q19 -22 20 -71v-758l284 295h158l-442 -457v-608z" />
    <glyph glyph-name="OE" unicode="&#x152;" horiz-adv-x="2127" 
d="M410 801q0 -367 116 -553t281 -187q80 0 116 43t46 142v555q0 440 -26 581t-136 142q-135 0 -258 -163q-61 -81 -100 -227t-39 -333zM807 0q-105 0 -195 14t-198 62t-182 129q-75 80 -126 224t-51 340q-1 197 55 349t136 235t188 136t197 69q88 16 176 15h1155l14 -438
h-30q-32 225 -157 316q-52 38 -116 38h-375v-723h150q144 0 194 57q23 25 37 48l16 -333q-1 11 -15 39q-49 105 -226 105h-156v-600h422q63 0 116 39q52 39 92 120t59 183l6 39h30l-16 -463h-1200z" />
    <glyph glyph-name="oe" unicode="&#x153;" horiz-adv-x="1984" 
d="M1446 1024q-92 0 -148 -77t-77 -187q-42 -230 -37 -408l4 -78q0 67 160 149q66 34 132 74t114 103q46 62 46 164t-51 181t-143 79zM637 997q-90 -1 -159 -117q-68 -116 -68 -392t59 -386q59 -112 170 -112t168 135t57 369t-57 368q-57 135 -170 135zM1386 -63
q-229 0 -362 122q-145 -123 -384 -123t-406 132q-83 66 -131 176t-48 247q-1 137 55 249q99 199 331 281q99 36 196 36q240 0 397 -135q156 150 422 149q174 0 302 -62q71 -34 111 -103t40 -156q0 -86 -74 -156t-179 -119q-104 -49 -210 -92t-180 -84t-74 -78q0 -84 78 -139
t176 -55t173 45q120 72 187 214q25 50 25 70l80 -18q-7 -56 -46 -133q-38 -76 -89 -129q-52 -53 -154 -96t-236 -43z" />
    <glyph glyph-name="Scaron" unicode="&#x160;" horiz-adv-x="1562" 
d="M1055 2378h131l-406 -590l-405 590h131l274 -400zM154 1146q0 486 560 486q211 0 377 -88q108 -58 158 0q25 29 33 58l8 30v-563h-63q0 227 -205 381q-172 127 -367 128t-258 -132q-23 -49 -23 -121t45 -129q44 -57 116 -87q160 -67 302 -101q251 -60 396 -177
q160 -127 160 -399q1 -142 -61 -248t-160 -157q-187 -97 -381 -97q-137 0 -290 40t-208 96q-37 30 -52 16t-16 -49l-2 -33h-57v602h82v-65q0 -248 215 -408q176 -131 384 -130t286 140q35 63 35 153t-57 153q-56 61 -145 95t-197 60q-109 26 -217 62q-108 35 -197 88
t-145 154q-56 102 -56 242z" />
    <glyph glyph-name="scaron" unicode="&#x161;" horiz-adv-x="1181" 
d="M864 1962h131l-405 -590l-406 590h131l275 -399zM883 995q48 0 73 74v-405h-47q0 164 -150 262q-149 98 -283 79q-148 -21 -148 -157q0 -60 53 -102t132 -62t171 -53t171 -72t132 -121t53 -188t-76 -176q-135 -125 -354 -123q-96 0 -204 31t-143 59q-58 45 -58 -16
l-2 -23h-43v371h78v-51q0 -134 160 -228t307 -82q143 20 149 135q0 84 -140 129q-62 20 -138 40q-172 46 -290 130q-62 45 -102 125q-39 80 -39 185q0 145 113 220t272 75q160 0 244 -28t109 -28z" />
    <glyph glyph-name="Ydieresis" unicode="&#x178;" horiz-adv-x="1566" 
d="M909 2026q0 70 38 103q38 32 82 33t82 -32q38 -32 38 -100t-60 -103t-120 -3t-60 102zM416 2028q0 76 59 106t119 -2q60 -33 59 -111q-1 -47 -25 -77q-44 -54 -128 -35q-35 8 -60 41q-24 33 -24 78zM948 256q0 -150 105 -224q32 -22 57 -28h-653q105 35 144 144
q17 48 17 108v291l-409 803q-70 140 -157 198q-36 25 -70 25h739q-125 -2 -167 -69t5 -181l340 -645l289 631q37 92 21 172q-7 35 -42 63t-98 29h508q-152 0 -283 -238l-346 -764v-315z" />
    <glyph glyph-name="Zcaron" unicode="&#x17d;" horiz-adv-x="1703" 
d="M1126 2378h131l-405 -590l-406 590h132l274 -400zM547 82h629q80 0 141 69t92 165q61 187 78 360l4 67h57l21 -743h-1471v29q82 0 195 168t210 381t218 440t209 315q65 61 170 133l35 23h-578q-74 0 -121 -50t-59 -122q-27 -161 -12 -268l8 -50h-60l-149 574h1409v-43
q-55 0 -111 -34t-120 -107q-63 -73 -105 -152l-428 -889q-6 -10 -15 -28t-56 -91q-47 -72 -100 -109q-54 -38 -91 -38z" />
    <glyph glyph-name="zcaron" unicode="&#x17e;" horiz-adv-x="1415" 
d="M981 1962h131l-405 -590l-406 590h131l275 -399zM1329 1028q-69 0 -143 -70t-136 -175q-171 -290 -256 -426q-172 -275 -325 -275h426q164 0 242 268q18 61 24 105l6 43h31l-16 -498h-1145q125 0 344 334q92 139 185 278q94 138 192 236t176 98h-434q-64 0 -116 -37
t-80 -89q-53 -99 -71 -193l-6 -37h-28l14 438h1116z" />
    <glyph glyph-name="florin" unicode="&#x192;" horiz-adv-x="983" 
d="M558 1683q106 -1 190 -27t124 -64q86 -80 95 -140l6 -27l-150 -82q0 159 -90 234q-35 29 -86 29t-86 -32q-65 -59 -65 -298v-252h233v-84h-233v-940q0 -286 -61 -443q-61 -158 -171 -236q-143 -103 -366 -101q39 7 92 39q53 33 90 77q38 44 68 132q30 90 30 206v1266
h-149v84h149v233q0 66 5 114q5 47 28 111t60 104q92 97 287 97z" />
    <glyph glyph-name="circumflex" unicode="&#x2c6;" horiz-adv-x="882" 
d="M168 1372h-131l405 590l406 -590h-131l-275 400z" />
    <glyph glyph-name="caron" unicode="&#x2c7;" horiz-adv-x="901" 
d="M725 1962h131l-405 -590l-406 590h131l275 -399z" />
    <glyph glyph-name="breve" unicode="&#x2d8;" horiz-adv-x="792" 
d="M74 2079h100q0 -78 45 -136q21 -28 69 -51q48 -22 114 -22t114 22q47 22 66 52q40 69 36 112v23h111q0 -143 -82 -227q-81 -84 -241 -85q-160 1 -246 83t-86 229z" />
    <glyph glyph-name="dotaccent" unicode="&#x2d9;" horiz-adv-x="423" 
d="M201 1960q111 0 153 -74t-2 -148q-45 -74 -147 -73q-59 0 -99 31q-71 56 -47 159q11 43 49 74t93 31z" />
    <glyph glyph-name="ring" unicode="&#x2da;" horiz-adv-x="405" 
d="M203 1300q61 0 83 42t-3 84t-81 42t-81 -42t-2 -84t84 -42zM201 1516q90 0 128 -66t-2 -132t-129 -65q-89 0 -123 66q-34 65 1 131t125 66z" />
    <glyph glyph-name="ogonek" unicode="&#x2db;" horiz-adv-x="251" 
d="M180 -14v-49q-29 0 -52 -28q-24 -28 -24 -70t35 -55t70 1l37 14v-49q-8 -2 -22 -6q-105 -31 -153 31q-22 27 -22 71t22 73q22 30 44 38l22 8l-2 21h45z" />
    <glyph glyph-name="tilde" unicode="&#x2dc;" horiz-adv-x="1163" 
d="M440 1542q88 0 196 -45t204 -45t142 29t52 53l45 -10q-7 -36 -34 -86t-57 -84q-30 -35 -88 -63q-58 -27 -150 -27q-133 1 -299 82q-110 54 -228 2q-53 -25 -76 -50l-20 -24l-43 14l11 28q7 18 37 61q30 44 65 77q35 32 95 60t148 28z" />
    <glyph glyph-name="hungarumlaut" unicode="&#x2dd;" horiz-adv-x="686" 
d="M399 1403l-61 47l237 362l46 -176zM117 1403l-64 47l238 362l47 -176z" />
    <glyph glyph-name="endash" unicode="&#x2013;" horiz-adv-x="1478" 
d="M1405 823v-245h-1352v245h1352z" />
    <glyph glyph-name="emdash" unicode="&#x2014;" horiz-adv-x="1767" 
d="M1714 823v-223h-1671v223h1671z" />
    <glyph glyph-name="quoteleft" unicode="&#x2018;" horiz-adv-x="559" 
d="M164 1661q0 88 47 136t117 48q106 0 140 -82t-24 -142t-165 -60q1 -66 33 -105t89 -39l-2 -82q-111 -8 -173 77t-62 249z" />
    <glyph glyph-name="quoteright" unicode="&#x2019;" horiz-adv-x="487" 
d="M395 1661q0 -164 -62 -249t-173 -77l-2 82q57 0 90 39t33 105q-143 0 -189 96q-36 76 14 132t124 56t119 -48q46 -48 46 -136z" />
    <glyph glyph-name="quotesinglbase" unicode="&#x201a;" horiz-adv-x="595" 
d="M461 676q-1 -164 -63 -249t-173 -77l-2 82q57 0 90 39t33 104q-143 0 -188 97q-35 76 14 132t123 56t120 -48t46 -136z" />
    <glyph glyph-name="quotedblleft" unicode="&#x201c;" horiz-adv-x="927" 
d="M508 1661q0 88 47 136t117 48q106 0 140 -82t-24 -142t-165 -60q1 -66 33 -105t89 -39l-2 -82q-111 -8 -173 77t-62 249zM135 1661q0 88 47 136t117 48q106 0 140 -82t-23 -142t-164 -60q0 -66 32 -105t89 -39v-82q-111 -8 -175 77t-63 249z" />
    <glyph glyph-name="quotedblright" unicode="&#x201d;" horiz-adv-x="847" 
d="M375 1661q-1 -164 -63 -249t-173 -77l-2 82q57 0 90 39t33 105q-143 0 -188 96q-35 76 14 132t123 56t120 -48t46 -136zM748 1661q0 -164 -62 -249t-174 -77l-2 82q57 0 90 39t33 105q-143 0 -189 96q-34 76 14 132t122 56t121 -48t47 -136z" />
    <glyph glyph-name="quotedblbase" unicode="&#x201e;" horiz-adv-x="882" 
d="M393 655q0 -165 -62 -249t-173 -76l-2 82q57 0 90 39t33 104q-143 0 -189 96q-36 77 14 133t122 56t120 -48q47 -48 47 -137zM766 655q0 -165 -62 -249t-174 -76l-2 82q57 0 90 39t33 104q-143 0 -188 96q-35 76 18 140q43 49 117 49t121 -48t47 -137z" />
    <glyph glyph-name="dagger" unicode="&#x2020;" horiz-adv-x="811" 
d="M487 689q0 -214 -44 -645t-44 -558q0 129 -45 565t-45 601t33 515l10 109h-43q-77 -6 -141 -24t-90 -31l-29 -15v232q92 -57 262 -70h41v16q-12 157 -55 248l-14 33h231q-57 -115 -70 -285v-12h43q147 12 234 55l27 15v-232q-92 57 -263 70h-41q43 -373 43 -587z" />
    <glyph glyph-name="daggerdbl" unicode="&#x2021;" horiz-adv-x="811" 
d="M494 872v-75q0 -213 -35 -359l-10 -51h43q146 12 233 55l27 17v-234q-92 59 -263 72h-40q0 -82 17 -156t34 -108l18 -33h-231q70 111 69 297l-43 -2q-77 -5 -141 -23t-90 -32l-27 -15v234q90 -59 260 -72h41q-43 141 -43 410v75q0 192 33 357l10 51h-43q-77 -6 -141 -24
t-90 -31l-27 -17v234q90 -57 260 -70h41q0 76 -17 150t-36 108l-16 37h231q-70 -127 -69 -295h43q146 12 233 55l27 15v-234q-92 59 -263 72h-40q45 -141 45 -408z" />
    <glyph glyph-name="bullet" unicode="&#x2022;" horiz-adv-x="532" 
d="M260 858q82 0 142 -41q105 -72 71 -216q-13 -58 -73 -99t-142 -41t-134 41t-64 99q-26 144 66 216q52 41 134 41z" />
    <glyph glyph-name="ellipsis" unicode="&#x2026;" horiz-adv-x="1382" 
d="M1145 258q104 0 144 -70t-2 -140t-140 -68q-55 0 -92 28t-45 70q-20 101 47 151q37 29 88 29zM684 258q104 0 144 -70t-2 -140t-140 -68q-55 0 -92 28t-45 70q-20 101 47 151q37 29 88 29zM223 258q105 0 145 -70t-2 -140t-141 -68q-55 0 -92 28t-45 70q-20 101 47 151
q37 29 88 29z" />
    <glyph glyph-name="perthousand" unicode="&#x2030;" horiz-adv-x="2353" 
d="M1718 1776l68 -78l-1819 -1778l-82 80zM1169 10q55 0 97 96q41 96 41 264t-44 258q-44 91 -94 91q-29 0 -59 -35t-52 -117q-24 -82 -24 -222q0 -139 40 -237t95 -98zM1341 730q175 -100 175 -374q0 -397 -346 -397t-345 397q0 102 26 182q27 80 63 122t85 70
q77 44 171 44t171 -44zM500 1651q-29 0 -59 -35q-29 -35 -53 -117t-24 -222q0 -139 40 -237t96 -98t95 97q40 97 40 265t-43 257q-43 90 -92 90zM846 1288q0 -397 -345 -397t-345 397q0 328 239 403q51 15 105 15q113 0 214 -72q58 -41 95 -130t37 -216zM1960 10q55 0 95 98
t40 238q1 140 -23 222t-54 116q-30 35 -58 35q-49 0 -92 -91t-43 -257q0 -165 40 -263t95 -98zM1960 774q41 0 81 -8t89 -36t86 -71q36 -43 62 -121t26 -182q0 -397 -345 -397t-345 397q0 102 26 182t62 122q37 42 86 70t90 36t82 8z" />
    <glyph glyph-name="guilsinglleft" unicode="&#x2039;" horiz-adv-x="937" 
d="M51 802q0 108 66 228t159 212q181 180 351 290l65 41h191q-80 -50 -218 -159q-139 -108 -229 -198t-164 -206t-74 -209q0 -92 70 -209q68 -117 165 -217q206 -212 362 -326l67 -49h-194q-74 48 -198 156q-123 108 -205 198q-81 90 -147 215q-67 125 -67 233z" />
    <glyph glyph-name="guilsinglright" unicode="&#x203a;" horiz-adv-x="946" 
d="M891 788q1 -94 -63 -216t-154 -220q-187 -204 -334 -307l-64 -45h-196q77 52 212 168q134 116 221 208t159 213q72 120 71 212q0 92 -70 206q-71 114 -171 210q-208 199 -371 309l-72 47h191q196 -112 387 -303q254 -254 254 -482z" />
    <glyph glyph-name="fraction" unicode="&#x2044;" horiz-adv-x="802" 
d="M762 1901h129l-875 -2147h-141z" />
    <glyph glyph-name="Euro" unicode="&#x20ac;" horiz-adv-x="1632" 
d="M1542 489v-33q0 -22 -11 -82t-34 -116t-73 -125q-50 -68 -120 -116t-189 -82q-119 -33 -241 -33t-207 16t-177 66t-158 131q-66 80 -113 217t-57 317h-189v82h187v14q0 41 4 107h-191v82h197q18 166 74 294q55 128 126 203q70 75 158 123q146 81 301 84q278 4 391 -56
t161 -60q78 0 114 67l10 23v-594h-69q0 209 -75 356q-49 94 -176 157q-88 42 -286 42q-170 0 -261 -155t-108 -484h793v-82h-795v-121h795v-82h-791q23 -317 137 -478q113 -161 265 -163t264 48t167 128q110 153 110 305h67z" />
    <glyph glyph-name="trademark" unicode="&#x2122;" horiz-adv-x="1361" 
d="M739 1186q0 -66 60 -90h-176q25 8 43 33q18 24 18 57v424q0 27 -21 45q-22 18 -57 18q30 31 94 31t101 -17t47 -36l135 -303l111 323h223q-24 -8 -42 -34q-17 -26 -18 -58v-393q1 -35 15 -58t31 -28l14 -6h-266q59 20 59 92v379l-158 -445q-10 -33 -16 -33q-12 0 -18 23
l-179 412v-336zM403 1186q0 -64 60 -90h-277q6 2 17 6q10 4 26 28t17 56v434h-92q-37 0 -63 -28t-32 -54l-6 -27h-10l4 160h553l6 -160h-10q-7 44 -36 76q-28 33 -64 33h-93v-434z" />
    <glyph glyph-name="minus" unicode="&#x2212;" horiz-adv-x="1396" 
d="M66 776h1273v-231h-1273v231z" />
    <glyph glyph-name="Asmall" unicode="&#xf761;" horiz-adv-x="1548" 
d="M444 428h396l-205 647zM1124 1225q-133 0 -133 -139q0 -32 4 -54l256 -819q82 -213 215 -213h-686q82 0 114 51t24 105l-9 49l-49 153h-436l-47 -157q-22 -129 40 -175q34 -26 91 -26h-426q45 0 86 27q85 56 135 200l232 787q2 8 6 22t6 51t-6 65t-42 50t-89 23h714z" />
    <glyph glyph-name="Bsmall" unicode="&#xf762;" horiz-adv-x="1693" 
d="M813 43q168 0 251 63t83 228t-121 213q-92 37 -219 37h-139v-541h145zM807 1167h-139v-522h145q170 0 252 58t82 219t-120 208q-90 37 -220 37zM1178 610q131 0 231 -76t100 -241t-97 -229t-277 -64h-930q124 41 127 195v835q0 74 -32 122t-62 60l-33 13h901
q168 0 258 -89q90 -88 90 -216t-49 -198t-107 -90q-58 -22 -120 -22z" />
    <glyph glyph-name="Csmall" unicode="&#xf763;" horiz-adv-x="1449" 
d="M1206 1171q49 0 82 66v-438h-117q-1 239 -79 319t-228 80q-115 -6 -221 -152t-106 -421q1 -143 39 -256t100 -175q128 -127 252 -131q156 0 236 113t79 234h72q0 -62 -33 -145t-83 -140t-161 -105t-251 -47q-141 0 -249 34q-393 123 -395 605q0 150 46 268t115 188
t158 114q150 76 289 77q218 2 385 -65q54 -23 70 -23z" />
    <glyph glyph-name="Dsmall" unicode="&#xf764;" horiz-adv-x="1671" 
d="M668 47q233 0 363 137t130 467q0 133 -36 233t-87 155q-128 135 -370 139v-1131zM932 1227q106 0 206 -41q230 -95 332 -307q57 -119 58 -258q0 -279 -175 -450t-413 -171h-735q124 41 127 195v835q0 74 -32 122t-62 60l-33 13q621 2 727 2z" />
    <glyph glyph-name="Esmall" unicode="&#xf765;" 
d="M332 1030q0 72 -32 120t-62 62l-33 13h1063l12 -340h-43q-2 10 -5 29q-24 149 -118 218q-41 30 -90 29h-354v-565h178q110 0 151 42t41 71l2 14l-1 -303q-5 38 -31 62q-57 50 -158 50h-182v-469h391q80 0 132 74t64 150l15 73h45l-12 -360h-1100q124 41 127 195v835z" />
    <glyph glyph-name="Fsmall" unicode="&#xf766;" horiz-adv-x="1435" 
d="M668 1161v-563h188q74 0 122 32t60 62l13 33v-317q-2 4 -5 13q-21 63 -103 97q-36 14 -81 14h-194v-337q0 -118 80 -173q22 -16 45 -22h-588q124 41 127 195v837q0 90 -42 134t-85 59h1085l13 -340h-60q-2 10 -5 29q-3 18 -18 66t-37 85t-63 67t-90 29h-362z" />
    <glyph glyph-name="Gsmall" unicode="&#xf767;" horiz-adv-x="1511" 
d="M1269 1167q44 0 83 70v-461h-111q0 226 -102 322q-101 96 -251 96t-254 -139t-106 -436q0 -297 92 -445t222 -154q143 0 224 56t81 213q0 266 -236 266h-157v68h620v-641q-7 56 -35 99q-27 42 -55 42t-68 -25q-38 -24 -80 -54t-130 -54t-204 -25q-246 0 -437 129
q-100 68 -161 196q-60 128 -60 292t42 282q43 118 110 192q184 201 511 201q202 0 382 -67q58 -23 80 -23z" />
    <glyph glyph-name="Hsmall" unicode="&#xf768;" horiz-adv-x="1865" 
d="M1536 195q0 -118 80 -173q21 -15 45 -22h-590q82 28 114 113q13 37 13 82v325h-539v-330q0 -72 32 -118t63 -60l32 -12h-579q4 2 13 5t31 17q78 52 81 173v835q0 74 -32 122t-62 60l-33 13h581q-4 -2 -13 -5q-67 -22 -98 -103q-13 -36 -16 -81v-438h539v432q0 74 -32 122
t-64 60l-31 13h590q-4 -2 -13 -5q-68 -23 -99 -107q-13 -38 -13 -83v-835z" />
    <glyph glyph-name="Ismall" unicode="&#xf769;" horiz-adv-x="989" 
d="M657 195q0 -117 82 -173q21 -15 45 -22h-579q124 41 127 195v835q0 74 -32 122t-62 60l-33 13h579q-124 -41 -127 -195v-835z" />
    <glyph glyph-name="Jsmall" unicode="&#xf76a;" horiz-adv-x="1075" 
d="M756 1032v-733q0 -128 -61 -218q-72 -106 -279 -106q-94 0 -162 27t-96 66q-54 77 -56 143l2 27l140 -17q-2 -8 -5 -19q-27 -99 27 -142q25 -19 69 -19q43 0 65 28q22 27 25 55t3 60v848q0 72 -38 120t-75 60l-39 13h605q-3 -2 -13 -5q-66 -21 -99 -106q-13 -37 -13 -82z
" />
    <glyph glyph-name="Ksmall" unicode="&#xf76b;" horiz-adv-x="1681" 
d="M657 197q0 -91 44 -138t83 -59h-579q124 41 127 197v833q0 74 -32 122t-62 60l-33 13h579q-124 -41 -127 -195v-608l439 594q13 17 30 63q18 45 20 73t-21 50q-22 22 -70 23h440q-134 0 -295 -187q-37 -43 -57 -71l-19 -31l-166 -225q86 0 165 -115q79 -114 149 -264
t115 -194t93 -61t72 -11l27 4q-5 -14 -30 -44q-78 -95 -186 -97q-107 -1 -174 35t-109 99t-76 133q-100 207 -199 306l-148 -199v-106z" />
    <glyph glyph-name="Lsmall" unicode="&#xf76c;" horiz-adv-x="1302" 
d="M332 1030q0 74 -32 122t-62 60l-33 13h579q-124 -41 -127 -195v-952h201q78 0 135 55t85 133q58 161 65 291l4 55h74l-17 -612h-999q124 41 127 195v835z" />
    <glyph glyph-name="Msmall" unicode="&#xf76d;" horiz-adv-x="2041" 
d="M1708 225q0 -72 33 -128t65 -77l31 -20h-586q16 5 52 39q36 33 57 87q20 54 20 99v885l-379 -1055q-25 -68 -43 -67q-15 0 -43 65l-426 938v-766q0 -91 46 -149q38 -53 71 -68l12 -8h-337q14 5 41 29q85 76 88 196v871q0 57 -65 96t-140 39q68 65 213 65t236 -76
t116 -126l14 -23l287 -575l270 729h496q-14 -7 -36 -23q-21 -16 -57 -74t-36 -133v-770z" />
    <glyph glyph-name="Nsmall" unicode="&#xf76e;" horiz-adv-x="1615" 
d="M1284 1030v-962q45 -37 109 -37v-43h-136q-155 0 -277 70t-197 174q-148 207 -231 489t-136 338v-864q0 -74 32 -122t64 -61l31 -12h-338q11 0 39 15q84 46 86 180v925q-15 31 -47 51q-31 20 -68 21v51h68q153 0 275 -49t201 -132t139 -184t100 -212t72 -207
q80 -239 138 -299v870q0 74 -31 122q-32 48 -63 60l-33 13h330q-4 -2 -13 -5q-68 -23 -99 -107q-13 -38 -13 -83h-2z" />
    <glyph glyph-name="Osmall" unicode="&#xf76f;" horiz-adv-x="1648" 
d="M518 629q0 -299 89 -445t217 -147q128 0 216 146t88 446q0 151 -30 265t-77 174q-93 118 -197 118q-103 0 -198 -118q-48 -60 -78 -174t-30 -265zM816 1260q62 0 124 -10q183 -31 276 -94q93 -62 154 -131t98 -179t37 -256t-50 -264t-123 -185q-73 -66 -197 -116
t-309 -51q-185 -2 -312 50t-199 118t-121 184q-50 120 -50 278t53 283t130 193t176 110t175 56t138 14z" />
    <glyph glyph-name="Psmall" unicode="&#xf770;" horiz-adv-x="1515" 
d="M735 444q170 0 256 109t86 278t-93 255t-185 88h-142v-730h78zM332 1028q0 113 -82 173q-18 13 -45 22h751q113 0 203 -39q89 -39 137 -83t83 -120q34 -75 34 -181t-43 -192q-73 -147 -267 -199q-79 -22 -165 -22h-281v-194q0 -74 32 -122t65 -61l30 -12h-579
q124 41 127 195v835z" />
    <glyph glyph-name="Qsmall" unicode="&#xf771;" horiz-adv-x="1646" 
d="M655 172q-12 0 -37 -6q76 -123 195 -129q-45 67 -81 101t-77 34zM823 1186q-51 0 -100 -29t-97 -89t-78 -174t-30 -265q0 -293 92 -453q45 55 113 55q100 0 248 -135q158 139 157 533q0 407 -204 528q-50 29 -101 29zM1503 608q0 -300 -152 -438q-73 -66 -137 -100
t-149 -60q105 -96 163 -96t89 11t37 22l6 12l-5 -20q-3 -12 -19 -45q-62 -125 -228 -125q-70 0 -130 54t-126 152l-29 -2q-182 -1 -309 51t-199 118t-121 184q-50 120 -50 278t53 283t130 193t204 122q127 55 290 57q162 1 323 -69q99 -43 176 -111q77 -69 130 -193t53 -278
z" />
    <glyph glyph-name="Rsmall" unicode="&#xf772;" horiz-adv-x="1605" 
d="M725 492q190 0 261 86t71 266t-83 257t-181 77h-136v-686h68zM1202 -12q-92 0 -152 46t-90 112t-61 134q-31 66 -90 112t-152 46v-243q0 -74 32 -122t65 -61l30 -12h-579q124 41 127 195v835q0 74 -32 122t-62 60l-33 13h745q136 0 268 -82q70 -43 112 -128t42 -200
q0 -377 -487 -377q106 0 181 -28t109 -67q35 -40 59 -88t37 -88t41 -68q50 -50 138 -13q12 -25 18 -47q4 -4 5 -8q-72 -43 -271 -43z" />
    <glyph glyph-name="Ssmall" unicode="&#xf773;" horiz-adv-x="1392" 
d="M476 1242q78 18 208 18t292 -66q54 -23 84 -23t49 23t26 43l6 23v-426h-80q0 182 -184 288q-154 90 -311 71t-179 -130q-2 -14 -2 -31q0 -55 36 -93t95 -55q143 -41 257 -62t190 -55t135 -80t95 -131q36 -86 36 -188t-40 -172t-98 -111q-156 -108 -393 -112
q-110 0 -244 30t-178 71q-45 47 -51 -45v-29h-43v481h92v-51q0 -199 193 -307q160 -93 330 -69q203 28 209 188q0 61 -62 103q-62 43 -156 63t-204 55t-202 78q-93 43 -156 134q-62 91 -62 205t44 190q44 75 117 114q73 40 151 58z" />
    <glyph glyph-name="Tsmall" unicode="&#xf774;" horiz-adv-x="1382" 
d="M1024 1147h-168v-952q0 -118 80 -173q21 -15 45 -22h-580q3 2 13 5t32 17q80 54 80 173v952h-168q-80 0 -132 -88t-66 -178l-13 -88h-65l12 432h1194l12 -432h-65q-2 13 -5 37t-19 85q-15 61 -35 109t-62 85q-42 38 -90 38z" />
    <glyph glyph-name="Usmall" unicode="&#xf775;" horiz-adv-x="1605" 
d="M1333 522q0 -223 -41 -323q-94 -229 -471 -230q-146 0 -271 45q-72 26 -155 119q-36 41 -61 142t-25 169v588q0 93 -43 137t-82 56h578q-12 1 -39 -15q-86 -49 -86 -163v-480q0 -310 64 -414t207 -104q142 0 218 59q119 84 119 388v536q0 72 -32 120t-62 60l-33 13h340
q-4 -2 -13 -5q-69 -23 -98 -106q-13 -37 -14 -82v-510z" />
    <glyph glyph-name="Vsmall" unicode="&#xf776;" horiz-adv-x="1400" 
d="M995 1225h406q-68 1 -127 -61t-86 -124l-25 -61l-342 -934q-6 -36 -43 -69q-37 -34 -76 -34q-38 0 -66 26q-28 24 -38 48l-8 27l-352 936q-4 11 -10 27q-51 130 -145 192q-40 27 -83 27h676q-49 1 -78 -19t-37 -64t6 -85l271 -740l256 709q2 8 6 22q32 108 -29 155
q-27 22 -76 22z" />
    <glyph glyph-name="Wsmall" unicode="&#xf777;" horiz-adv-x="2142" 
d="M688 1225q-127 0 -117 -138q2 -27 11 -51l241 -714l250 770q6 32 31 59q26 27 54 27t50 -22t27 -42l321 -823l259 743q19 77 8 113q-25 78 -117 78h436q-116 0 -213 -159q-23 -36 -33 -62l-335 -957q-14 -41 -47 -77q-34 -36 -68 -36t-62 29q-29 29 -41 57l-14 27
l-274 668l-228 -668q-55 -110 -145 -113q-39 0 -70 29t-43 57l-364 1039q-92 166 -205 166h688z" />
    <glyph glyph-name="Xsmall" unicode="&#xf778;" horiz-adv-x="1447" 
d="M1386 43v-63q-204 2 -284 -1t-171 47t-155 122q-120 139 -186 287q-25 56 -25 71l-168 -299q-12 -25 -18 -67t0 -68t36 -50q30 -22 85 -22h-439q61 0 129 70t115 147l223 375q-18 75 -66 191t-94 195t-117 142t-142 64v49h208q101 0 197 -46t158 -113q62 -68 110 -138
q47 -70 69 -119t21 -63l166 266q32 65 20 124q-16 78 -138 81h466q-133 0 -264 -213l-202 -332q4 -12 11 -36q45 -154 120 -288q75 -135 119 -188t102 -89t114 -36z" />
    <glyph glyph-name="Ysmall" unicode="&#xf779;" horiz-adv-x="1474" 
d="M909 197q0 -91 42 -137t85 -60h-592q22 7 44 22q83 56 83 175v227l-331 627q-35 70 -86 122t-93 52h648q-96 -3 -130 -53t3 -142l276 -504l240 492q10 20 16 64q6 46 0 72t-34 48t-76 23h409q-121 -1 -221 -185l-283 -598v-245z" />
    <glyph glyph-name="Zsmall" unicode="&#xf77a;" horiz-adv-x="1456" 
d="M555 78h487q61 0 110 54q48 54 72 131q48 154 58 286l4 55h62l16 -604h-1272v47q63 0 151 127q87 127 163 288q217 460 333 576q49 49 133 97l27 14h-446q-57 0 -95 -39t-46 -95q-19 -115 -9 -208l6 -39h-63l-117 459h1227v-58q-68 0 -136 -58t-104 -116l-35 -59
l-321 -664q-12 -22 -32 -54t-74 -86t-99 -54z" />
    <glyph glyph-name="Agravesmall" unicode="&#xf7e0;" horiz-adv-x="1548" 
d="M797 1368l-60 -45q0 74 -51 129t-104 74l-52 18l41 166q25 -6 71 -38t76 -68t54 -98t25 -138zM444 428h396l-205 647zM1124 1225q-133 0 -133 -139q0 -32 4 -54l256 -819q82 -213 215 -213h-686q82 0 114 51t24 105l-9 49l-49 153h-436l-47 -157q-22 -129 40 -175
q34 -26 91 -26h-426q45 0 86 27q85 56 135 200l232 787q2 8 6 22t6 51t-6 65t-42 50t-89 23h714z" />
    <glyph glyph-name="Aacutesmall" unicode="&#xf7e1;" horiz-adv-x="1548" 
d="M625 1368q0 147 76 231t126 101l23 10l43 -166q-130 -33 -186 -134q-23 -40 -23 -87zM444 428h396l-205 647zM1124 1225q-133 0 -133 -139q0 -32 4 -54l256 -819q82 -213 215 -213h-686q82 0 114 51t24 105l-9 49l-49 153h-436l-47 -157q-22 -129 40 -175q34 -26 91 -26
h-426q45 0 86 27q85 56 135 200l232 787q2 8 6 22t6 51t-6 65t-42 50t-89 23h714z" />
    <glyph glyph-name="Acircumflexsmall" unicode="&#xf7e2;" horiz-adv-x="1548" 
d="M492 1372h-132l406 590l405 -590h-131l-274 400zM444 428h396l-205 647zM1124 1225q-133 0 -133 -139q0 -32 4 -54l256 -819q82 -213 215 -213h-686q82 0 114 51t24 105l-9 49l-49 153h-436l-47 -157q-22 -129 40 -175q34 -26 91 -26h-426q45 0 86 27q85 56 135 200
l232 787q2 8 6 22t6 51t-6 65t-42 50t-89 23h714z" />
    <glyph glyph-name="Adieresissmall" unicode="&#xf7e4;" horiz-adv-x="1548" 
d="M891 1600q0 70 38 103q38 32 82 33t82 -32q37 -32 37 -100t-59 -103t-120 -3q-60 32 -60 102zM397 1602q-1 76 59 106t119 -2q59 -33 60 -111q0 -47 -25 -77q-26 -30 -60 -37q-86 -15 -128 43q-25 33 -25 78zM444 428h396l-205 647zM1124 1225q-133 0 -133 -139
q0 -32 4 -54l256 -819q82 -213 215 -213h-686q82 0 114 51t24 105l-9 49l-49 153h-436l-47 -157q-22 -129 40 -175q34 -26 91 -26h-426q45 0 86 27q85 56 135 200l232 787q2 8 6 22t6 51t-6 65t-42 50t-89 23h714z" />
    <glyph glyph-name="Aringsmall" unicode="&#xf7e5;" horiz-adv-x="1587" 
d="M786 1300q61 0 83 42t-3 84t-81 42q-57 0 -81 -42t-2 -84t84 -42zM784 1516q90 0 128 -66t-2 -132t-129 -65q-89 0 -123 66q-34 65 1 131t125 66zM461 428h395l-205 647zM1141 1225q-133 0 -133 -139q0 -32 4 -54l256 -819q82 -213 215 -213h-686q81 0 113 51t24 105
l-8 49l-49 153h-437l-47 -157q-22 -129 40 -175q34 -26 91 -26h-426q45 0 86 27t78 81t57 119l232 787q2 8 6 22t6 51t-6 65t-42 50t-89 23h715z" />
    <glyph glyph-name="Egravesmall" unicode="&#xf7e8;" 
d="M825 1368l-59 -45q0 74 -51 129t-105 74l-51 18l41 166q25 -6 71 -38q45 -32 75 -68t54 -98t25 -138zM332 1030q0 72 -32 120t-62 62l-33 13h1063l12 -340h-43q-2 10 -5 29q-24 149 -118 218q-41 30 -90 29h-354v-565h178q110 0 151 42t41 71l2 14l-1 -303q-5 38 -31 62
q-57 50 -158 50h-182v-469h391q80 0 132 74t64 150l15 73h45l-12 -360h-1100q124 41 127 195v835z" />
    <glyph glyph-name="Eacutesmall" unicode="&#xf7e9;" 
d="M719 1368q0 147 76 232q76 84 127 100l22 10l43 -166q-23 -6 -66 -26q-82 -40 -120 -108q-23 -40 -23 -87zM332 1030q0 72 -32 120t-62 62l-33 13h1063l12 -340h-43q-2 10 -5 29q-24 149 -118 218q-41 30 -90 29h-354v-565h178q110 0 151 42t41 71l2 14l-1 -303
q-5 38 -31 62q-57 50 -158 50h-182v-469h391q80 0 132 74t64 150l15 73h45l-12 -360h-1100q124 41 127 195v835z" />
    <glyph glyph-name="Ecircumflexsmall" unicode="&#xf7ea;" 
d="M518 1372h-131l406 590l405 -590h-131l-274 400zM332 1030q0 72 -32 120t-62 62l-33 13h1063l12 -340h-43q-2 10 -5 29q-24 149 -118 218q-41 30 -90 29h-354v-565h178q110 0 151 42t41 71l2 14l-1 -303q-5 38 -31 62q-57 50 -158 50h-182v-469h391q80 0 132 74t64 150
l15 73h45l-12 -360h-1100q124 41 127 195v835z" />
    <glyph glyph-name="Edieresissmall" unicode="&#xf7eb;" 
d="M872 1600q0 70 38 103q38 32 82 33t82 -32q38 -32 38 -100t-60 -103t-120 -3t-60 102zM379 1602q0 76 59 106q58 30 118 -2q60 -33 60 -111q0 -47 -24 -77q-44 -54 -129 -35q-35 8 -60 41q-24 33 -24 78zM332 1030q0 72 -32 120t-62 62l-33 13h1063l12 -340h-43
q-2 10 -5 29q-24 149 -118 218q-41 30 -90 29h-354v-565h178q110 0 151 42t41 71l2 14l-1 -303q-5 38 -31 62q-57 50 -158 50h-182v-469h391q80 0 132 74t64 150l15 73h45l-12 -360h-1100q124 41 127 195v835z" />
    <glyph glyph-name="Igravesmall" unicode="&#xf7ec;" horiz-adv-x="989" 
d="M553 1368l-59 -45q0 74 -52 129t-104 74l-51 18l41 166q23 -6 70 -38q46 -32 76 -68t54 -98t25 -138zM657 195q0 -117 82 -173q21 -15 45 -22h-579q124 41 127 195v835q0 74 -32 122t-62 60l-33 13h579q-124 -41 -127 -195v-835z" />
    <glyph glyph-name="Iacutesmall" unicode="&#xf7ed;" horiz-adv-x="989" 
d="M455 1368q0 147 75 231q75 83 125 101l25 10l43 -166q-130 -33 -186 -134q-23 -40 -23 -87zM657 195q0 -117 82 -173q21 -15 45 -22h-579q124 41 127 195v835q0 74 -32 122t-62 60l-33 13h579q-124 -41 -127 -195v-835z" />
    <glyph glyph-name="Icircumflexsmall" unicode="&#xf7ee;" horiz-adv-x="1220" 
d="M336 1372h-131l405 590l406 -590h-131l-275 400zM778 195q0 -117 82 -173q18 -13 45 -22h-579q124 41 127 195v835q0 74 -32 122t-65 60l-30 13h579q-124 -41 -127 -195v-835z" />
    <glyph glyph-name="Idieresissmall" unicode="&#xf7ef;" horiz-adv-x="901" 
d="M549 1600q0 70 38 103q38 32 82 33t82 -32q37 -32 37 -100t-59 -103t-120 -3q-60 32 -60 102zM55 1602q-1 76 59 106t119 -2q59 -33 60 -111q0 -47 -25 -77q-26 -30 -60 -37q-86 -15 -128 43q-25 33 -25 78zM719 1225q-127 -42 -127 -195v-835q0 -117 82 -173
q21 -15 45 -22h-580q22 7 44 22q83 56 83 173v835q0 74 -32 122t-62 60l-33 13h580z" />
    <glyph glyph-name="Ntildesmall" unicode="&#xf7f1;" horiz-adv-x="1615" 
d="M1284 1030v-962q45 -37 109 -37v-43h-136q-155 0 -277 70t-197 174q-148 207 -231 489t-136 338v-864q0 -74 32 -122t64 -61l31 -12h-338q11 0 39 15q84 46 86 180v925q-15 31 -47 51q-31 20 -68 21v51h68q153 0 275 -49t201 -132t139 -184t100 -212t72 -207
q80 -239 138 -299v870q0 74 -31 122q-32 48 -63 60l-33 13h330q-4 -2 -13 -5q-68 -23 -99 -107q-13 -38 -13 -83h-2zM1075 1509q162 0 203 82l45 -10q-7 -35 -34 -85t-57 -85t-88 -63t-150 -27q-92 0 -168 28q-77 29 -132 55t-114 26q-58 0 -112 -25t-75 -49l-22 -25l-43 15
q64 160 208 226q142 67 344 -18q108 -45 195 -45z" />
    <glyph glyph-name="Ogravesmall" unicode="&#xf7f2;" horiz-adv-x="1648" 
d="M862 1368l-59 -45q0 74 -51 129t-105 74l-51 18l41 166q23 -6 70 -38t77 -68t54 -98t24 -138zM518 629q0 -299 89 -445t217 -147q128 0 216 146t88 446q0 151 -30 265t-77 174q-93 118 -197 118q-103 0 -198 -118q-48 -60 -78 -174t-30 -265zM816 1260q62 0 124 -10
q183 -31 276 -94q93 -62 154 -131t98 -179t37 -256t-50 -264t-123 -185q-73 -66 -197 -116t-309 -51q-185 -2 -312 50t-199 118t-121 184q-50 120 -50 278t53 283t130 193t176 110t175 56t138 14z" />
    <glyph glyph-name="Oacutesmall" unicode="&#xf7f3;" horiz-adv-x="1648" 
d="M801 1368q0 147 76 232q76 84 127 100l22 10l43 -166q-23 -6 -66 -26q-82 -40 -120 -108q-23 -40 -23 -87zM518 629q0 -299 89 -445t217 -147q128 0 216 146t88 446q0 151 -30 265t-77 174q-93 118 -197 118q-103 0 -198 -118q-48 -60 -78 -174t-30 -265zM816 1260
q62 0 124 -10q183 -31 276 -94q93 -62 154 -131t98 -179t37 -256t-50 -264t-123 -185q-73 -66 -197 -116t-309 -51q-185 -2 -312 50t-199 118t-121 184q-50 120 -50 278t53 283t130 193t176 110t175 56t138 14z" />
    <glyph glyph-name="Ocircumflexsmall" unicode="&#xf7f4;" horiz-adv-x="1648" 
d="M547 1372h-131l405 590l406 -590h-131l-275 400zM518 629q0 -299 89 -445t217 -147q128 0 216 146t88 446q0 151 -30 265t-77 174q-93 118 -197 118q-103 0 -198 -118q-48 -60 -78 -174t-30 -265zM816 1260q62 0 124 -10q183 -31 276 -94q93 -62 154 -131t98 -179
t37 -256t-50 -264t-123 -185q-73 -66 -197 -116t-309 -51q-185 -2 -312 50t-199 118t-121 184q-50 120 -50 278t53 283t130 193t176 110t175 56t138 14z" />
    <glyph glyph-name="Odieresissmall" unicode="&#xf7f6;" horiz-adv-x="1648" 
d="M948 1610q0 80 60 112t120 -1t60 -109t-60 -111t-120 -3t-60 112zM455 1602q0 76 59 106q58 30 118 -2q60 -33 60 -111q0 -47 -24 -77q-44 -54 -129 -35q-35 8 -60 41q-24 33 -24 78zM518 629q0 -299 89 -445t217 -147q128 0 216 146t88 446q0 151 -30 265t-77 174
q-93 118 -197 118q-103 0 -198 -118q-48 -60 -78 -174t-30 -265zM816 1260q62 0 124 -10q183 -31 276 -94q93 -62 154 -131t98 -179t37 -256t-50 -264t-123 -185q-73 -66 -197 -116t-309 -51q-185 -2 -312 50t-199 118t-121 184q-50 120 -50 278t53 283t130 193t176 110
t175 56t138 14z" />
    <glyph glyph-name="Ugravesmall" unicode="&#xf7f9;" horiz-adv-x="1626" 
d="M995 1368l-59 -45q0 74 -51 129t-103 74l-53 18l41 166q25 -6 71 -38q45 -32 75 -68t54 -98t25 -138zM1354 1032v-510q0 -223 -41 -323q-94 -229 -471 -230q-147 0 -272 45q-75 27 -154 119q-31 36 -59 138q-27 101 -27 171v590q0 74 -32 122t-62 58l-31 13h577
q-12 1 -39 -15t-43 -33q-41 -43 -43 -130v-480q0 -309 65 -413q65 -105 196 -105q233 0 297 139q51 109 51 266v578q0 72 -32 120t-63 60l-32 13h340q-3 -2 -13 -5q-66 -21 -99 -106q-13 -37 -13 -82z" />
    <glyph glyph-name="Uacutesmall" unicode="&#xf7fa;" horiz-adv-x="1626" 
d="M895 1368q0 144 80 237q72 79 123 95l22 10l43 -166q-24 -6 -66 -26q-83 -41 -120 -108q-23 -40 -23 -87zM1354 1032v-510q0 -223 -41 -323q-94 -229 -471 -230q-147 0 -272 45q-75 27 -154 119q-31 36 -59 138q-27 101 -27 171v590q0 74 -32 122t-62 58l-31 13h577
q-12 1 -39 -15t-43 -33q-41 -43 -43 -130v-480q0 -309 65 -413q65 -105 196 -105q233 0 297 139q51 109 51 266v578q0 72 -32 120t-63 60l-32 13h340q-3 -2 -13 -5q-66 -21 -99 -106q-13 -37 -13 -82z" />
    <glyph glyph-name="Ucircumflexsmall" unicode="&#xf7fb;" horiz-adv-x="1626" 
d="M592 1372h-131l405 590l406 -590h-131l-275 400zM1354 1032v-510q0 -223 -41 -323q-94 -229 -471 -230q-147 0 -272 45q-75 27 -154 119q-31 36 -59 138q-27 101 -27 171v590q0 74 -32 122t-62 58l-31 13h577q-12 1 -39 -15t-43 -33q-41 -43 -43 -130v-480
q0 -309 65 -413q65 -105 196 -105q233 0 297 139q51 109 51 266v578q0 72 -32 120t-63 60l-32 13h340q-3 -2 -13 -5q-66 -21 -99 -106q-13 -37 -13 -82z" />
    <glyph glyph-name="Udieresissmall" unicode="&#xf7fc;" horiz-adv-x="1626" 
d="M979 1600q0 70 38 103q38 32 82 33t82 -32q38 -32 38 -100q-1 -68 -61 -103t-120 -3q-59 32 -59 102zM485 1602q-1 76 59 106t120 -2q60 -33 59 -111q0 -47 -25 -77q-26 -30 -60 -37q-86 -15 -128 43q-25 33 -25 78zM1354 1032v-510q0 -223 -41 -323q-94 -229 -471 -230
q-147 0 -272 45q-75 27 -154 119q-31 36 -59 138q-27 101 -27 171v590q0 74 -32 122t-62 58l-31 13h577q-12 1 -39 -15t-43 -33q-41 -43 -43 -130v-480q0 -309 65 -413q65 -105 196 -105q233 0 297 139q51 109 51 266v578q0 72 -32 120t-63 60l-32 13h340q-3 -2 -13 -5
q-66 -21 -99 -106q-13 -37 -13 -82z" />
    <glyph glyph-name="fi" unicode="&#xfb01;" horiz-adv-x="1650" 
d="M1407 1036v-786q0 -121 55 -179q55 -59 107 -71h-641q6 2 17 5t39 19t50 40q55 57 56 174v585l-136 -86l-28 49q369 300 386 316q42 40 77 1q18 -22 18 -67zM946 1798q-139 0 -239 -124t-101 -376v-272h234v-82h-234v-694q0 -94 41 -156t82 -80l39 -16h-641
q105 35 144 144q17 48 18 108v694h-150v82h150v207q0 270 183 449t448 180q510 0 510 -316q0 -112 -83 -156t-166 -2t-83 134q0 18 1 59t0 56l-3 45q-2 30 -9 41q-6 11 -16 31q-23 44 -125 44z" />
    <glyph glyph-name="fl" unicode="&#xfb02;" horiz-adv-x="1615" 
d="M1065 250v1098q0 287 -61 353q-62 65 -195 50q-68 -6 -117 -44t-75 -85q-60 -108 -60 -360v-236h234v-82h-234v-694q0 -94 41 -156t82 -80l39 -16h-641q105 35 144 144q17 48 18 108v694h-150v82h150v236q0 146 72 269q140 243 536 296q80 10 148 10q179 0 274 -74
q73 -54 92 -181q8 -53 8 -144v-1188q0 -92 41 -154t82 -80l41 -16h-643q174 58 174 250z" />
    <glyph glyph-name="a.alt1" horiz-adv-x="1335" 
d="M1690 1667q146 0 264 -53t190 -119q72 -67 123 -185t51 -272q0 -258 -102 -467q-191 -392 -680 -542q-225 -70 -481 -70q-276 0 -277 227q-8 -94 -105 -156t-255 -62t-235 82t-77 188t71 180t172 108t203 57q102 25 172 57q71 32 71 80q0 160 -51 218q-51 57 -142 57
q-166 0 -197 -85q-30 -85 -16 -146l8 -27l-223 11q7 49 37 111q31 63 72 107t125 80t210 36t228 -36t156 -96t84 -137q30 -78 33 -164t-2 -171t-13 -163t-7 -137q2 -131 89 -131q404 0 673 215q138 112 217 304q78 192 78 440t-136 422t-335 176q-199 0 -287 -98t-87 -267
q0 -96 47 -166q46 -69 114 -99q133 -58 250 -61h47l-92 -190q-17 0 -79 15q-289 70 -367 280q-27 70 -27 151q0 231 144 365t344 133zM434 281q0 -89 34 -142t82 -63t97 5t85 67t38 118t12 202q10 134 11 171q-3 -59 -180 -119q-67 -22 -123 -86t-56 -153z" />
    <glyph glyph-name="b.alt1" horiz-adv-x="1331" 
d="M672 12q109 0 189 78q99 97 98 389t-83 398t-164 106q-81 0 -131 -38q-45 -31 -67 -71l-12 -555q0 -121 42 -214t128 -93zM774 1047q473 0 473 -527q0 -64 -8 -124t-43 -143t-93 -143t-170 -104q-113 -44 -239 -43q-320 0 -430 128q-37 44 -54 77q-38 74 -38 244v983
q0 125 15 223t61 198t123 166q75 66 203 107t322 41t656 -86t662 -86q397 0 662 144q140 77 222 219q81 142 80 339q0 285 -215 432q-173 118 -375 90t-284 -176q-41 -72 -41 -165l-262 79q0 240 225 359q211 113 499 63t453 -254q139 -168 140 -399q0 -290 -119 -467
q-47 -70 -133 -140q-276 -223 -883 -220q-327 0 -677 72q-351 72 -489 80q-270 14 -376 -111q-119 -143 -119 -508q-6 -295 -6 -434q33 33 107 59q74 27 151 27z" />
    <glyph glyph-name="b.alt2" horiz-adv-x="1304" 
d="M518 103q43 -93 130 -93t140 38q54 38 81 87q63 110 64 366q1 255 -76 369t-179 115q-58 0 -106 -28t-66 -54l-19 -26l-12 -558q0 -123 43 -216zM498 1458q203 0 350 115t147 333t-149 318q-111 78 -225 35q-115 -62 -123 -201v-600zM748 1049q475 0 475 -529
q-1 -138 -45 -245t-102 -167t-170 -104t-238 -43q-220 0 -340 59q-85 42 -143 145q-35 66 -35 243v983q-131 0 -244 39q-114 39 -180 93q-133 108 -179 203l-18 39l209 93q6 -16 16 -43t48 -96t81 -122t116 -96t151 -43q-2 100 -2 220t31 233q32 113 81 181q105 146 223 191
q119 44 201 52h31q199 0 332 -116q133 -117 133 -317t-204 -354t-478 -153q-8 -293 -9 -432q33 33 107 59q74 27 152 27z" />
    <glyph glyph-name="b.alt3" horiz-adv-x="1312" 
d="M477 322q0 -119 44 -213t128 -95q291 0 291 465q0 279 -79 393t-179 113q-57 0 -105 -28t-67 -54l-18 -26q0 -135 -8 -334t-7 -221zM-1333 1898q-1 -147 71 -260q129 -204 438 -249t587 73q135 58 235 154t221 107t201 -59t80 -187q0 -19 -3 -227t-3 -287q10 10 28 24
t86 38t146 24q477 0 477 -527q0 -141 -44 -246q-45 -104 -103 -164t-171 -104t-241 -43q-322 0 -432 128q-37 44 -55 76q-38 72 -38 243v1005q0 111 -42 134t-95 -25q-108 -104 -262 -166t-312 -72t-318 26t-282 110t-199 195q-77 123 -77 283q0 335 215 573
q232 255 765 255q288 0 630 -68t636 -162t588 -190t638 -164t691 -68t552 79q205 78 272 180q73 106 76 199t-10 139l-9 22l238 45q12 -31 21 -89q8 -58 4 -109t-29 -120t-71 -128q-46 -58 -136 -118q-302 -199 -928 -200q-437 0 -1104 152q-281 63 -781 186t-945 194
q-534 84 -863 -36q-165 -60 -254 -204t-89 -372z" />
    <glyph glyph-name="d.alt1" horiz-adv-x="1300" 
d="M651 10q84 0 125 92t41 202t-12 564q-61 109 -184 109q-88 0 -169 -107t-80 -398q1 -290 96 -385q77 -77 183 -77zM1137 1452q197 0 341 114t144 330q0 217 -145 318q-109 76 -220 35q-115 -61 -120 -201v-596zM1350 2322q192 0 322 -116t130 -313t-200 -351t-465 -153
v-981q0 -171 -36 -243q-17 -34 -53 -77q-106 -127 -420 -127q-122 0 -231 43t-166 102q-57 58 -91 142t-42 144t-8 124q0 524 461 524q172 0 252 -84q-4 147 -4 428q-127 0 -237 39t-174 93q-128 108 -175 204l-16 39l202 92q5 -16 15 -43q10 -28 47 -96t79 -121t112 -96
t145 -43v199q0 279 105 429t227 194q121 44 190 48h31z" />
    <glyph glyph-name="d.alt2" horiz-adv-x="1300" 
d="M651 10q84 0 126 92t42 213q0 38 -5 249q-5 212 -7 304q-63 109 -173 109t-185 -114q-76 -113 -76 -397t95 -379q77 -77 183 -77zM3856 2683q0 -286 -115 -465q-46 -70 -129 -140q-267 -223 -857 -220q-321 0 -655 71t-474 79q-141 10 -230 -16t-144 -92
q-117 -145 -115 -505v-989q0 -172 -36 -242q-52 -100 -139 -144q-118 -59 -287 -59t-278 43t-165 102q-56 58 -90 142t-42 144t-8 124q0 524 461 524q176 0 250 -84q-4 266 -4 414t15 246t59 198t118 164q74 66 198 107q123 41 313 41t637 -86t623 -86t304 19t252 69
q123 50 211 129q88 78 141 202t53 281q0 283 -211 430q-168 117 -366 89t-277 -175q-39 -74 -39 -164l-254 78q0 242 222 359q206 111 486 59t441 -254q131 -166 131 -393z" />
    <glyph glyph-name="g.alt1" horiz-adv-x="1351" 
d="M1022 -1169q228 49 418 237q-322 322 -717 436q-342 100 -555 -4q-188 -92 -188 -313q0 -100 58 -179t152 -124q192 -92 421 -92q228 0 411 39zM655 1026q-69 0 -115 -61q-84 -110 -83 -294q0 -184 75 -277q45 -56 115 -56q209 0 209 342q0 139 -50 243q-51 103 -151 103
zM588 -1268q-155 0 -288 26q-134 26 -217 65t-155 91t-113 135q-42 83 -42 185q0 162 115 262q116 100 306 118q432 40 867 -191q233 -124 412 -302q19 13 38 89q18 76 19 172q0 420 -912 419q-403 0 -490 104q-40 48 -40 130q0 135 94 203t205 67q-227 106 -227 377
q0 127 83 221t193 135t209 41q100 1 180 -23t117 -48l35 -23q11 7 27 21t64 44t90 47t91 16t82 -34v-102q-20 10 -55 23q-35 14 -117 10t-137 -60q14 -14 34 -38t55 -94q34 -70 34 -136q0 -211 -128 -321t-362 -109q-62 0 -153 14l-27 6q-145 0 -145 -77q0 -45 62 -55
t170 -11h190q246 1 387 -35t198 -66q154 -81 221 -184q89 -138 89 -307t-27 -283t-53 -155l-27 -39q314 -314 558 -383q82 -23 144 -29q106 -10 239 52q90 39 193 136q34 32 83 81l120 -185q-168 -168 -412 -190q-454 -41 -966 469q-148 -148 -411 -229q-161 -50 -500 -50z
" />
    <glyph glyph-name="g.alt2" horiz-adv-x="1351" 
d="M651 1026q-69 0 -115 -61q-84 -110 -83 -294q0 -184 75 -277q45 -56 115 -56q209 0 209 342q0 139 -50 243q-51 103 -151 103zM1602 -571q0 -133 -31 -239t-80 -178q-49 -73 -129 -125q-152 -99 -351 -127t-362 -28q-164 0 -251 10q-86 10 -194 45q-108 34 -189 86
t-137 145t-56 216q0 201 223 300t521 50t450 -231q100 -125 100 -283l-264 -121q0 322 -219 484q-163 125 -353 101t-262 -159q-35 -61 -34 -141q0 -205 173 -324t445 -118q418 0 587 79q79 36 151 91q146 112 145 352q0 135 -83 234q-140 167 -496 229q-142 25 -324 25
t-300 27q-118 28 -158 76t-40 130q0 135 95 203t204 67q-227 106 -227 377q0 127 83 221t193 135t209 41q100 1 180 -23t117 -48l35 -23q10 7 26 21q17 14 65 44t90 47t91 16t82 -34v-102q-20 10 -55 23q-35 14 -117 10t-137 -60q14 -14 34 -38t55 -94q34 -70 34 -136
q0 -211 -128 -321t-362 -109q-62 0 -153 14l-27 6q-145 0 -145 -77q0 -45 62 -55t156 -11h107q384 0 652 -156q90 -53 153 -124q62 -71 104 -179t42 -241z" />
    <glyph glyph-name="k.alt1" horiz-adv-x="1380" 
d="M575 246q0 -16 5 -41q158 45 265 162q103 117 103 321q0 244 -128 246q-68 0 -136 -58t-109 -149v-481zM2181 -748q0 -18 -15 -65t-46 -83t-103 -66t-172 -29q-155 1 -285 65t-223 167q-166 186 -312 478q-61 125 -119 229q-130 234 -255 232q-33 0 -65 -16
q16 -62 54 -104t69 -52l30 -12h-641q105 35 145 143q17 47 17 107v1140q0 176 -59 207q-29 10 -54 -18l-32 31q2 2 6 12t52 33q47 22 159 22q244 0 243 -368v-498q160 266 402 266q287 0 287 -332q0 -287 -344 -462q78 0 171 -117t185 -284t191 -334q99 -168 221 -284
t242 -116t180 48q53 39 65 75l6 14v-29z" />
    <glyph glyph-name="k.alt2" horiz-adv-x="1409" 
d="M1927 -848q80 0 135 34t56 79q0 71 -46 93t-133 21q-150 0 -344 -59q172 -168 332 -168zM946 690q0 244 -129 244q-67 0 -133 -58t-106 -149v-479q0 -27 2 -41q164 53 265 165q101 113 101 318zM2181 -749q0 -97 -73 -167t-267 -67q-276 2 -489 215q-86 -35 -302 -129
q-703 -306 -1151 -373q-220 -33 -453 -33q-234 0 -430 30t-328 78t-233 114t-159 129q-57 63 -104 153t-47 187l266 59q-8 -53 4 -125t42 -133q29 -61 107 -137t193 -130t311 -91t432 -37q462 0 850 123q310 96 586 215q277 120 364 155q-82 82 -176 246t-158 300
q-65 137 -150 243t-165 106q-37 0 -65 -14q16 -61 54 -103t69 -53l30 -12h-639q66 22 97 58q65 76 65 190v1136q0 178 -61 205q-27 12 -51 -16l-33 31q2 8 12 18t62 28t133 19q122 0 188 -83t66 -283v-494q160 262 399 262q285 0 285 -328q0 -285 -342 -462q70 0 158 -118
t163 -265q219 -435 307 -523q203 61 385 62q94 -1 171 -45t77 -141z" />
    <glyph glyph-name="j.alt1" horiz-adv-x="792" 
d="M-292 -1247q114 0 232 40t178 95q129 119 152 207l13 41q-33 27 -113 77q-80 51 -148 83t-167 59q-97 27 -179 27t-141 -35t-92 -90q-77 -128 -50 -268q45 -236 315 -236zM1145 -1274q-106 0 -216 30t-231 96t-209 136l-34 31q-27 -48 -100 -113t-153 -111t-221 -83
q-140 -37 -290 -37q-149 0 -259 43t-166 112q-56 70 -83 152t-1 165t81 152t164 111t253 43q144 0 301 -57t240 -115l82 -57q16 14 16 250v1345l-133 -88l-28 51q367 298 384 314q43 41 75 1q17 -22 18 -67l2 -1296q0 -205 -36 -367t-71 -219l-34 -59q33 -33 121 -95
q87 -63 161 -103t178 -73t199 -32q299 0 408 188q83 143 21 302t-204 212q-55 20 -118 20l104 154q193 0 303 -165q111 -165 73 -377t-247 -320q-145 -74 -350 -74zM295 1577q0 69 54 133t139 64q84 0 134 -60t50 -135q0 -76 -56 -130t-134 -54q-79 0 -133 57t-54 125z" />
    <glyph glyph-name="j.alt2" horiz-adv-x="792" 
d="M-139 -1325q-301 0 -463 197q-127 156 -98 344t204 278q110 55 264 55t243 -94t85 -214t-84 -199l-166 153q51 51 58 167q2 52 -38 90t-122 38q-137 0 -207 -152t-18 -323q55 -195 231 -254q63 -21 151 -21q89 0 165 37t120 99q88 121 114 345q11 95 15 222v1376
l-133 -88l-28 51q367 298 384 314q42 40 75 1q17 -22 18 -67v-1159q4 -1196 -770 -1196zM291 1577q0 69 54 133t139 64t134 -60q50 -60 50 -135q0 -76 -56 -130t-134 -54q-79 0 -133 57t-54 125z" />
    <glyph glyph-name="l.alt1" horiz-adv-x="831" 
d="M-1014 1878q0 -172 114 -310t282 -206t376 -50t377 138q305 250 335 280q55 55 90 16q17 -22 18 -67v-1429q0 -120 54 -175t91 -67l16 -6h-637l18 6q97 31 138 135q18 47 18 107v1231q-122 -121 -278 -187q-296 -126 -604 -34t-442 336q-68 126 -68 286q1 336 207 572
q222 254 714 254q254 0 535 -49q281 -47 508 -119t486 -157q258 -85 486 -157t511 -120t507 -48q387 0 587 75t271 182t73 200q2 92 -11 139l-6 21l227 43q57 -143 -3 -317q-24 -69 -68 -127t-130 -118q-288 -198 -908 -198q-419 0 -1054 150q-271 65 -754 187t-828 177
q-346 55 -552 47q-206 -7 -365 -67t-245 -204t-86 -370z" />
    <glyph glyph-name="q.alt1" horiz-adv-x="1329" 
d="M639 43q215 0 215 483q0 240 -61 362t-163 122t-174 -115q-73 -115 -73 -386q1 -271 69 -369t187 -97zM1126 -410q0 -103 80 -89q71 13 229 97q15 7 45 20q30 12 47 20t44 16q42 12 95 17t93 -38q-8 -12 -40 -72t-42 -73q-53 61 -161 49t-241 -76q-132 -64 -521 -286
q-507 -294 -765 -116q-99 69 -121 166t4 194t129 166t253 69q84 0 156 -31q143 -62 143 -205h-199q10 21 15 59q4 39 -5 63q-8 24 -44 43t-97 20q-164 1 -231 -111t-8 -221q85 -158 346 -158q139 0 299 60q88 33 146 101t59 163v614q-127 -102 -269 -102q-479 0 -479 487
q0 313 148 470t382 157t373 -122t137 -454v-897z" />
    <glyph glyph-name="x.alt1" horiz-adv-x="1402" 
d="M260 1069q88 0 188 -53t173 -129q124 -131 213 -283l30 -53l125 223q47 70 44 153q-3 99 -134 99h506q-142 0 -266 -164q-29 -37 -43 -63l-187 -330q2 0 38 -76q216 -455 443 -759q110 -146 226 -268t254 -198q137 -76 268 -75q47 0 80 18l16 -22q-76 -66 -244 -66
t-348 79q-178 79 -318 205q-286 257 -472 559q-186 301 -254 443t-72 142l-114 -201q-17 -28 -30 -79q-13 -52 -9 -85q4 -32 36 -60t95 -28h-506q86 0 167 63t118 127l39 64l157 278q0 16 -53 127t-139 226t-152 114q-38 0 -74 -16l-18 27q15 22 72 42q57 19 145 19z" />
    <glyph glyph-name="y.alt1" horiz-adv-x="1290" 
d="M2 -1032q53 0 118 38q64 38 104 76t91 94q51 58 54 60q-207 211 -381 211q-195 0 -195 -264q1 -87 59 -151t150 -64zM-309 -1019q-94 79 -94 205t74 223q40 52 118 84t184 32q201 0 439 -234q116 116 215 521l12 45l-397 880q-10 23 -29 57q-17 34 -77 89t-112 55
t-65 -12q-14 -12 -20 -20t-9 -13l-2 -6q0 65 49 121q23 25 74 45t119 20q168 0 267 -120q26 -31 42 -66l281 -633l174 569l6 21t4 50t-10 62t-45 49q-35 22 -92 21h542q-123 0 -205 -72t-102 -114l-12 -21l-297 -962q-45 -160 -128 -364t-130 -249q106 -98 187 -139t180 -41
t153 40q88 67 33 215q-23 58 -64 99l193 95q49 -49 56 -137t-25 -172q-32 -85 -124 -146q-91 -61 -220 -62q-223 0 -412 193q-2 -2 -47 -49q-45 -46 -59 -58t-60 -51q-45 -39 -76 -53t-96 -45t-182 -31t-211 79z" />
    <glyph glyph-name="y.alt2" horiz-adv-x="1271" 
d="M-52 -1090q95 0 184 58t156 142q139 172 199 304l29 60q-29 16 -77 42t-173 68t-223 41q-229 0 -344 -102t-115 -295q0 -101 75 -200q40 -52 117 -85t172 -33zM1946 -1165q-134 0 -332 61q-198 60 -370 150q-367 190 -564 327l-90 62q-8 -24 -50 -102q-40 -79 -76 -135
q-230 -366 -554 -364q-110 0 -214 26t-166 67q-172 113 -171 326q0 213 168 333t493 119q236 0 508 -136l25 -11q111 299 113 299l-398 880q-10 23 -28 57t-78 89t-111 55q-79 0 -96 -51q0 118 123 166q51 20 119 20q168 0 267 -120q24 -28 32 -48l290 -651l175 569l6 21
t4 50t-10 62q-9 26 -45 49q-36 22 -93 21h543q-124 0 -207 -71q-82 -71 -102 -115l-13 -21l-299 -977l-116 -321q530 -378 993 -541q188 -66 316 -66q252 1 365 78q113 76 130 164t4 135l-4 23l201 -59q-4 -1 0 -15t-3 -39t-15 -67t-73 -118q-156 -181 -597 -181z" />
    <glyph glyph-name="c.alt1" horiz-adv-x="1206" 
d="M2189 2175q793 0 793 -651q0 -213 -180 -371t-471 -158q-250 0 -383 174q-106 141 -72 302t192 223q74 27 166 26l80 -174q-210 0 -276 -122t28 -244t276 -121q182 0 326 138q142 138 142 327q0 571 -502 571q-139 0 -289 -95q-151 -96 -277 -240q-255 -292 -503 -685
t-385 -512l-33 51q4 8 21 35t34 90q17 62 17 106q0 92 -80 129q-45 22 -119 21q-166 1 -244 -241t-22 -485q57 -243 221 -242q90 1 164 35t115 84q85 104 104 186l10 35l82 -23q-2 -8 -4 -22q-15 -108 -102 -212q-86 -105 -226 -148q-139 -43 -339 2q-111 25 -207 102
q-158 124 -158 420q0 227 131 400q68 87 190 137t285 50q227 0 332 -137q291 492 447 704q397 535 716 535z" />
    <glyph glyph-name="e.alt1" horiz-adv-x="1210" 
d="M854 769q0 103 -52 181t-144 78t-147 -77q-57 -77 -77 -187q-42 -228 -37 -408l4 -77q-1 39 47 77t114 71q66 34 131 74q161 96 161 268zM2672 2300q162 0 308 -55q264 -99 365 -343q44 -108 44 -223q0 -217 -181 -388t-470 -171q-248 0 -381 174q-106 141 -73 302
t192 223q74 27 166 26l80 -174q-209 0 -276 -122q-66 -121 28 -243t274 -122t325 152q144 152 144 343q0 144 -40 246q-40 101 -87 158t-131 97q-83 40 -203 40t-251 -67t-246 -175t-257 -272q-142 -166 -271 -331t-317 -382t-365 -395q-74 -76 -238 -154t-285 -132
t-120 -87q0 -84 76 -139t176 -55q98 0 174 44t118 104q96 134 94 181l80 -18q-7 -56 -46 -133q-38 -76 -89 -129t-153 -96t-240 -43t-242 45t-160 126q-108 156 -108 400t151 404t431 159q451 0 450 -311q160 160 402 528t369 521t241 260q246 227 542 227z" />
    <glyph glyph-name="f.alt1" horiz-adv-x="915" 
d="M622 1677q106 -1 188 -27q83 -26 124 -64q85 -79 94 -138l6 -27l-149 -82q0 91 -39 171q-16 34 -50 63t-77 29t-72 -16t-45 -46q-36 -69 -40 -140q-5 -71 -5 -106v-274h234v-82h-234v-692q0 -92 41 -154t82 -80l41 -16h-641q104 35 144 143q17 47 18 107v692
q-518 0 -791 241q-272 241 -272 660q0 256 177 427t472 171q250 0 383 -174q107 -141 73 -302t-194 -222q-74 -27 -166 -27l-80 174q209 0 276 122q66 122 -28 243t-276 121t-324 -155t-143 -378q0 -105 15 -199q14 -94 70 -213t148 -203t262 -144t398 -60v233q0 229 93 327
q93 97 287 97z" />
    <glyph glyph-name="h.alt1" horiz-adv-x="1505" 
d="M492 1473q182 1 327 115t145 330t-141 316q-109 78 -215 33q-112 -56 -116 -199v-595zM502 246q0 -92 38 -154t74 -76l39 -16h-639l20 5q11 3 43 21q115 67 118 220l-5 1159q-115 0 -214 38t-157 93q-123 116 -159 205l-16 37l184 92q14 -52 52 -130t76 -129
q38 -52 100 -95t132 -43v198q0 457 292 617q44 24 110 40q66 15 82 15h18q180 0 318 -118q138 -119 137 -313q0 -194 -199 -350t-444 -155v-545q5 27 38 73q32 46 69 76q38 31 112 55t152 24q201 0 263 -112t62 -246v-105q0 -29 -4 -119q-14 -325 29 -410q20 -41 65 -41
t81 27t44 53l10 27l45 -55q-7 -22 -33 -49q-51 -54 -135 -77q-84 -22 -152 -22q-175 0 -232 117q-56 117 -56 330l6 216q0 147 -25 209q-50 125 -157 123q-84 0 -132 -74t-50 -177v-459z" />
    <glyph glyph-name="i.alt1" horiz-adv-x="835" 
d="M707 2734q464 0 675 -220q193 -199 193 -462q0 -185 -147 -344q-82 -90 -206 -159t-327 -113t-455 -43q-82 0 -136 56t-54 124q0 67 54 133t138 66t134 -60t51 -133q0 -72 -47 -123q115 4 210 16q94 12 208 53q114 40 191 102t130 176t53 263q0 244 -175 418t-417 174
q-449 0 -894 -240q-198 -108 -402 -237t-422 -259q-220 -130 -450 -238t-518 -174t-593 -66q-440 0 -681 203t-240 532q0 233 196 431q94 96 246 154t334 58q373 0 547 -231q127 -169 94 -365t-174 -278q-76 -43 -168 -43l-145 229q195 0 282 137q78 119 21 252
q-70 158 -291 205q-72 14 -182 14t-223 -54q-200 -96 -280 -334q-36 -102 -36 -208t41 -212q97 -249 341 -351q137 -57 327 -57t407 66t417 173q200 105 411 235t438 259t463 235t522 173t539 67zM586 246q0 -143 106 -218q25 -17 41 -24l19 -4h-637q6 2 17 4t38 18
q55 34 79 94q23 60 23 120v581l-131 -86l-28 49q365 298 382 314q41 39 73 1q17 -22 18 -67v-782z" />
    <glyph glyph-name="m.alt1" horiz-adv-x="2154" 
d="M3168 -360q336 0 482 -213q121 -178 55 -417t-287 -384q-222 -146 -494 -146t-476 68t-340 180t-229 264q-175 283 -175 637v992q0 175 -51 242q-23 31 -68 53t-106 22t-103 -25t-59 -61q-35 -79 -31 -131v-506q16 -133 109 -188q17 -11 51 -25h-633q159 53 162 248v371
q0 163 -45 232q-20 33 -64 59t-104 26q-178 0 -195 -199v-489q0 -118 53 -173q53 -56 93 -69l16 -6h-629q66 22 97 58q65 76 65 190v541l-133 -89l-29 52q358 295 374 312q40 41 76 1q17 -20 17 -66v-139q29 59 89 110q120 99 302 97q256 0 312 -242q6 30 42 77q36 48 77 80
t117 58t170 27q93 0 159 -33q65 -34 97 -76q72 -98 73 -339l-12 -1012q0 -564 258 -819q79 -80 157 -124q194 -110 480 -110t489 225q164 185 188 407t-122 323q-86 59 -227 59t-246 -152q-25 -35 -35 -57l-10 -25l-156 172q23 14 61 36t144 59t194 37z" />
    <glyph glyph-name="n.alt1" horiz-adv-x="1452" 
d="M2466 -360q336 0 481 -213q121 -178 55 -417t-286 -384q-220 -146 -494 -146q-272 0 -476 68t-340 180t-229 264q-176 285 -176 637q-23 1024 -22 1082q0 227 -209 227q-106 0 -156 -72t-49 -164v-454q0 -92 41 -154t82 -78l39 -14h-631q66 22 97 58q65 76 65 190v541
l-133 -89l-29 52q358 295 376 312q40 39 75 1q18 -20 18 -66v-129q21 60 73 107q102 92 275 90q92 0 163 -32t110 -79q40 -47 72 -133t32 -204v-1012q0 -564 258 -819q80 -80 158 -124q195 -110 480 -110t487 225q165 185 189 407t-124 323q-86 59 -219 59q-57 0 -109 -24
t-103 -79q-52 -55 -75 -106l-10 -25l-156 172q23 14 62 36q38 22 144 59t194 37z" />
    <glyph glyph-name="ntilde.alt1" horiz-adv-x="1478" 
d="M2509 -360q336 0 481 -213q121 -178 55 -417q-67 -239 -287 -384q-220 -146 -492 -146t-477 68q-204 68 -340 180t-229 264q-176 285 -176 637q-23 1024 -22 1082q0 227 -209 227q-105 0 -155 -72t-50 -164v-454q0 -149 105 -219q21 -14 57 -27h-631q66 22 97 58
q65 76 65 190v541l-133 -89l-29 52q357 295 375 312q40 39 76 1q18 -20 18 -66v-129q21 60 73 107q102 92 275 90q92 0 163 -32t110 -79t71 -133t33 -204v-1012q0 -564 258 -819q80 -80 158 -124q195 -110 480 -110t487 225q166 185 190 407t-125 323q-86 59 -224 59
t-247 -152q-25 -35 -35 -57l-10 -25l-156 172q23 14 62 36t145 59t193 37zM668 1542q88 0 196 -45t204 -45q97 0 140 27t54 47l2 8l45 -10q-7 -36 -34 -86q-25 -50 -57 -84q-32 -35 -90 -63q-58 -27 -150 -27q-133 1 -300 82q-111 55 -227 2q-53 -25 -74 -50l-23 -24l-43 14
q64 160 208 226q61 28 149 28z" />
    <glyph glyph-name="o.alt1" horiz-adv-x="1323" 
d="M668 999q-90 -1 -159 -117t-69 -392t60 -386q60 -112 170 -112q111 0 168 135t57 369t-57 368q-57 135 -170 135zM2726 2245q791 0 790 -652q0 -211 -180 -369t-469 -157q-250 0 -381 174q-106 141 -73 302t194 220q72 27 162 27l82 -174q-209 0 -276 -122t27 -243
t276 -121t324 138t142 325q0 571 -499 572q-129 0 -245 -50q-116 -51 -203 -135q-181 -176 -347 -419t-378 -435q-104 -94 -248 -162t-308 -92q119 -145 119 -376q0 -279 -162 -418t-402 -139t-406 131q-83 66 -131 176t-48 247t55 249q98 198 331 281q99 36 196 36
q248 0 405 -144q135 27 264 116t234 208q104 119 208 256q103 137 208 269q104 132 214 240t245 174t280 67z" />
    <glyph glyph-name="p.alt1" horiz-adv-x="1329" 
d="M678 31q120 0 188 97q68 98 68 368t-73 385t-174 115t-161 -122q-60 -121 -61 -362q0 -481 213 -481zM193 475q-1 322 131 448t371 126t386 -157t148 -468q0 -485 -479 -485q-135 0 -269 102v-688q0 -358 -175 -640q-93 -151 -229 -263t-340 -181q-204 -68 -452 -67
q-395 0 -633 239q-184 186 -194 422t160 375q150 123 399 123q88 0 187 -33t157 -65l55 -33l-155 -172q-12 31 -42 76q-30 46 -62 76t-84 56t-109 25q-252 0 -324 -192q-63 -172 39 -398t309 -341q141 -80 299 -80q905 0 906 1050v1145z" />
    <glyph glyph-name="r.alt1" horiz-adv-x="1089" 
d="M2286 2245q138 0 271 -40q132 -39 213 -103t133 -152q93 -157 93 -364q0 -206 -180 -364t-471 -157q-248 0 -381 174q-106 141 -74 303t197 221q72 27 162 27l80 -174q-209 0 -276 -122t27 -243t277 -121t325 136t142 327v29q0 220 -33 296q-49 122 -128 174
q-112 73 -269 73t-307 -78t-277 -198q-257 -243 -506 -579t-384 -454q-7 27 -48 50t-92 24q-96 0 -150 -92t-55 -213v-377q0 -92 41 -154t82 -80l41 -16h-641q105 35 145 143q17 47 17 107v543l-133 -89l-29 52q367 297 384 314q41 41 76 0q17 -22 17 -67v-157q14 34 50 83
q37 50 73 83q37 32 102 60q64 28 136 28t117 -21q37 55 116 178q315 484 475 648q224 231 396 299q108 43 246 43z" />
    <glyph glyph-name="s.alt1" horiz-adv-x="1130" 
d="M2157 2259q791 0 790 -651q0 -211 -180 -369t-469 -158q-248 0 -379 172q-109 141 -76 302t193 221q74 29 166 28l79 -174q-207 0 -273 -121t26 -243q94 -122 275 -121q181 0 324 137q142 137 142 326q0 571 -500 571q-313 0 -573 -228q-229 -199 -436 -509
q-98 -146 -180 -278q-210 -335 -328 -453l-37 57q100 100 2 174q-84 63 -225 55q-175 -10 -181 -149q-1 -60 53 -102t133 -62t171 -53t171 -72t132 -121t53 -188t-76 -176q-136 -125 -354 -123q-96 0 -205 31t-151 67q-46 34 -51 -24v-23h-46v371h78v-51q0 -131 166 -232
q156 -90 303 -78q143 23 150 135q0 84 -141 129q-62 20 -139 40q-171 45 -291 130q-62 45 -101 125t-39 185q0 145 114 220t292 75t286 -67q32 -18 49 -38q20 20 82 133q61 113 137 254q75 141 191 307q117 166 242 302t293 227q168 90 338 90z" />
    <glyph glyph-name="t.alt1" horiz-adv-x="888" 
d="M555 944v-665q0 -70 4 -104q4 -33 27 -61q22 -28 70 -28t87 28t52 54l14 29l76 -43q-5 -22 -37 -61q-31 -39 -65 -65t-95 -48t-133 -21q-178 0 -247 85t-68 235v665h-113q-2 0 -4 1t-9 3q-52 15 1 68t137 140t147 155q63 67 71 75t30 10q20 2 38 -19q18 -22 17 -66v-285
q227 0 397 62t263 154q93 91 149 218q54 128 70 234t14 221q-4 189 -144 327t-322 138t-276 -122q-92 -122 -26 -244t272 -122l-80 -174q-238 0 -327 164q-76 137 -6 302t249 231q84 29 181 28q291 1 471 -157t180 -365q0 -411 -266 -689q-129 -134 -335 -211t-464 -77z" />
    <glyph glyph-name="u.alt1" horiz-adv-x="1515" 
d="M934 188q0 -33 -33 -77q-33 -45 -73 -73q-95 -67 -283 -69q-94 0 -160 27q-65 28 -97 62t-49 96t-21 100q-3 39 -3 104v514q0 56 -28 70t-56 0l-27 -12l-43 26q5 10 21 28t76 45q60 28 130 28q71 0 118 -25q48 -26 70 -56q48 -66 48 -241v-387q0 -270 207 -270
q55 0 95 28q92 65 96 246v447q0 57 -17 102q-16 45 -56 80t-73 39l-16 4h395q162 0 307 71t259 183t223 247q109 136 215 272t217 248q112 113 252 183t294 70q788 0 789 -649q0 -213 -179 -370t-470 -157q-246 0 -379 172q-105 141 -73 302t192 223q74 27 164 26l81 -174
q-209 0 -275 -121q-66 -120 28 -242t276 -122t324 137q141 137 141 326q0 569 -502 569q-141 0 -281 -70t-260 -180t-239 -244q-119 -133 -238 -267t-237 -245q-118 -110 -258 -180q-139 -70 -279 -69v-701q-4 -83 5 -138q10 -66 76 -66q34 0 69 16l37 -49q0 -5 -24 -17
q-68 -36 -181 -36q-113 -1 -170 27q-85 42 -116 141q-9 30 -9 48z" />
    <glyph glyph-name="v.alt1" horiz-adv-x="1243" 
d="M2675 2284q791 0 790 -652q0 -210 -179 -368t-470 -158q-248 0 -379 172q-109 141 -76 302t193 220q74 29 166 29l82 -174q-209 0 -276 -121q-66 -121 28 -243t275 -122q181 1 323 137t143 326q0 569 -502 570q-275 0 -497 -213q-100 -96 -198 -214t-202 -242t-216 -230
q-112 -107 -264 -189t-324 -110l-351 -959q29 -47 88 -47q-12 -19 -80 -35q-67 -16 -161 -16q-94 -1 -168 109t-120 267t-89 315q-103 377 -250 376q78 45 195 45q118 0 206 -89t140 -220q83 -208 148 -495q24 -103 38 -118l266 727q6 11 7 47t-35 54q-35 18 -78 18l-6 43
q156 0 302 70t265 180t236 245q117 134 233 268t233 245q119 110 265 180t299 70z" />
    <glyph glyph-name="w.alt1" horiz-adv-x="1730" 
d="M3181 2257q791 0 790 -651q0 -211 -179 -369t-470 -158q-248 0 -379 172q-109 141 -76 302t193 221q74 29 166 28l82 -174q-209 0 -276 -122q-66 -122 28 -242t275 -121q181 0 324 137q142 137 142 326q0 571 -502 571q-221 0 -387 -122t-334 -323q-76 -90 -154 -184
q-163 -197 -359 -349q-196 -151 -476 -198l-329 -905q0 -16 38 -57t80 -41q-12 -19 -80 -35q-67 -16 -157 -16q-51 0 -116 61t-146 246q-31 70 -48 119l-14 49l-110 -332q49 -92 116 -92q-12 -19 -80 -35q-67 -16 -161 -16q-94 -1 -168 109t-120 267t-89 315
q-103 377 -250 376q78 45 195 45q118 0 206 -88t140 -214t85 -252q34 -126 52 -214t24 -88l273 811q203 -752 276 -826l246 676q6 11 7 36q1 24 -6 40t-33 30t-66 13l-6 43q156 0 302 68t265 176t235 240t233 264t235 240t264 176t299 67z" />
    <glyph glyph-name="z.alt1" horiz-adv-x="1292" 
d="M258 774q111 0 266 170h-63q-258 0 -289 -84q-14 -43 37 -74q24 -12 49 -12zM1968 2298q791 0 791 -649q-1 -213 -181 -370t-469 -157q-248 0 -378 172q-109 141 -76 302t192 221q74 29 166 28l80 -174q-207 0 -273 -121q-66 -120 26 -242q94 -122 276 -122t323 137
t142 326q0 569 -500 569q-298 0 -579 -296q-132 -140 -240 -282t-242 -324q-135 -183 -229 -290h493q-68 0 -142 -70t-135 -175q-62 -105 -135 -228t-139 -228q-65 -105 -147 -175t-160 -70h426q63 0 115 43q82 69 127 225q18 61 24 105l6 43h29l-14 -498h-1147q70 0 162 97
t183 237t185 278t192 236t177 98h-180q-238 -233 -455 -233q-113 -1 -160 77t25 148q92 90 330 90h139q71 85 390 523q91 127 217 273t239 244t252 165t274 67z" />
    <glyph glyph-name="A.alt1" horiz-adv-x="1394" 
d="M348 551h486l-250 829zM762 -4q63 0 103 28t51 66q24 83 10 143l-4 27l-62 207h-534q-6 -33 -34 -99q-28 -65 -60 -116q-32 -52 -92 -114q-206 -214 -556 -214q-227 0 -403 80t-264 209t-127 284t6 311t137 284t265 208t390 80q293 0 416 -198q98 -158 45 -348t-217 -271
q-90 -45 -199 -45l-141 225q344 0 442 164q68 113 -13 239t-238 157q-37 6 -74 6q-129 0 -238 -44t-179 -120t-118 -173q-83 -164 -59 -421q19 -207 175 -379q148 -164 416 -164q138 0 260 47t188 115q137 140 171 252l258 907q13 32 14 79q1 48 -12 81q-12 33 -54 59
t-112 27h771q-66 0 -106 -25q-40 -26 -52 -60q-25 -70 -10 -128l4 -25l321 -1065q103 -276 266 -276h-751z" />
    <glyph glyph-name="B.alt1" horiz-adv-x="1714" 
d="M782 51q217 0 323 82q105 82 105 295q0 106 -41 176t-113 100q-119 49 -282 50h-180v-703h188zM594 1501v-682h188q217 0 323 79q105 79 105 286q0 102 -41 171t-113 99q-117 48 -282 47h-180zM1167 782q170 0 301 -98t131 -309q-1 -211 -127 -295t-358 -84h-999
q105 35 144 144q17 48 17 108v1259q-1104 0 -1103 -721q0 -242 140 -434t341 -192q354 0 354 372q0 96 -39 174t-94 122q-120 93 -207 110l-39 10l95 189q52 0 128 -34q74 -34 126 -85t94 -160t43 -256q-1 -234 -139 -370t-334 -136q-63 0 -131 10t-167 52t-174 108
t-129 196q-55 130 -55 291t54 285t139 207q225 220 640 296q176 34 304 34h954q215 0 333 -116t118 -300q0 -287 -246 -359q-58 -18 -115 -18z" />
    <glyph glyph-name="C.alt1" horiz-adv-x="1519" 
d="M434 778q0 -35 4 -96q160 -53 322 -33q162 21 292 83t211 172t80 235q0 164 -111 291q-56 63 -158 101t-236 38q-148 -6 -276 -211t-128 -580zM1448 485v-33q0 -167 -101 -323q-45 -68 -107 -116t-166 -82t-248 -33q-241 2 -422 108q-239 141 -310 465q-27 123 -26 270
v41q-207 162 -329 440t-122 674t250 603q185 149 409 131t336 -172q76 -104 76 -248q0 -209 -175 -296q-175 -88 -350 -20t-175 234l178 86q0 -228 145 -281q72 -26 147 47t77 238q0 350 -334 350q-178 0 -306 -196t-128 -453q0 -668 311 -1008q20 168 84 300
q63 132 144 209t181 128q164 83 318 86q272 4 371 -56t129 -60q31 0 57 22t39 45l10 23v-469q0 -147 -85 -271q-161 -233 -530 -284q-173 -25 -350 20q18 -152 70 -270q94 -211 263 -294q73 -36 165 -37t182 49q155 85 228 284q29 80 28 149h66z" />
    <glyph glyph-name="D.alt1" horiz-adv-x="1697" 
d="M606 41q637 0 637 793q0 172 -46 303t-113 203q-66 72 -158 116q-92 45 -167 58t-153 14v-1487zM903 1575q117 0 242 -53q286 -121 408 -395q69 -153 69 -330q0 -361 -212 -581t-515 -220h-782q107 36 146 144q17 48 17 108v1259q-1106 0 -1105 -721q0 -242 141 -434
t340 -192q354 0 354 372q0 96 -39 174t-94 122q-121 93 -205 110l-39 10l92 189q60 1 127 -31q266 -126 265 -506q-1 -232 -139 -368t-332 -136q-63 0 -131 10t-167 52t-174 108t-129 195q-55 129 -55 291t54 286t139 207q226 221 639 296q178 34 305 34h780z" />
    <glyph glyph-name="E.alt1" horiz-adv-x="1490" 
d="M274 248v1259q-1104 0 -1103 -721q0 -242 140 -434t341 -192q354 0 354 372q0 96 -39 174t-94 122q-120 93 -207 110l-39 10l94 189q52 0 128 -34q75 -34 127 -85t94 -160t43 -256q-1 -234 -139 -370t-334 -136q-64 0 -132 10t-166 52t-175 107q-75 67 -129 197t-54 291
t54 285t138 207q226 220 641 296q176 34 304 34h1212l17 -440h-31q0 90 -74 222t-198 134h-443v-725h215q141 0 196 57q24 25 38 48l15 -335q-1 12 -14 40q-49 106 -229 106h-221v-602h490q63 0 115 39t92 120t59 183l6 39h31l-17 -465h-1267q104 35 144 146q17 48 17 106z
" />
    <glyph glyph-name="F.alt1" horiz-adv-x="1306" 
d="M1348 1137q0 29 -32 126q-32 98 -93 164q-62 66 -150 66h-467v-727h213q122 0 180 57t70 107v-410q-9 28 -27 55q-69 104 -215 109h-221v-436q0 -94 41 -156t82 -80l39 -16h-655q107 36 146 144q17 48 17 108v1259q-545 0 -829 -185q-169 -110 -238 -307
q-35 -103 -34 -229q0 -242 140 -434t341 -192q354 0 354 372q0 96 -39 174t-94 122q-121 93 -207 110l-39 10l95 189q52 0 128 -34q75 -34 127 -85t94 -160t42 -256q-1 -234 -139 -370t-332 -136q-153 0 -276 52t-197 118t-128 196q-55 130 -55 291t54 285t139 207
q225 220 638 296q176 34 304 34h1237l16 -438h-30z" />
    <glyph glyph-name="G.alt1" horiz-adv-x="1619" 
d="M123 -1272q791 0 1042 615q-375 199 -642 303t-482 104q-279 0 -442 -196q-139 -166 -117 -383t221 -342q166 -101 420 -101zM41 -184q242 0 513 -100t642 -287q86 262 90 682q-49 -45 -84 -70t-133 -55q-99 -30 -213 -29q-230 0 -421 103q-105 58 -184 146t-130 233
q-51 144 -51 332q0 189 55 343t139 246t193 154q186 106 385 110q121 0 218 -18t144 -41q120 -59 151 -59q31 -1 59 22t40 45l10 22v-594h-112q0 423 -290 526t-477 -141q-67 -86 -107 -236t-40 -347q0 -387 117 -587t290 -202t272 78t99 276t-73 281q-74 84 -228 84h-219
v70h799v-826q0 4 -2 13q-12 -393 -121 -654q442 -226 566 -274q124 -47 239 -88t196 -54q81 -12 183 -26t182 -1t167 38q164 47 312 197l185 -226q-236 -236 -576 -219t-678 167q-339 150 -574 275q-234 125 -241 127q-303 -594 -1210 -593q-506 0 -746 237
q-174 174 -140 398t251 372q217 150 553 150z" />
    <glyph glyph-name="H.alt1" horiz-adv-x="1894" 
d="M762 1575q-157 -52 -164 -244v-565h694l-16 664q-36 105 -148 145h648q-106 -35 -145 -144q-17 -49 -17 -108v-1075q0 -94 41 -156t82 -80l39 -16h-648q108 36 147 144q17 48 17 108v434h-694v-440q2 -90 43 -152t80 -78l41 -16h-647q107 36 146 144q17 48 18 108v1259
q-546 0 -830 -185q-170 -111 -237 -307q-35 -103 -35 -229q0 -242 140 -434t341 -192q354 0 354 372q0 96 -39 174t-94 122q-121 93 -207 110l-39 10l95 189q52 0 128 -34q75 -34 127 -85t94 -160t42 -256q0 -234 -138 -370t-335 -136q-63 0 -131 10t-167 52t-174 108
t-129 196q-55 130 -55 291t54 285t139 207q84 83 199 145q196 106 406 145q211 40 339 40h635z" />
    <glyph glyph-name="I.alt1" horiz-adv-x="890" 
d="M612 252q0 -120 56 -179q56 -60 108 -73h-655q105 35 144 144q17 48 18 108v1255q-274 0 -516 -54t-412 -215q-170 -160 -170 -452q0 -242 140 -434t339 -192q356 0 356 372q0 96 -38 174t-94 122q-122 93 -207 110l-39 10l92 189q52 0 128 -34q75 -34 127 -85t94 -160
t42 -256q0 -234 -137 -370t-334 -136q-63 0 -131 10t-167 52t-174 108t-129 196t-54 291t54 285t138 207q226 221 639 296q178 34 305 34l641 2q-106 -35 -146 -143q-17 -47 -18 -107v-1075z" />
    <glyph glyph-name="J.alt1" horiz-adv-x="976" 
d="M369 1323q0 120 -54 176q-54 57 -94 70l-16 6h655q-107 -36 -146 -144q-17 -48 -18 -108v-739q0 -308 -172 -496t-502 -188t-528 178q-196 178 -196 469t213 438q171 119 377 91t292 -179q47 -80 47 -184q0 -217 -101 -319t-237 -101l-96 217q71 0 137 14t130 70t65 145
q0 172 -129 240q-121 66 -254 -4q-168 -88 -213 -324q-12 -68 -12 -145q0 -221 126 -374q126 -152 331 -152t287 104q58 71 75 140q35 135 35 316l-2 212v571z" />
    <glyph glyph-name="K.alt1" horiz-adv-x="1650" 
d="M612 248q0 -150 105 -224q32 -22 57 -28h-655q107 36 146 144q17 48 18 108v1259q-546 0 -830 -185q-170 -111 -237 -307q-35 -103 -35 -229q0 -242 140 -434t339 -192q356 0 356 372q0 96 -39 174t-94 122q-121 93 -207 110l-38 10l94 189q52 0 128 -34q75 -34 127 -85
t94 -160t42 -256q0 -234 -138 -370t-335 -136q-63 0 -131 10t-167 52t-174 108t-129 196q-55 130 -55 291t54 285t139 207q226 221 639 296q178 34 305 34h643q-105 -35 -144 -144q-17 -48 -18 -108v-782l549 764q25 31 48 86t27 90q3 35 -28 65t-100 29h565
q-169 0 -379 -210q-47 -48 -73 -83l-277 -385q72 0 142 -96t121 -217q145 -351 226 -434q80 -82 159 -87t112 15l16 8q-31 -61 -104 -122q-74 -60 -211 -60q-80 0 -159 42t-125 108q-97 138 -165 335q-68 198 -165 295l-179 -250v-186z" />
    <glyph glyph-name="L.alt1" horiz-adv-x="1748" 
d="M279 1323q0 120 -54 176q-54 57 -94 70l-16 6h657q-107 -36 -146 -144q-17 -48 -18 -108v-1243h387q221 2 342 110t121 316q0 301 -174 436q-125 96 -262 55q-127 -39 -162 -172q-10 -41 -10 -86q0 -90 64 -145q64 -56 132 -70q67 -14 136 -14l-97 -217q-135 0 -236 101
q-101 102 -101 318t182 310q166 88 378 24t312 -258q59 -117 59 -248q1 -131 -29 -264t-61 -206l-28 -74h-1446q107 36 146 144q17 48 18 108v1075z" />
    <glyph glyph-name="M.alt1" horiz-adv-x="2097" 
d="M1815 246q0 -94 40 -157q41 -62 82 -79l39 -16h-655q107 36 146 144q17 48 18 108v1175l-481 -1355q-29 -88 -54 -89q-16 0 -45 64l-555 1251v-1044q0 -120 56 -179q56 -60 108 -73h-410q108 36 147 144q17 48 17 108v1231q-19 29 -89 88q-69 59 -133 96t-162 68t-199 30
q-461 0 -727 -321q-208 -254 -224 -598t161 -588q177 -242 501 -242q264 0 387 174q100 146 47 322t-244 258q-117 51 -268 51l84 189q226 0 372 -110t173 -266t-15 -312t-190 -266q-147 -110 -350 -109q-408 0 -637 282q-197 242 -189 592t238 621q325 387 928 387
q292 0 531 -170t405 -411t253 -432q86 -191 123 -296l15 -47l389 1102h528q-105 -35 -144 -144q-17 -47 -17 -106v-1075z" />
    <glyph glyph-name="N.alt1" horiz-adv-x="1726" 
d="M1452 1323v-1239q55 -49 139 -49v-55h-135q-122 0 -232 63t-197 169q-168 204 -309 504q-67 140 -123 264q-134 296 -216 380v-1112q0 -150 104 -224q32 -22 58 -28h-410q6 2 17 5t40 19q107 59 107 228v1192q-7 10 -23 25t-94 41t-188 26q-235 0 -453 -99
q-121 -57 -213 -141t-152 -222t-61 -310q0 -238 139 -409t337 -171t300 104t103 269q0 96 -42 167q-42 70 -102 102q-120 63 -219 71l-43 2l10 188q27 5 90 1q204 -15 313 -141q42 -48 71 -131t28 -189q0 -229 -157 -368q-158 -138 -359 -138q-62 0 -124 10t-151 51
t-156 109q-67 67 -114 197t-47 302t64 314t164 231q100 91 232 153q244 116 521 113h209q188 0 354 -98q166 -97 278 -243t209 -324t155 -333q146 -387 194 -433v1157q0 121 -53 177t-94 69l-17 6h410q-28 -9 -56 -28q-106 -72 -106 -224z" />
    <glyph glyph-name="Ntilde.alt1" horiz-adv-x="1726" 
d="M1438 1323v-1239q55 -49 139 -49v-55h-135q-121 0 -232 63q-112 63 -198 169q-166 202 -309 504q-67 140 -122 264q-134 296 -216 380v-1112q0 -94 41 -156t81 -80l39 -16h-409q6 2 17 5t40 19q104 58 107 228v1192q-7 10 -23 25t-94 41t-189 26q-236 0 -452 -99
q-121 -57 -213 -141t-152 -222t-61 -310q0 -238 139 -409t337 -171t300 104t102 269q0 96 -42 167q-42 70 -101 102q-119 63 -221 71l-41 2l10 188q28 6 89 1q300 -23 384 -272q29 -83 29 -189q0 -229 -158 -367t-358 -139q-62 0 -124 10t-152 51t-156 109q-66 67 -113 197
t-47 302t63 314t163 231q100 91 234 153q245 116 521 113h209q188 0 354 -98q166 -97 278 -243t209 -324t155 -333q144 -385 194 -433v1157q0 120 -54 176q-54 57 -94 70l-16 6h409q-105 -35 -144 -144q-17 -49 -17 -108zM1224 2001q94 -1 152 21q59 22 74 42l14 21
q-2 -11 -5 -29t-22 -64t-48 -82t-87 -65t-135 -28q-147 1 -374 65t-299 64t-125 -22t-78 -44l-27 -20q62 154 223 217q71 27 173 27t286 -52q184 -51 278 -51z" />
    <glyph glyph-name="O.alt1" horiz-adv-x="1654" 
d="M426 817q0 -391 116 -589t287 -199q170 0 282 191t112 519q-432 0 -618 251q-101 137 -99 296q-31 -62 -56 -195q-24 -133 -24 -274zM825 1563q-146 0 -252 -154q0 -180 75 -316q44 -81 114 -139t188 -94q118 -37 273 -37q0 199 -37 349t-97 232q-118 159 -264 159z
M1421 2591q221 0 414 -72q193 -71 317 -189t200 -271q152 -311 53 -649q-100 -339 -426 -522q-175 -99 -400 -134q-4 -199 -56 -347q-52 -147 -128 -231q-75 -84 -181 -134t-196 -64t-192 -15q-102 0 -195 15q-93 16 -199 68t-182 137t-127 240t-51 363t55 369
q55 162 136 251t190 144q178 90 372 90q84 0 169 -15q86 -15 190 -66t184 -133t139 -227q59 -146 70 -339q215 50 367 196t215 328t50 383q-28 435 -370 639q-179 108 -405 107q-226 1 -443 -63t-416 -155t-409 -181t-479 -154q-270 -64 -555 -64q-489 0 -728 67
q-238 67 -351 195q-134 154 -134 394h273q0 -264 228 -417t691 -153q265 0 529 62t478 152q214 89 421 180q494 215 882 215z" />
    <glyph glyph-name="P.alt1" horiz-adv-x="1460" 
d="M653 557q223 0 358 150q134 150 134 378q0 107 -38 195q-65 151 -210 218q-59 28 -109 28h-182v-969h47zM958 1575q175 0 321 -92q81 -51 130 -160t49 -262q0 -291 -147 -426t-375 -135h-330v-252q0 -94 41 -156t82 -80l39 -16h-655q107 36 146 144q17 48 17 108v1259
q-545 0 -829 -185q-169 -110 -238 -307q-35 -103 -34 -229q0 -242 141 -434t340 -192q354 0 354 372q0 96 -39 174t-94 122q-121 93 -207 110l-39 10l95 189q52 0 128 -34q75 -34 127 -85t94 -160t42 -256q0 -234 -137 -370t-334 -136q-63 0 -131 10t-167 52t-174 108
t-129 196q-55 130 -55 291t54 285t139 207q226 221 639 296q178 34 305 34h831z" />
    <glyph glyph-name="Q.alt1" horiz-adv-x="1654" 
d="M825 16q164 0 279 183q-186 51 -314 -13q-71 -35 -106 -67l-33 -35l-2 -2q84 -66 176 -66zM948 303q96 0 197 -24q92 207 92 538q0 453 -195 651q-103 107 -216 107t-225 -116q-113 -116 -161 -350q-27 -132 -26 -292q0 -440 159 -655q69 55 174 98t201 43zM3752 -764
q0 -137 -100 -280q-122 -173 -342 -243q-128 -40 -320 -40t-384 58q-192 59 -326 159t-242 224t-198 265q-89 141 -166 269q-193 322 -357 444q-190 -129 -492 -129q-106 0 -200 15q-94 16 -205 68t-190 137t-131 240t-52 363t57 369q56 162 140 251t196 144q112 54 203 72
q90 18 182 18q93 0 183 -17t202 -73t197 -144q84 -89 141 -251t58 -373q0 -399 -193 -606q127 -74 248 -196t215 -251q94 -131 192 -273t202 -266t222 -225q117 -101 272 -161q156 -60 344 -59q188 0 322 133q134 132 134 354t-140 328q-106 84 -228 33t-147 -242
q-4 -35 -4 -74l-204 -16q0 151 94 259t228 138t267 7q133 -22 228 -136q94 -115 94 -293z" />
    <glyph glyph-name="R.alt1" horiz-adv-x="1624" 
d="M696 629q246 1 338 111t92 354q0 118 -34 204t-90 130q-105 85 -218 85h-172v-884h84zM1538 106l29 -71q-92 -53 -224 -53t-204 43t-109 106t-74 139l-70 140t-95 106q-63 43 -154 43h-25v-311q0 -120 56 -179q56 -60 108 -73h-657q107 36 146 144q17 48 18 108v1259
q-1104 0 -1104 -721q0 -242 140 -434t339 -192q356 0 356 372q0 96 -39 174t-94 122q-121 93 -207 110l-39 10l93 189q52 0 129 -34q76 -34 127 -85t94 -160t43 -256q0 -234 -138 -370t-335 -136q-63 0 -131 10t-167 52t-174 108t-129 196q-55 130 -55 291t54 285t139 207
q226 221 639 296q178 34 305 34h829q171 0 326 -99q80 -52 130 -152t50 -234q0 -252 -148 -392t-411 -139q105 0 185 -35t120 -87q88 -112 129 -231q41 -118 115 -118q43 0 84 18z" />
    <glyph glyph-name="S.alt1" horiz-adv-x="1454" 
d="M938 1312q0 140 -90 204t-219 63q-129 1 -207 -61t-78 -173t77 -185q58 -54 197 -96q43 -13 125 -36q195 144 195 284zM1364 439q0 -124 -42 -217t-105 -147t-176 -100t-266 -48q-152 -1 -306 39t-209 95q-37 33 -52 18t-15 -50v-33h-60v604h82v-65q0 -248 215 -408
q178 -133 386 -132t286 140q35 63 35 151q-1 88 -51 150q-50 61 -138 96t-181 59q-93 23 -210 57t-195 77q-195 -80 -538 -215q-566 -221 -849 -374q-282 -153 -479 -320q-193 -168 -266 -368q-38 -103 -38 -212q0 -203 118 -351q118 -149 289 -149q172 0 300 110t128 304
q0 152 -58 226t-137 66q-79 -9 -149 -79l-135 174q43 43 112 59q143 34 283 -67q66 -47 109 -142t43 -223q0 -268 -211 -409q-180 -119 -415 -82t-359 227q-92 139 -92 334q0 141 63 274t167 241q104 107 261 215q158 108 391 229t727 318q494 196 656 267
q-162 129 -162 373q0 135 45 233t124 150q153 101 372 100q96 0 195 -30q100 -30 159 -64t100 -91q41 -58 41 -132q0 -162 -262 -332q196 -60 324 -168q145 -123 145 -378z" />
    <glyph glyph-name="T.alt1" horiz-adv-x="1163" 
d="M1763 1872q0 -284 -342 -341q-186 -31 -430 -27q-65 1 -88 1v-1257q0 -153 105 -224q32 -22 57 -28h-655q107 36 146 144q17 48 17 108v1255q-197 0 -345 -17q-336 -39 -498 -191q-181 -170 -183 -496q0 -171 96 -313q48 -70 135 -112t202 -42q186 0 247 135
q55 117 -18 246q-82 147 -268 172l-64 4l103 162q209 0 313 -161t62 -343t-220 -256q-87 -35 -215 -35t-242 50q-202 88 -276 321q-33 100 -33 227t49 243q49 115 126 191t190 132t216 85q249 70 623 70h447v2q408 0 533 179q42 60 42 145t-51 166t-140 81t-121 -36
q-33 -36 -17 -86q16 -52 65 -101l-110 -145q-63 62 -73 164t54 185q66 83 220 83t247 -90q94 -90 94 -250z" />
    <glyph glyph-name="U.alt1" horiz-adv-x="1703" 
d="M2178 2515q154 0 294 -51t207 -119t107 -164q40 -97 47 -157t8 -128q0 -196 -152 -352t-373 -156t-341 78q-108 73 -142 161q-35 89 -35 130v23l189 94q0 -140 65 -258q93 -168 279 -168q151 0 241 134t90 344t-155 367q-156 157 -385 156q-152 -1 -267 -73t-183 -189
q-184 -315 -185 -960v-539q0 -252 -8 -319q-35 -272 -250 -367q-131 -57 -300 -57q-169 1 -271 25q-172 41 -274 168q-46 58 -67 126q-47 159 -45 263t1 163t-1 82v551h-2q0 123 -52 178t-93 68l-16 6h667q-6 -2 -17 -5q-11 -4 -40 -20q-104 -59 -107 -209v-757
q0 -139 8 -185q8 -45 14 -97q7 -52 20 -81q14 -29 32 -67t43 -60q25 -20 69 -48t136 -29q294 -4 393 159q76 122 76 373v829q-1 209 21 329q45 252 95 362t107 191t129 134t171 87q98 34 252 34z" />
    <glyph glyph-name="V.alt1" horiz-adv-x="1388" 
d="M1102 1575h506q-143 0 -261 -210q-28 -48 -40 -83l-15 -33l-463 -1267q-23 -70 -53 -70q-20 0 -47 51l-563 1544q-874 0 -875 -721q1 -242 141 -434t339 -192q356 0 356 372q0 96 -39 174t-94 122q-120 93 -207 110l-39 10l94 189q52 0 128 -34q75 -34 127 -85t94 -160
t42 -256q0 -234 -138 -370t-335 -136q-63 0 -131 10t-167 52t-174 108t-129 196t-54 291t46 285t119 207q197 221 558 296q155 34 278 34h590q-66 0 -104 -26q-38 -27 -44 -63q-14 -75 5 -138l346 -953l334 914q13 32 17 86q5 53 -3 88t-45 63t-100 29z" />
    <glyph glyph-name="W.alt1" horiz-adv-x="1974" 
d="M573 1575q-166 0 -150 -177q3 -34 13 -67l314 -903l294 954q25 68 52 68q23 0 43 -49l397 -1012l328 938q12 29 13 79t-9 83t-48 59t-98 27h527q-92 0 -175 -80t-120 -160l-37 -80l-444 -1273q-25 -70 -52 -70q-18 0 -45 51l-379 955l-301 -936q-23 -70 -51 -70
q-22 0 -43 51l-543 1544q-885 0 -884 -721q0 -242 140 -434t341 -192q354 0 354 372q0 96 -39 174t-94 122q-121 93 -207 110l-39 10l95 189q52 0 128 -34q75 -34 127 -85t94 -160t42 -256q-1 -234 -139 -370t-332 -136q-153 0 -276 52t-198 118t-129 196q-55 130 -55 291
t46 285t119 207q196 220 558 296q155 34 279 34h583z" />
    <glyph glyph-name="X.alt1" horiz-adv-x="1523" 
d="M3046 -1329q-274 0 -557 106q-283 105 -503 263t-439 376q-218 218 -360 402t-293 415t-245 410q-2 0 -2 4l-215 -385q-40 -99 -25 -172q7 -36 46 -64t110 -28h-561q100 0 189 88t151 190l262 465q-8 31 -48 132q-127 322 -267 494q-53 65 -123 109t-137 44v65h157
q119 0 235 -59q117 -60 197 -146q168 -180 241 -332q32 -65 32 -81l196 342q2 6 7 15q33 73 18 146q-20 105 -176 105h586q-98 0 -188 -86t-152 -189l-240 -409q12 -27 56 -128t173 -331q131 -230 255 -422t253 -356t296 -331t335 -285t368 -192t398 -73q260 0 420 168
q132 139 110 311t-227 261q-143 61 -356 61l78 322q225 0 389 -126t207 -306t8 -361q-35 -180 -210 -306t-449 -126z" />
    <glyph glyph-name="Y.alt1" horiz-adv-x="1388" 
d="M1071 1575h510q-156 0 -285 -240l-348 -766v-317q0 -92 41 -154t82 -80l41 -16h-657q106 35 146 143q17 47 17 107v293l-491 962q-881 0 -881 -721q0 -242 140 -434t342 -192q354 0 354 372q0 96 -39 174t-94 122q-120 93 -207 110l-39 10l94 189q52 0 128 -34
q75 -34 127 -85t94 -160t42 -256q0 -234 -138 -370t-335 -136q-63 0 -131 10t-167 52t-174 108t-129 196t-54 291t46 285t119 207q197 221 558 296q155 34 278 34h660q-76 0 -121 -24q-45 -25 -57 -55q-29 -73 16 -173l340 -647l291 633q15 37 21 88q7 51 0 86t-42 63
t-98 29z" />
    <glyph glyph-name="Z.alt1" horiz-adv-x="2451" 
d="M1718 1247q367 0 529 -224q94 -133 94 -351q0 -320 -214 -492q-173 -137 -451 -171q-165 -20 -257 -19q-92 2 -151 4t-76 2h-1114v31q82 0 194 169t210 381q97 212 219 440t201 307t179 142l35 25h-577q-76 0 -122 -50q-45 -50 -59 -123q-28 -150 -14 -269l8 -50h-59
l-150 576h1413v-43q-55 0 -111 -34t-117 -106t-107 -155l-430 -891q-6 -10 -27 -51t-70 -100q-97 -115 -168 -115h684q384 0 566 59t265 165q105 132 104 358q-1 225 -119 373t-318 149q-369 0 -369 -363q0 -96 47 -165q47 -68 115 -98q142 -62 248 -62h47l-94 -189
q-70 8 -157 39t-148 74t-113 131q-51 88 -51 201q0 229 143 362t342 133z" />
    <glyph glyph-name="i_t" horiz-adv-x="1632" 
d="M545 244q0 -92 42 -154t85 -78l41 -14h-641q17 0 50 18q109 58 109 215v584l-133 -86l-26 49q365 296 382 314q39 40 73 2q17 -20 18 -66v-784zM1348 938h-60v-662q0 -136 22 -164t73 -28q50 0 87 28t50 56l14 27l76 -45q-5 -19 -37 -60q-33 -40 -67 -66
q-89 -67 -246 -67q-299 0 -297 319v662h-111q-21 0 -33 21t25 53q51 53 136 141t147 154q61 67 71 75t32 12t40 -19q18 -22 18 -66v-285h60q186 0 330 140t145 380q1 305 -223 507t-596 202q-318 0 -546 -199t-229 -428q1 45 51 95q50 51 128 51t128 -60t50 -134
q0 -75 -60 -130t-123 -55q-115 0 -175 82q-60 81 -60 189t65 241q142 287 447 421q162 71 336 70q420 0 652 -225t233 -598q0 -251 -161 -443t-392 -192z" />
    <glyph glyph-name="A.alt2" horiz-adv-x="1351" 
d="M-891 -1294q422 0 795 794q-387 190 -660 191q-334 0 -512 -215q-142 -168 -120 -377t196 -318q125 -75 301 -75zM582 1380l-234 -829h486zM496 1412q0 163 -179 163h770q-65 0 -105 -25q-40 -26 -51 -60q-25 -79 -11 -128l327 -1090q28 -85 73 -152q85 -124 191 -124
h-751q63 0 103 28t51 66q22 77 12 143l-68 234h-534q-50 -213 -133 -468t-175 -460q231 -117 456 -254q415 -253 649 -336q123 -43 267 -63t270 4q281 52 540 309l260 -151q-141 -142 -298 -222t-301 -102q-145 -22 -315 4q-170 27 -311 77t-319 138t-438 242
q-259 154 -494 276q-395 -842 -885 -841q-393 0 -588 217q-152 172 -115 399t260 378q223 150 556 150t727 -186q88 197 162 420q75 223 106 346l276 985q15 45 15 83z" />
    <glyph glyph-name="B.alt2" horiz-adv-x="1714" 
d="M782 51q217 0 323 82q105 82 105 295q0 106 -41 176t-113 100q-119 49 -282 50h-180v-703h188zM594 1501v-682h188q217 0 323 79q105 79 105 286q0 102 -41 171t-113 99q-117 48 -282 47h-180zM1167 782q170 0 301 -98t131 -309q-1 -211 -127 -295t-358 -84h-999
q105 35 144 144q17 48 17 108v1259q-1104 0 -1103 -721q0 -242 140 -434t341 -192q354 0 354 372q0 96 -39 174t-94 122q-120 93 -207 110l-39 10l95 189q52 0 128 -34q74 -34 126 -85t94 -160t43 -256q-1 -234 -139 -370t-334 -136q-63 0 -131 10t-167 52t-174 108
t-129 196q-55 130 -55 291t54 285t139 207q225 220 640 296q176 34 304 34h954q215 0 333 -116t118 -300q0 -287 -246 -359q-58 -18 -115 -18z" />
    <glyph glyph-name="C.alt2" horiz-adv-x="1519" 
d="M1280 1262q0 150 -91 228t-291 79t-324 -187q-122 -188 -132 -557q382 56 598 145q240 99 240 292zM1511 1292q0 -163 -188 -281t-536 -212q-144 -39 -343 -84q8 -179 58 -321q85 -244 273 -346q79 -42 157 -46q111 0 203 50t145 127q111 161 111 306h65v-33
q0 -167 -101 -323q-45 -68 -107 -116t-166 -82q-182 -59 -426 -17q-91 16 -193 66t-180 129q-78 78 -136 214q-57 136 -69 312q-762 -164 -1104 -277q-754 -246 -961 -620q-88 -158 -88 -342q1 -226 185 -400t426 -174q114 0 194 56t116 134q69 152 77 292v55l280 -125
q0 -256 -226 -393t-526 -107t-483 226q-162 176 -161 442q-1 228 77 414t184 313t310 231t360 164t432 114t429 76q155 22 311 41t166 21q4 201 61 360q57 160 141 250t190 150q182 100 354 100q171 0 287 -17t157 -34l43 -16q28 -21 67 -33t66 -10q26 2 48 30t21 89v-353z
" />
    <glyph glyph-name="D.alt2" horiz-adv-x="1697" 
d="M606 41q637 0 637 793q0 172 -46 303t-113 203q-66 72 -158 116q-92 45 -167 58t-153 14v-1487zM903 1575q117 0 242 -53q286 -121 408 -395q69 -153 69 -330q0 -361 -212 -581t-515 -220h-782q107 36 146 144q17 48 17 108v1259q-1106 0 -1105 -721q0 -242 141 -434
t340 -192q354 0 354 372q0 96 -39 174t-94 122q-121 93 -205 110l-39 10l92 189q60 1 127 -31q266 -126 265 -506q-1 -232 -139 -368t-332 -136q-63 0 -131 10t-167 52t-174 108t-129 195q-55 129 -55 291t54 286t139 207q226 221 639 296q178 34 305 34h780z" />
    <glyph glyph-name="E.alt2" horiz-adv-x="1415" 
d="M274 248v1259q-1104 0 -1103 -721q0 -242 140 -434t341 -192q354 0 354 372q0 96 -39 174t-94 122q-120 93 -207 110l-39 10l94 189q52 0 128 -34q75 -34 127 -85t94 -160t43 -256q-1 -234 -139 -370t-334 -136q-64 0 -132 10t-166 52t-175 107q-75 67 -129 197t-54 291
t54 285t138 207q226 220 641 296q176 34 304 34h1212l17 -440h-31q0 90 -74 222t-198 134h-443v-725h215q141 0 196 57q24 25 38 48l15 -335q-1 12 -14 40q-49 106 -229 106h-221v-602h490q63 0 115 39t92 120t59 183l6 39h31l-17 -465h-1267q104 35 144 146q17 48 17 106z
" />
    <glyph glyph-name="F.alt2" horiz-adv-x="1253" 
d="M1348 1137q0 29 -32 126q-32 98 -93 164q-62 66 -150 66h-467v-727h213q122 0 180 57t70 107v-410q-9 28 -27 55q-69 104 -215 109h-221v-436q0 -94 41 -156t82 -80l39 -16h-655q107 36 146 144q17 48 17 108v1259q-545 0 -829 -185q-169 -110 -238 -307
q-35 -103 -34 -229q0 -242 140 -434t341 -192q354 0 354 372q0 96 -39 174t-94 122q-121 93 -207 110l-39 10l95 189q52 0 128 -34q75 -34 127 -85t94 -160t42 -256q-1 -234 -139 -370t-332 -136q-153 0 -276 52t-197 118t-128 196q-55 130 -55 291t54 285t139 207
q225 220 638 296q176 34 304 34h1237l16 -438h-30z" />
    <glyph glyph-name="G.alt2" horiz-adv-x="1619" 
d="M1497 803v-826q0 4 -2 9q-4 -133 -18 -249q-13 -116 -55 -255t-104 -252q-62 -112 -172 -222t-253 -184t-353 -120t-468 -45q-670 0 -953 315q-193 215 -151 502q35 246 209 404t387 157q377 0 520 -223q104 -162 45 -357q-49 -170 -186 -241q-63 -33 -138 -33l-110 192
q201 0 285 138q74 119 10 254q-99 211 -426 215q-209 0 -335 -186t-93 -429q36 -285 282 -462t654 -177q502 0 797 202q93 62 156 137q143 173 188 335q70 241 71 351q2 110 7 197t-1 165q-38 -37 -60 -53t-77 -46q-105 -59 -315 -59t-401 103q-105 58 -184 146t-130 233
q-51 144 -51 332q0 189 55 343t139 246t192 154q184 106 384 110q156 0 266 -30t168 -60q57 -30 85 -29q27 0 55 23t38 45l12 22v-594h-114q0 422 -289 527q-289 104 -478 -142q-67 -86 -107 -236t-40 -347q0 -387 118 -587t286 -204q178 0 277 80t99 276t-74 281
q-75 84 -229 84h-219v70h801z" />
    <glyph glyph-name="H.alt2" horiz-adv-x="1894" 
d="M760 1575q-157 -52 -164 -244v-565h694l-16 664q-36 105 -148 145h648q-106 -35 -145 -144q-17 -48 -17 -108v-549q582 0 885 330q227 246 228 574t-183 556q-229 258 -574 267q-368 0 -842 -219q-198 -91 -408 -181t-480 -153t-555 -64q-488 0 -726 67t-353 194
q-134 154 -134 395h273q0 -264 228 -417t691 -153q224 0 450 45t401 113q353 137 722 293q163 69 355 113t372 44q440 0 719 -276q233 -229 263 -563t-187 -606q-348 -434 -1145 -439v-446q0 -150 104 -224q32 -22 58 -28h-648q108 36 147 144q17 48 17 108v434h-694v-440
q2 -90 43 -152t82 -78l39 -16h-647q107 36 146 144q17 48 17 108v1075q0 121 -53 177t-94 69l-16 6h647z" />
    <glyph glyph-name="I.alt2" horiz-adv-x="890" 
d="M612 252q0 -120 56 -179q56 -60 108 -73h-655q105 35 144 144q17 48 18 108v1255q-274 0 -516 -54t-412 -215q-170 -160 -170 -452q0 -242 140 -434t339 -192q356 0 356 372q0 96 -38 174t-94 122q-122 93 -207 110l-39 10l92 189q52 0 128 -34q75 -34 127 -85t94 -160
t42 -256q0 -234 -137 -370t-334 -136q-63 0 -131 10t-167 52t-174 108t-129 196t-54 291t54 285t138 207q226 221 639 296q178 34 305 34l641 2q-106 -35 -146 -143q-17 -47 -18 -107v-1075z" />
    <glyph glyph-name="J.alt2" horiz-adv-x="874" 
d="M-551 -1260h10q91 0 139 2t136 19q88 16 142 46t126 92q72 61 117 151q108 214 145 542q-602 270 -1016 271q-336 0 -446 -223q-90 -184 5 -424t300 -373q160 -103 342 -103zM-557 -1372q-514 0 -758 270q-180 201 -151 459q28 258 226 425t490 167q461 0 1024 -236
q10 147 11 287v1323q0 117 -64 176q-64 58 -112 70l-21 6h690q-107 -36 -146 -144q-17 -48 -18 -108v-1323q0 -256 -20 -432q113 -56 288 -146q595 -308 799 -370q105 -32 233 -54q365 -61 619 193l187 -270q-201 -201 -509 -175q-334 29 -825 275q-198 99 -400 207
t-411 215q-35 -181 -105 -319t-196 -254q-263 -242 -831 -242z" />
    <glyph glyph-name="K.alt2" horiz-adv-x="1568" 
d="M2783 -1288q455 0 639 241q135 179 76 403t-252 351q-162 109 -343 109q-466 0 -820 -234q-125 -82 -200 -141t-195 -164q374 -565 1095 -565zM2857 -1372q-874 0 -1341 502q-133 -109 -245 -185q-111 -75 -263 -149q-304 -148 -721 -148q-580 0 -811 316
q-141 190 -113 424q20 166 109 231q31 23 65 23l193 -260q-80 0 -133 -97q-74 -125 -17 -260q122 -293 742 -297q351 0 628 151q140 77 246 151t246 186q-133 166 -232 383q-98 217 -146 398t-87 342t-82 253t-104 92l-181 -250v-186q0 -120 56 -179q56 -60 108 -73h-655
q107 36 146 144q17 48 18 108l-2 1259q-169 0 -313 -16q-144 -17 -295 -65t-256 -124t-173 -209q-68 -132 -67 -307q0 -242 140 -434t341 -192q354 0 354 372q0 96 -39 174t-94 122q-121 93 -207 110l-39 10l95 189q52 0 128 -34q75 -34 127 -85t94 -160t42 -256
q0 -234 -138 -370t-333 -136q-63 0 -131 10t-167 52t-174 108t-129 196q-55 130 -55 291t54 285t139 207q226 221 639 296q178 34 305 34h645q-107 -36 -146 -144q-17 -48 -18 -108v-782l549 764q97 145 69 217q-21 53 -122 53h567q-169 0 -379 -210q-47 -48 -73 -83
l-277 -385q92 0 160 -94t119 -261q51 -166 98 -352t127 -416t180 -403q119 98 206 163q240 179 484 275q244 95 524 95q281 0 485 -70t307 -180q102 -110 150 -246q48 -135 -2 -270t-154 -248q-104 -114 -308 -188q-206 -74 -463 -74z" />
    <glyph glyph-name="L.alt2" horiz-adv-x="1232" 
d="M281 1507q-546 0 -830 -185q-170 -111 -237 -307q-35 -103 -35 -229q0 -242 141 -434t340 -192q354 0 354 372q0 96 -39 174t-94 122q-121 94 -205 110l-38 10l92 189q52 0 128 -34q75 -34 127 -85t94 -160t42 -256q0 -234 -137 -370t-334 -136q-63 0 -131 10t-167 52
t-174 108t-129 196q-55 130 -55 291t54 285t139 207q226 221 639 296q178 34 305 34h641q-105 -35 -144 -144q-17 -48 -18 -108v-1243h240q100 0 175 58t111 142q74 174 83 310l4 57h43l-21 -649l-1128 2q6 2 17 5t40 21q104 67 107 222v1259z" />
    <glyph glyph-name="M.alt2" horiz-adv-x="2097" 
d="M-692 2071q164 0 312 15t216 32l66 16q-117 196 -269 341q-72 69 -175 125t-201 56q-211 0 -290 -146t19 -293q99 -146 322 -146zM1980 1571q-163 -54 -163 -250v-1075q0 -121 53 -177t94 -69l16 -6h-655q159 53 162 252v1175l-479 -1355q-29 -88 -54 -89q-16 0 -45 64
l-555 1251v-1044q0 -120 56 -179q56 -60 108 -73h-409q105 35 144 144q17 48 17 108v1265q-246 465 -299 519q-37 -16 -101 -39t-258 -62q-192 -39 -360 -39t-276 83t-134 202t-2 238t136 201t281 83q245 0 453 -119t460 -372q72 22 283 96t321 104t310 64q202 33 407 33
q45 0 178 -22t239 -69q108 -47 168 -95t101 -123t41 -164l-238 -4q0 102 -46 183t-108 123t-137 70t-123 34q-48 7 -140 7q-92 1 -246 -21q-156 -22 -255 -42q-200 -40 -694 -246q145 -145 355 -556t348 -749l137 -339l381 1079h528z" />
    <glyph glyph-name="N.alt2" horiz-adv-x="1726" 
d="M2628 -252q293 0 472 -151q62 -53 103 -143t41 -205q0 -116 -43 -214q-78 -177 -263 -265q-185 -87 -405 -88q-219 -1 -427 101q-208 103 -374 271t-324 389q-159 221 -283 455q-255 480 -392 791q-250 567 -354 671v-1112q0 -150 104 -224q32 -22 58 -28h-410q6 2 17 5
t40 19q107 59 107 228v1192q-12 16 -33 35q-92 57 -298 57t-423 -99q-121 -57 -213 -141t-152 -222t-61 -310q-1 -236 139 -408t339 -172t301 104t102 269q0 96 -42 167q-42 70 -102 102q-121 63 -221 71l-43 2l13 188q27 5 117 -2t167 -48q76 -42 117 -90t70 -131t28 -189
q0 -229 -156 -368q-157 -138 -358 -138q-60 0 -124 10t-153 51t-155 109q-66 67 -114 197t-48 302t64 314t164 231q100 91 232 153q244 116 523 113h230q222 0 423 -233q105 -123 186 -229q156 -204 554 -1020v1208q0 95 -41 157t-82 79l-39 16h410q-28 -9 -57 -28
q-107 -69 -107 -224v-1376q109 -213 194 -366q86 -153 198 -319t214 -266q102 -102 228 -168t251 -67q313 0 457 217q111 170 68 371t-193 286q-82 45 -168 45t-137 -33q-83 -55 -103 -175q-9 -47 -7 -82v-33l-232 43q0 47 27 114q27 66 67 112q41 46 128 84q88 38 184 38z
" />
    <glyph glyph-name="Ntilde.alt2" horiz-adv-x="1726" 
d="M1199 2001q93 -1 153 21t73 42l15 21q-2 -11 -5 -29t-23 -64t-48 -82q-29 -36 -87 -65t-134 -28q-147 1 -375 65t-298 64q-72 0 -126 -22t-80 -44l-24 -20q15 38 48 85q114 161 347 159q103 0 287 -52q184 -51 277 -51zM1354 1323q0 191 -162 252h410q-108 -36 -147 -144
q-17 -48 -17 -108v-1376q110 -213 194 -366t197 -319t215 -266q102 -102 227 -168t252 -67q313 0 457 217q112 170 68 371t-193 286q-82 45 -168 45t-137 -33q-51 -34 -82 -100t-31 -157l2 -33l-231 43q0 47 26 113q26 67 68 113q41 46 128 84q88 38 184 38t170 -13t157 -49
q82 -36 144 -89q61 -53 103 -143t42 -205q0 -116 -43 -214q-78 -178 -277 -271q-173 -81 -391 -82q-219 -1 -427 101q-208 103 -374 271t-324 389q-159 221 -283 455q-267 503 -398 802q-242 554 -348 660v-1112q0 -94 41 -156t81 -80l39 -16h-409q6 2 17 5t40 19
q104 58 107 228v1192q-12 16 -33 35q-92 57 -299 57t-422 -99q-121 -57 -213 -141t-152 -222t-61 -310q0 -236 139 -408t338 -172t301 104t103 269q0 96 -42 167q-42 70 -102 102q-119 63 -223 71l-41 2l12 188q28 6 89 1t108 -17t105 -44t100 -80t70 -131t28 -189
q0 -229 -157 -367t-357 -139q-60 0 -124 10t-154 51t-154 109q-66 67 -114 197t-48 302t64 314t163 231q101 91 233 153q245 116 523 113h229q222 0 423 -233q105 -123 187 -229q153 -199 490 -891q43 -88 64 -129v1208z" />
    <glyph glyph-name="O.alt2" horiz-adv-x="1654" 
d="M426 817q0 -391 116 -589t287 -199q170 0 282 191t112 519q-432 0 -618 251q-101 137 -99 296q-31 -62 -56 -195q-24 -133 -24 -274zM825 1563q-146 0 -252 -154q0 -180 75 -316q44 -81 114 -139t188 -94q118 -37 273 -37q0 199 -37 349t-97 232q-118 159 -264 159z
M1421 2591q221 0 414 -72q193 -71 317 -189t200 -271q152 -311 53 -649q-100 -339 -426 -522q-175 -99 -400 -134q-4 -199 -56 -347q-52 -147 -128 -231q-75 -84 -181 -134t-196 -64t-192 -15q-102 0 -195 15q-93 16 -199 68t-182 137t-127 240t-51 363t55 369
q55 162 136 251t190 144q178 90 372 90q84 0 169 -15q86 -15 190 -66t184 -133t139 -227q59 -146 70 -339q215 50 367 196t215 328t50 383q-28 435 -370 639q-179 108 -405 107q-226 1 -443 -63t-416 -155t-409 -181t-479 -154q-270 -64 -555 -64q-489 0 -728 67
q-238 67 -351 195q-134 154 -134 394h273q0 -264 228 -417t691 -153q265 0 529 62t478 152q214 89 421 180q494 215 882 215z" />
    <glyph glyph-name="P.alt2" 
d="M653 557q223 0 358 150q134 150 134 378q0 107 -38 195q-65 151 -210 218q-59 28 -109 28h-182v-969h47zM958 1575q175 0 321 -92q81 -51 130 -160t49 -262q0 -291 -147 -426t-375 -135h-330v-252q0 -94 41 -156t82 -80l39 -16h-655q107 36 146 144q17 48 17 108v1259
q-545 0 -829 -185q-169 -110 -238 -307q-35 -103 -34 -229q0 -242 141 -434t340 -192q354 0 354 372q0 96 -39 174t-94 122q-121 93 -207 110l-39 10l95 189q52 0 128 -34q75 -34 127 -85t94 -160t42 -256q0 -234 -137 -370t-334 -136q-63 0 -131 10t-167 52t-174 108
t-129 196q-55 130 -55 291t54 285t139 207q226 221 639 296q178 34 305 34h831z" />
    <glyph glyph-name="Q.alt2" horiz-adv-x="1654" 
d="M3059 -1174q128 80 184 198t36 259t-136 257q-237 237 -571 179q-166 -29 -324 -90t-360 -170q164 -321 275 -446t257 -197q146 -71 328 -71q183 1 311 81zM821 16q166 0 277 183q-181 52 -314 -13q-72 -35 -104 -67l-35 -35v-2q84 -66 176 -66zM944 303q98 0 197 -24
q92 215 92 538q0 453 -195 651q-103 107 -216 107t-225 -116q-113 -116 -161 -350q-27 -132 -26 -292q0 -438 157 -655q69 55 174 98t203 43zM2703 -1327q-181 0 -331 37t-253 96q-103 58 -191 150t-142 180q-55 88 -109 205q-72 -41 -322 -190t-481 -265
q-231 -117 -353 -156q-122 -40 -295 -74t-301 -12t-270 86q-142 66 -265 189l268 102q177 -177 398 -203q250 -27 495 51t470 192q225 115 411 221t217 122q-25 57 -78 187t-83 197q-87 195 -192 294q-186 -119 -475 -119q-106 0 -200 15q-94 16 -206 68t-190 137t-131 240
t-53 363t57 369q58 162 142 251t196 144q112 54 203 72q90 18 182 18q93 0 183 -17t202 -73t196 -144q83 -89 140 -251t57 -373q0 -412 -202 -618q153 -107 253 -266q99 -159 208 -377q195 104 343 174t320 125t307 61q134 6 270 -38t240 -150q76 -76 113 -182
q79 -227 -28 -444q-54 -112 -145 -199t-242 -141t-333 -54z" />
    <glyph glyph-name="R.alt2" horiz-adv-x="1613" 
d="M2587 -1284q436 0 610 235q129 173 67 389t-253 334q-147 92 -334 93q-97 0 -243 -41q-60 -17 -195 -97t-257 -188q-123 -107 -219 -186q83 -166 183 -278q100 -113 264 -187t377 -74zM696 629q244 1 336 111t92 354q0 118 -34 204t-90 130q-105 85 -218 85h-172v-884h86
zM2587 -1366q-707 0 -1053 438q-258 -186 -544 -294t-652 -107q-198 0 -358 39q-160 40 -262 104q-216 136 -296 330q-80 195 -81 364t16 250l6 39l260 -174q-23 -52 -41 -156t-14 -185t45 -180t124 -171t245 -121t387 -49q323 0 587 105t514 292q-161 246 -305 743
q-49 169 -115 325q-139 333 -440 333v-311q0 -120 56 -179q56 -60 108 -73h-657q107 36 146 144q17 48 18 108v1259q-1104 0 -1104 -721q0 -242 141 -434t340 -192q354 0 354 372q0 96 -39 174t-94 122q-121 93 -207 110l-39 10l95 189q52 0 128 -34q75 -34 127 -85t94 -160
t42 -256q0 -234 -137 -370t-334 -136q-63 0 -131 10t-167 52t-174 108t-129 196q-55 130 -55 291t54 285t139 207q226 221 639 296q178 34 305 34h827q171 0 326 -99q80 -52 130 -152t50 -234q0 -246 -142 -384t-392 -145q115 -41 210 -119t158 -166q123 -171 228 -440
q148 -386 192 -481q33 27 215 185t329 247q146 89 214 111q165 53 293 53q301 0 489 -223q164 -192 160 -460t-220 -451t-609 -183z" />
    <glyph glyph-name="S.alt2" horiz-adv-x="1454" 
d="M938 1312q0 140 -90 204t-219 63q-129 1 -207 -61t-78 -173t77 -185q58 -54 197 -96q43 -13 125 -36q195 144 195 284zM1364 439q0 -124 -42 -217t-105 -147t-176 -100t-266 -48q-152 -1 -306 39t-209 95q-37 33 -52 18t-15 -50v-33h-60v604h82v-65q0 -248 215 -408
q178 -133 386 -132t286 140q35 63 35 151q-1 88 -51 150q-50 61 -138 96t-181 59q-93 23 -210 57t-195 77q-195 -80 -538 -215q-566 -221 -849 -374q-282 -153 -479 -320q-193 -168 -266 -368q-38 -103 -38 -212q0 -203 118 -351q118 -149 289 -149q172 0 300 110t128 304
q0 152 -58 226t-137 66q-79 -9 -149 -79l-135 174q43 43 112 59q143 34 283 -67q66 -47 109 -142t43 -223q0 -268 -211 -409q-180 -119 -415 -82t-359 227q-92 139 -92 334q0 141 63 274t167 241q104 107 261 215q158 108 391 229t727 318q494 196 656 267
q-162 129 -162 373q0 135 45 233t124 150q153 101 372 100q96 0 195 -30q100 -30 159 -64t100 -91q41 -58 41 -132q0 -162 -262 -332q196 -60 324 -168q145 -123 145 -378z" />
    <glyph glyph-name="T.alt2" horiz-adv-x="1189" 
d="M1763 1872q0 -284 -342 -341q-186 -31 -430 -27q-65 1 -88 1v-1257q0 -153 105 -224q32 -22 57 -28h-655q107 36 146 144q17 48 17 108v1255q-197 0 -345 -17q-336 -39 -498 -191q-181 -170 -183 -496q0 -171 96 -313q48 -70 135 -112t202 -42q186 0 247 135
q55 117 -18 246q-82 147 -268 172l-64 4l103 162q209 0 313 -161t62 -343t-220 -256q-87 -35 -215 -35t-242 50q-202 88 -276 321q-33 100 -33 227t49 243q49 115 126 191t190 132t216 85q249 70 623 70h447v2q408 0 533 179q42 60 42 145t-51 166t-140 81t-121 -36
q-33 -36 -17 -86q16 -52 65 -101l-110 -145q-63 62 -73 164t54 185q66 83 220 83t247 -90q94 -90 94 -250z" />
    <glyph glyph-name="U.alt2" horiz-adv-x="1712" 
d="M1901 1786q346 0 509 221q124 170 90 371t-188 293q-92 55 -207 55q-293 0 -447 -240t-169 -653q205 -47 412 -47zM2144 2791q281 0 436 -194q136 -171 104 -397t-249 -365q-205 -127 -514 -127q-205 0 -434 33v-1053q0 -254 -10 -326q-37 -272 -258 -364
q-129 -53 -344 -53t-346 70q-130 70 -188 188q-58 119 -62 213t-9 161q-4 67 -2 120t2 75v551q0 124 -54 179t-93 67l-17 6h668q-6 -2 -17 -5q-11 -4 -39 -20q-103 -61 -106 -209v-757q0 -139 8 -185q8 -45 14 -97q7 -52 20 -81q14 -29 32 -67t43 -60q25 -20 69 -48t133 -29
q384 -5 444 280q24 112 25 177q1 64 3 120t1 108q-1 50 -1 70v983q-283 55 -525 177t-404 253q-161 131 -307 255q-337 286 -642 286t-432 -229q-100 -183 -47 -399t204 -308q80 -49 176 -49t173 38t119 91q87 112 110 198l8 37l178 -118q-24 -48 -80 -106q-57 -58 -119 -99
t-171 -75t-234 -34q-295 0 -442 215q-125 180 -83 418t238 373q163 113 383 113t416 -74t365 -191q167 -117 329 -241t370 -247q208 -122 417 -184q0 270 70 461q29 82 85 174t131 154t193 105q118 42 262 42z" />
    <glyph glyph-name="V.alt2" horiz-adv-x="1380" 
d="M2342 2599q160 0 298 -51t208 -119q68 -68 108 -164q40 -97 47 -157t8 -128q0 -196 -152 -352t-373 -156t-341 78q-110 74 -143 162q-34 89 -34 131v21l189 94q0 -137 59 -248q96 -180 285 -178q153 0 241 135t88 346t-140 366t-366 154q-116 0 -230 -53t-202 -137
q-192 -183 -305 -395q-113 -211 -155 -320l-605 -1646q-23 -70 -53 -70q-24 0 -45 51l-469 1286q-37 110 -118 213q-34 43 -88 78t-109 35h749q-66 0 -104 -26q-38 -27 -44 -63q-14 -75 5 -138l346 -953l430 1180q14 45 71 176q58 131 112 228t143 215q88 118 181 203
t220 143q128 58 288 59z" />
    <glyph glyph-name="W.alt2" horiz-adv-x="1992" 
d="M575 1575q-166 0 -150 -177q3 -34 13 -67l316 -903l295 954q23 68 51 68q17 0 43 -49l395 -1012l414 1186q100 334 303 619q84 118 174 203t215 143q126 58 286 59q160 0 300 -51t207 -119t107 -164q40 -97 47 -157t7 -128q0 -196 -152 -352t-373 -156q-222 0 -336 76
q-114 75 -147 164q-34 89 -34 131v21l188 94q0 -136 59 -247q96 -182 285 -179q152 0 242 135t90 346t-141 366t-367 154q-116 0 -228 -53t-197 -137q-181 -179 -290 -393q-109 -215 -145 -322l-577 -1646q-23 -70 -52 -70q-22 0 -43 51l-381 955l-301 -936q-23 -70 -51 -70
q-18 0 -45 51l-489 1397q-117 215 -263 215h725z" />
    <glyph glyph-name="X.alt2" horiz-adv-x="1538" 
d="M3064 -1227q281 0 444 187q136 154 112 352t-224 303q-156 84 -398 84t-565 -272q-51 -43 -151 -129l-150 -129q469 -396 932 -396zM3086 -72q225 0 389 -129t207 -314q44 -185 10 -371t-209 -314q-175 -129 -444 -129q-532 0 -1067 371q-528 -395 -1087 -396t-810 146
q-114 66 -185 150q-119 142 -98 343q17 162 110 252l135 -174q-46 -46 -58 -131q-12 -86 -2 -151q9 -65 65 -131t149 -116t265 -83t404 -33q545 0 1047 373q-211 155 -417 369t-344 394q-298 389 -509 789q-4 0 -4 4l-215 -385q-40 -101 -26 -172q7 -36 46 -64t111 -28h-559
q170 0 338 278l264 465q-8 31 -48 132q-186 470 -391 603q-69 44 -137 44v65h158q119 0 234 -59q114 -60 196 -146q158 -168 241 -332q32 -65 32 -81l198 342q2 6 6 15q33 75 20 142q-21 109 -179 109h585q-98 0 -187 -86t-153 -189l-237 -409q58 -138 186 -379
q129 -240 253 -436t314 -438t385 -416q90 76 220 198t213 197q240 217 389 273q98 38 196 38z" />
    <glyph glyph-name="Y.alt2" horiz-adv-x="1380" 
d="M2436 2599q160 0 300 -51t207 -119t107 -164q40 -97 48 -157t7 -128q0 -196 -152 -352t-373 -156t-341 78q-110 74 -142 159q-33 86 -35 134v21l189 94q0 -137 59 -248q96 -181 285 -178q151 0 241 135t90 346t-140 366q-142 155 -367 154q-117 0 -236 -53t-216 -137
q-208 -180 -347 -397q-140 -217 -186 -318l-27 -53l-457 -1006v-317q0 -92 41 -154t82 -80l41 -16h-657q106 35 146 143q17 47 18 107v293l-410 805q-70 141 -159 200q-36 25 -70 25h741q-76 0 -121 -24q-45 -25 -57 -55q-29 -73 16 -173l340 -647l410 919q10 19 27 57
t76 141q123 219 256 372q132 154 236 236q246 198 530 198z" />
    <glyph glyph-name="Z.alt2" horiz-adv-x="1638" 
d="M350 1249q164 0 432 240h-276q-190 0 -250 -96q-39 -63 8 -113q31 -31 86 -31zM2426 1622q-212 0 -333 115t-121 268l176 39q0 -139 84 -247q75 -97 228 -97q86 0 166 42t122 108q148 231 11 453q-41 67 -125 109t-197 42q-203 0 -457 -103q-163 -67 -425 -261
q-133 -99 -290 -248q-157 -150 -278 -269h578v-43q-55 0 -111 -34t-98 -83q-89 -107 -127 -180l-430 -889q-6 -10 -27 -51t-70 -100q-98 -117 -167 -115h632q80 0 142 68q61 69 92 166q62 193 74 360l6 69h59l21 -747h-1475v31q82 0 195 169q113 168 209 380t220 440
q122 228 195 302q73 73 185 150l34 23h-221q-231 -223 -384 -335t-281 -112q-176 0 -218 119q-39 106 56 228q121 156 352 180l76 4h368q46 43 152 147q353 345 527 469q253 178 417 239q250 93 477 93t375 -92t176 -224q27 -131 -15 -265t-193 -226q-150 -92 -362 -92z" />
    <glyph glyph-name="c_h" horiz-adv-x="2711" 
d="M1034 801q0 84 -83 136t-228 58q0 -133 53 -226t137 -93q59 0 91 35q30 35 30 90zM2519 57q55 0 91 27t44 53l10 27l46 -55q-7 -20 -33 -49q-93 -99 -297 -99q-141 0 -197 81q-29 42 -46 79q-34 74 -34 287q0 22 2 80t4 145t-13 145q-32 126 -89 158q-35 20 -82 20
q-86 0 -134 -78t-48 -186v-438q0 -123 56 -182q56 -60 108 -72h-662q107 36 147 146q17 48 17 108v1051q0 266 -164 358q-131 72 -284 -4q-285 -137 -244 -586q117 0 199 -30q82 -29 118 -73q66 -77 68 -149q0 -111 -54 -159t-135 -50q-225 0 -266 377q-88 -23 -148 -131
q-61 -108 -77 -244q-40 -333 73 -496q62 -91 154 -91q92 1 166 35t115 84q81 99 106 186l8 35l80 -23q-2 -8 -4 -22q-15 -108 -102 -212q-86 -105 -226 -148q-139 -43 -339 2q-111 25 -207 102q-97 76 -136 229q-22 83 -22 189t30 204q110 361 523 383q-4 86 -4 137
q0 219 114 372q115 153 277 192t325 9t277 -176t113 -366v-377q6 30 38 74q32 45 69 76q38 32 112 56t148 24q136 0 199 -46q33 -24 57 -48t37 -64t25 -75q12 -34 13 -96v-136l-8 -275q-1 -193 25 -244t61 -51z" />
    <glyph glyph-name="l_l" horiz-adv-x="1562" 
d="M276 1538q-98 0 -158 -59t-66 -132t54 -133q59 -60 170 -59v383zM1001 250v1167q-57 -63 -182 -147t-239 -125v-895q0 -119 53 -174q53 -56 90 -68l16 -6h-637l18 6q97 31 138 135q18 47 18 107v837q-199 -5 -266 129t10 283q90 174 308 238q92 27 200 26q51 0 52 -84
v-454q110 47 218 124t167 135t143 150t101 110q42 43 76 2q17 -22 18 -67v-1429q0 -120 54 -175t91 -67l16 -6h-637q7 2 19 6q97 31 137 135q18 47 18 107z" />
    <glyph glyph-name="A.alt3" horiz-adv-x="1394" 
d="M346 551h485l-249 829zM758 -4q63 0 103 28t52 66q25 81 11 143l-6 29l2 -2l-64 207h-534q-22 -97 -74 -239q-54 -142 -114 -262t-170 -266t-237 -252q-127 -105 -315 -177t-404 -72t-402 66q-186 65 -306 177q-121 112 -205 257t-103 305t-2 320t101 305t206 257
t312 178t418 64q412 0 600 -256q143 -195 105 -437t-203 -376q-129 -100 -297 -100l-141 223q324 0 463 191q108 152 50 338t-251 280q-133 66 -329 66q-196 -1 -372 -99q-174 -98 -266 -254t-136 -344q-44 -190 -5 -379t126 -345t259 -254t376 -98t374 65q169 66 288 170
q251 220 384 490t167 394l260 926q11 28 13 78q2 49 -10 82q-11 33 -53 59t-112 27h768q-65 0 -105 -25q-40 -26 -51 -60q-25 -79 -11 -128l327 -1090q98 -276 266 -276h-753z" />
    <glyph glyph-name="J.alt3" horiz-adv-x="976" 
d="M362 234v36q-112 0 -194 -34t-82 -99q0 -127 150 -131q45 0 72 22q54 43 54 206zM362 1323q0 192 -161 252h655q-107 -36 -146 -144q-17 -48 -18 -108v-1028q260 -69 569 -318q132 -106 273 -229q317 -276 596 -442q348 -205 732 -205q415 0 666 86q252 86 359 207
t129 224q22 104 14 153l-2 22l281 -63q0 -103 -50 -198q-51 -95 -111 -163q-60 -69 -168 -137q-372 -236 -1053 -233q-415 0 -788 205q-297 164 -631 447q-146 125 -278 233q-308 253 -548 325q0 -107 -99 -193t-248 -86t-231 58t-81 159q0 197 339 197v979z" />
    <glyph glyph-name="K.alt3" horiz-adv-x="1560" 
d="M2785 -1288q455 0 639 241q133 179 74 403t-252 353q-160 107 -342 107t-330 -33t-257 -75q-107 -42 -233 -125t-199 -141t-197 -165q374 -565 1097 -565zM2894 -96q230 0 435 -70q204 -70 307 -180q102 -110 150 -246q48 -135 -2 -270t-154 -248q-104 -114 -308 -188
q-205 -75 -465 -74q-872 0 -1341 502q-131 -109 -244 -185q-114 -75 -264 -149q-302 -148 -719 -148q-580 0 -811 316q-143 190 -113 424q20 166 109 231q31 23 65 23l191 -260q-80 0 -133 -97q-74 -125 -17 -262q123 -291 744 -295q347 0 627 150q141 76 247 150t244 188
q-133 166 -231 383q-97 217 -145 398t-87 342t-83 253t-105 92l-179 -250v-186q0 -120 56 -179q56 -60 108 -73h-655q105 35 144 144q17 48 18 108v1075q0 95 -41 157t-82 79l-39 16h655q-107 -36 -146 -144q-17 -48 -18 -108v-782l549 764q25 31 48 86t27 90q3 35 -28 65
t-100 29h567q-169 0 -379 -210q-47 -48 -71 -83l-27 -33l-254 -352q94 0 162 -94t118 -261q50 -166 98 -352t128 -416t180 -403q150 123 261 202q315 223 599 290q174 41 404 41z" />
    <glyph glyph-name="N.alt3" horiz-adv-x="1726" 
d="M2632 -252q293 0 472 -151q62 -53 103 -143t41 -205q0 -116 -43 -214q-78 -177 -263 -265q-185 -87 -405 -88q-219 -1 -427 101q-208 103 -374 271t-324 389q-159 221 -283 455q-255 480 -392 791q-250 567 -354 671v-1112q0 -150 104 -224q32 -22 58 -28h-410q5 2 17 5
t41 19q106 58 106 228v1192q-28 35 -77 63q-50 29 -97 29v65h51q193 0 365 -147t323 -385t268 -467q116 -229 170 -340t70 -143v1208q0 121 -53 177t-94 69l-17 6h412q-161 -54 -164 -252v-1376q109 -213 194 -366q86 -153 198 -319t214 -266q102 -102 228 -168t252 -67
q313 0 456 217q111 170 68 371t-193 286q-82 45 -168 45t-137 -33q-83 -55 -103 -175q-9 -47 -7 -82v-33l-232 43q0 47 27 114q27 66 67 112q41 46 128 84q88 38 184 38z" />
    <glyph glyph-name="R.alt3" horiz-adv-x="1624" 
d="M2587 -1284q436 0 610 235q129 173 67 389t-253 334q-147 92 -334 93q-97 0 -243 -41q-60 -17 -195 -97t-257 -188q-123 -107 -219 -186q83 -166 183 -278q100 -113 264 -187t377 -74zM610 1513v-884h86q244 1 336 111t92 354q0 118 -34 204t-90 130q-105 85 -216 85
h-174zM2587 -1366q-707 0 -1053 438q-258 -186 -544 -294t-652 -107q-198 0 -358 39q-160 40 -262 104q-216 136 -296 330q-80 195 -81 364t16 250l6 39l260 -174q-23 -52 -41 -156t-14 -185t45 -180t124 -171t245 -121t387 -49q323 0 587 105t514 292q-161 246 -305 743
q-49 169 -115 325q-139 333 -440 333v-311q0 -120 56 -179q56 -60 108 -73h-657q107 36 146 144q17 48 18 108v1075q0 120 -54 176q-54 57 -94 70l-16 6h839q171 0 326 -99q80 -52 130 -152t50 -234q0 -246 -142 -384t-392 -145q115 -41 210 -119t158 -166
q123 -171 228 -440q148 -386 192 -481q33 27 215 185t329 247q146 89 214 111q165 53 293 53q301 0 489 -223q164 -192 160 -460t-220 -451t-609 -183z" />
    <glyph glyph-name="Eringsmall" horiz-adv-x="1361" 
d="M662 1300q60 0 82 42t-3 84t-81 42t-80 -42q-25 -42 -2 -84t84 -42zM656 1253q-88 0 -122 66q-34 65 0 131t125 66q90 0 128 -66t-2 -132t-129 -65zM756 596q135 0 182 82l11 -258q-5 38 -31 62q-57 50 -158 50h-182v-469h391q80 0 132 74t66 150l13 73h45l-13 -360
h-1099q124 41 127 195v835q0 72 -32 120t-65 62l-30 13h1063l12 -340h-43q-2 10 -5 29q-2 18 -18 66q-33 102 -100 152q-41 30 -90 29h-354v-565h178z" />
    <glyph glyph-name="Iringsmall" horiz-adv-x="866" 
d="M424 1300q61 0 83 42t-3 84t-81 42t-81 -42t-2 -84t84 -42zM422 1516q90 0 128 -66t-2 -132t-129 -65q-89 0 -123 66q-34 65 1 131t125 66zM717 1225q-127 -42 -127 -195v-835q0 -117 82 -173q18 -13 45 -22h-580q22 7 44 22q83 56 83 173v835q0 74 -32 122t-64 60
l-31 13h580z" />
    <glyph glyph-name="Oringsmall" 
d="M717 1300q61 0 83 42t-3 84t-81 42t-81 -42t-2 -84t84 -42zM715 1516q90 0 128 -66q37 -66 3 -122t-89 -69q94 -5 201 -36q107 -33 179 -81t133 -117t98 -179t37 -256t-50 -264t-123 -185q-73 -66 -197 -116t-310 -51q-186 -2 -312 50t-198 118t-122 184q-50 120 -50 278
t53 283t130 193t176 110q99 44 161 54t106 14q-54 12 -84 70t5 122q35 66 125 66zM724 37q128 0 216 146t88 446q0 409 -205 528q-49 29 -100 29q-102 0 -198 -118q-48 -60 -78 -174t-29 -265q0 -299 89 -445t217 -147z" />
    <glyph glyph-name="Uringsmall" horiz-adv-x="1452" 
d="M752 1300q61 0 83 42q23 42 -3 84t-82 42t-80 -42q-25 -42 -2 -84t84 -42zM749 1516q91 0 129 -66t-2 -132t-130 -65q-90 0 -122 66q-34 65 0 131t125 66zM1202 1032v-510q0 -223 -41 -323q-94 -229 -471 -230q-146 0 -271 45q-72 26 -155 119q-36 41 -61 142t-25 169
v588q0 93 -43 137t-82 56h578q-13 1 -40 -15q-85 -50 -85 -163v-480q0 -310 64 -414t207 -104q142 0 218 59q119 84 119 388v536q0 72 -32 120t-62 60l-33 13h340q-4 -2 -13 -5q-67 -22 -99 -106q-13 -37 -13 -82z" />
    </font>
</defs>
</svg>
